<?xml version="1.0" encoding="utf-8"?>
<!-- Generator: Adobe Illustrator 16.0.0, SVG Export Plug-In . SVG Version: 6.00 Build 0)  -->
<!DOCTYPE svg PUBLIC "-//W3C//DTD SVG 1.1//EN" "http://www.w3.org/Graphics/SVG/1.1/DTD/svg11.dtd">
<svg version="1.1" id="Layer_1" xmlns="http://www.w3.org/2000/svg" xmlns:xlink="http://www.w3.org/1999/xlink" x="0px" y="0px"
	 width="161px" height="17px" viewBox="0 0 161 17" enable-background="new 0 0 161 17" xml:space="preserve">
<g>
	<g>
		<path fill="#FFFFFF" stroke="#000000" stroke-miterlimit="10" d="M127.691,12.614V6.245H161v-1.81h-33.309V0H0v17h127.691v-2.58
			H161v-1.806H127.691z M3.565,7.54l2.906-5.078L9.377,7.54H3.565z"/>
	</g>
	<g enable-background="new    ">
		<path d="M21.913,13.331v-9.27h4.515c1.059,0,1.78,0.173,2.164,0.512c0.384,0.345,0.574,0.986,0.574,1.934
			c0,1.146-0.451,1.821-1.352,2.024v0.033c1.049,0.162,1.573,0.899,1.573,2.208c0,0.946-0.2,1.608-0.604,1.988
			c-0.403,0.383-1.108,0.571-2.114,0.571H21.913z M23.655,7.952h2.133c0.692,0,1.131-0.076,1.322-0.23
			c0.19-0.154,0.285-0.51,0.285-1.066c0-0.742-0.417-1.113-1.251-1.113h-2.491v2.41L23.655,7.952L23.655,7.952z M23.655,11.852
			h1.911l0.612-0.015c0.588,0,0.974-0.083,1.16-0.249c0.188-0.168,0.28-0.523,0.28-1.063c0-0.563-0.1-0.914-0.293-1.061
			c-0.194-0.142-0.676-0.215-1.444-0.215h-2.226V11.852z"/>
		<path d="M36.214,11.552H32.25l-0.573,1.779h-1.844l3.058-9.271h2.618l3.103,9.271h-1.811L36.214,11.552z M35.81,10.255
			l-1.591-4.829l-1.559,4.829H35.81z"/>
		<path d="M45.076,10.023h1.751v0.318c0,1.29-0.233,2.125-0.7,2.504c-0.465,0.379-1.498,0.567-3.097,0.567
			c-1.813,0-2.928-0.302-3.345-0.896c-0.419-0.601-0.627-2.199-0.627-4.795c0-1.53,0.283-2.538,0.848-3.018
			c0.564-0.484,1.747-0.723,3.548-0.723c1.31,0,2.185,0.199,2.625,0.594c0.44,0.396,0.658,1.183,0.658,2.361l0.007,0.21h-1.749
			V6.909c0-0.607-0.114-0.996-0.34-1.167c-0.228-0.167-0.744-0.254-1.552-0.254c-1.083,0-1.731,0.137-1.95,0.402
			c-0.217,0.267-0.326,1.059-0.326,2.378c0,1.774,0.098,2.825,0.293,3.151c0.194,0.327,0.826,0.489,1.896,0.489
			c0.865,0,1.428-0.092,1.687-0.271c0.258-0.181,0.387-0.58,0.387-1.195L45.076,10.023z"/>
		<path d="M49.667,4.061v3.775h0.821l3.055-3.775h2.168l-3.707,4.503l4.098,4.768h-2.234l-3.364-4.016h-0.836v4.016h-1.741V4.061
			H49.667z"/>
		<path d="M63.915,5.635v7.694h-1.743V5.635h-2.65V4.061h7.14v1.577h-2.746L63.915,5.635L63.915,5.635z"/>
		<path d="M71.357,3.979c1.67,0,2.744,0.28,3.225,0.838c0.479,0.56,0.722,1.81,0.722,3.754c0,2.123-0.244,3.462-0.724,4.013
			c-0.481,0.555-1.65,0.83-3.504,0.83c-1.668,0-2.747-0.271-3.237-0.818c-0.488-0.545-0.731-1.746-0.731-3.603
			c0-2.21,0.238-3.598,0.719-4.164C68.306,4.262,69.484,3.979,71.357,3.979z M71.226,5.488c-1.172,0-1.857,0.149-2.053,0.455
			c-0.198,0.304-0.298,1.354-0.298,3.151c0,1.331,0.116,2.131,0.348,2.403s0.912,0.407,2.042,0.407c1.083,0,1.731-0.151,1.946-0.457
			c0.216-0.307,0.321-1.235,0.321-2.782c0-1.554-0.101-2.471-0.306-2.753C73.021,5.628,72.354,5.488,71.226,5.488z"/>
		<path d="M83.588,5.635v7.694h-1.744V5.635h-2.651V4.061h7.144v1.577h-2.748L83.588,5.635L83.588,5.635z"/>
		<path d="M91.031,3.979c1.67,0,2.742,0.28,3.224,0.838c0.479,0.56,0.72,1.81,0.72,3.754c0,2.123-0.24,3.462-0.725,4.013
			c-0.48,0.555-1.648,0.83-3.5,0.83c-1.67,0-2.749-0.271-3.238-0.818c-0.486-0.545-0.734-1.746-0.734-3.603
			c0-2.21,0.24-3.598,0.721-4.164C87.979,4.262,89.154,3.979,91.031,3.979z M90.896,5.488c-1.172,0-1.854,0.149-2.053,0.455
			c-0.197,0.304-0.296,1.354-0.296,3.151c0,1.331,0.113,2.131,0.347,2.403c0.23,0.272,0.912,0.407,2.041,0.407
			c1.082,0,1.731-0.151,1.946-0.457c0.216-0.307,0.321-1.235,0.321-2.782c0-1.554-0.104-2.471-0.309-2.753
			C92.693,5.628,92.027,5.488,90.896,5.488z"/>
		<path d="M96.152,13.331v-9.27h3.703h0.457c1.242,0,2.082,0.22,2.514,0.657c0.434,0.437,0.648,1.278,0.648,2.53
			c0,1.24-0.205,2.063-0.619,2.473c-0.41,0.406-1.244,0.61-2.502,0.61l-0.403,0.007h-2.054v2.995h-1.744V13.331z M97.896,8.855
			h1.986c0.787,0,1.291-0.093,1.504-0.275c0.213-0.183,0.319-0.614,0.319-1.301c0-0.785-0.091-1.268-0.265-1.457
			c-0.18-0.188-0.64-0.282-1.385-0.282h-2.16V8.855L97.896,8.855z"/>
	</g>
</g>
</svg>
