<?xml version="1.0" encoding="utf-8"?>
<!-- Generator: Adobe Illustrator 16.0.0, SVG Export Plug-In . SVG Version: 6.00 Build 0)  -->
<!DOCTYPE svg PUBLIC "-//W3C//DTD SVG 1.1//EN" "http://www.w3.org/Graphics/SVG/1.1/DTD/svg11.dtd">
<svg version="1.1" id="Layer_1" xmlns="http://www.w3.org/2000/svg" xmlns:xlink="http://www.w3.org/1999/xlink" x="0px" y="0px"
	 width="153.375px" height="56.5px" viewBox="0 0 153.375 56.5" enable-background="new 0 0 153.375 56.5" xml:space="preserve">
<g>
	<path fill="#FFFFFF" d="M0.5,56V40h126.68v2.58h16.4V0.5h1v42.9h-17.4v7.35h24.7V0.5h1v51.061H127.2V56H0.5z M6.481,54.094
		l3.845-5.634H2.61L6.481,54.094z"/>
	<path d="M152.38,1v50.061V50.25V1 M126.68,40.5v1.58v0.82v1v6.35v1h0.021v0.811V55.5H1v-15H126.68 M6.483,54.979l0.823-1.206
		l2.9-4.249l1.067-1.563H9.38H3.56h-1.9l1.076,1.566l2.92,4.249L6.483,54.979 M153.38,0h-2v50.25h-23.7V43.9h17.4V0h-2v42.08h-15.4
		V39.5H0v17h127.7v-4.439h25.67h0.01V0L153.38,0z M6.48,53.209L3.56,48.96h5.82L6.48,53.209L6.48,53.209z"/>
</g>
<g enable-background="new    ">
	<path d="M21.9,52.33v-9.27h4.53c1.06,0,1.78,0.17,2.16,0.5c0.37,0.359,0.57,1,0.57,1.939c0,1.15-0.45,1.83-1.36,2.029v0.031
		c1.06,0.17,1.6,0.899,1.6,2.199c0,0.95-0.2,1.62-0.62,2c-0.4,0.381-1.1,0.57-2.1,0.57H21.9L21.9,52.33z M23.65,46.95h2.14
		c0.68,0,1.12-0.08,1.3-0.229c0.2-0.15,0.3-0.5,0.3-1.061c0-0.74-0.42-1.12-1.26-1.12h-2.5v2.399L23.65,46.95z M23.65,50.85h2.52
		c0.6,0,0.98-0.1,1.17-0.26c0.2-0.18,0.28-0.529,0.28-1.07c0-0.569-0.1-0.92-0.3-1.069c-0.2-0.14-0.67-0.2-1.44-0.2h-2.23V50.85z
		 M36.2,50.55h-3.95l-0.57,1.78h-1.85l3.06-9.27h2.6l3.1,9.27h-1.8l-0.6-1.78H36.2z M35.8,49.25l-1.58-4.83l-1.56,4.83h3.15H35.8z
		 M45.08,49.02h1.75v0.32c0,1.301-0.24,2.12-0.7,2.5c-0.47,0.381-1.5,0.57-3.1,0.57c-1.8,0-2.93-0.301-3.34-0.9
		c-0.43-0.6-0.64-2.18-0.64-4.779c0-1.53,0.28-2.541,0.85-3.021c0.57-0.479,1.76-0.729,3.55-0.729c1.3,0,2.2,0.199,2.63,0.6
		c0.44,0.4,0.66,1.18,0.66,2.359v0.201H45v-0.23c0-0.6-0.12-1-0.34-1.16c-0.23-0.17-0.75-0.26-1.56-0.26c-1.08,0-1.73,0.14-1.94,0.4
		c-0.22,0.27-0.33,1.06-0.33,2.379c0,1.78,0.1,2.83,0.3,3.15c0.2,0.34,0.82,0.5,1.9,0.5c0.85,0,1.42-0.1,1.67-0.27
		c0.26-0.18,0.4-0.58,0.4-1.2l-0.02-0.4V49.02z M49.67,43.061v3.779h0.82l3.04-3.779h2.17l-3.7,4.5l4.1,4.77h-2.23l-3.37-4h-0.83v4
		h-1.75v-9.27H49.67z M63.91,44.641v7.699h-1.73v-7.699h-2.65v-1.58h7.14v1.58h-2.74H63.91z M71.36,42.98
		c1.67,0,2.74,0.279,3.22,0.84c0.48,0.56,0.72,1.8,0.72,3.75c0,2.119-0.24,3.459-0.72,4c-0.48,0.57-1.65,0.84-3.5,0.84
		c-1.67,0-2.75-0.26-3.24-0.801c-0.5-0.549-0.73-1.75-0.73-3.6c0-2.22,0.25-3.6,0.73-4.17s1.65-0.85,3.53-0.85L71.36,42.98z
		 M71.22,44.48c-1.17,0-1.85,0.16-2.05,0.459c-0.2,0.301-0.3,1.351-0.3,3.15c0,1.32,0.12,2.131,0.35,2.4s0.9,0.4,2.04,0.4
		c1.1,0,1.73-0.15,1.95-0.451c0.22-0.299,0.33-1.239,0.33-2.799c0-1.541-0.1-2.461-0.3-2.74c-0.2-0.271-0.88-0.4-2-0.4L71.22,44.48z
		 M83.6,44.641v7.699h-1.76v-7.699H79.2v-1.58h7.14v1.58H83.6z M91.029,42.98c1.671,0,2.74,0.279,3.221,0.84
		c0.48,0.56,0.721,1.8,0.721,3.75c0,2.119-0.24,3.459-0.721,4c-0.48,0.57-1.65,0.84-3.5,0.84c-1.67,0-2.75-0.26-3.24-0.801
		c-0.48-0.549-0.72-1.75-0.72-3.6c0-2.22,0.239-3.6,0.72-4.17s1.65-0.85,3.53-0.85L91.029,42.98z M90.9,44.48
		c-1.18,0-1.86,0.16-2.061,0.459c-0.199,0.301-0.3,1.351-0.3,3.15c0,1.32,0.12,2.131,0.351,2.4c0.219,0.27,0.899,0.4,2.029,0.4
		c1.1,0,1.73-0.15,1.95-0.451c0.22-0.299,0.319-1.239,0.319-2.799c0-1.541-0.1-2.461-0.299-2.74c-0.201-0.271-0.871-0.4-2-0.4
		L90.9,44.48z M96.15,43.061h4.16c1.25,0,2.1,0.219,2.52,0.66c0.42,0.439,0.65,1.279,0.65,2.529c0,1.24-0.201,2.061-0.621,2.471
		c-0.399,0.399-1.239,0.6-2.5,0.6l-0.399,0.02H97.9v3h-1.75 M97.9,47.84h1.979c0.8,0,1.3-0.08,1.5-0.26
		c0.22-0.18,0.32-0.62,0.32-1.301c0-0.779-0.101-1.27-0.271-1.459c-0.17-0.2-0.64-0.28-1.38-0.28H97.9V47.84z"/>
</g>
</svg>
