<svg xmlns="http://www.w3.org/2000/svg" width="39.426" height="45.489"><path fill="none" stroke="#fff" stroke-miterlimit="10" d="M13.23 34.12L6.66 22.75l6.57-11.38h13.13l6.56 11.38-6.56 11.37zM32.86 22.75L26.3 11.37 32.86 0H46l6.56 11.37L46 22.75zM32.86 45.5L26.3 34.1l6.56-11.38H46l6.56 11.38L46 45.5zM13.23 56.86L6.66 45.5l6.57-11.38h13.13l6.56 11.37-6.56 11.36zM-6.3 45.5l-6.56-11.38 6.56-11.38H6.85l6.56 11.38L6.83 45.5zM-6.57 22.75l-6.56-11.38L-6.57 0H6.57l6.56 11.37-6.57 11.38zM13.23 11.37L6.66 0l6.57-11.37h13.13L32.92 0l-6.56 11.37z" opacity=".06"/></svg>