<?xml version="1.0" encoding="utf-8"?>
<!-- Generator: Adobe Illustrator 16.0.0, SVG Export Plug-In . SVG Version: 6.00 Build 0)  -->
<!DOCTYPE svg PUBLIC "-//W3C//DTD SVG 1.1//EN" "http://www.w3.org/Graphics/SVG/1.1/DTD/svg11.dtd">
<svg version="1.1" id="Layer_1" xmlns="http://www.w3.org/2000/svg" xmlns:xlink="http://www.w3.org/1999/xlink" x="0px" y="0px"
	 width="39.426px" height="45.489px" viewBox="0 0 39.426 45.489" enable-background="new 0 0 39.426 45.489" xml:space="preserve">
<polygon opacity="0.06" fill="none" stroke="#FFFFFF" stroke-miterlimit="10" points="13.228,34.117 6.662,22.745 13.228,11.373 
	26.36,11.373 32.924,22.745 26.358,34.117 "/>
<polygon opacity="0.06" fill="none" stroke="#FFFFFF" stroke-miterlimit="10" points="32.86,22.745 26.295,11.373 32.86,0 45.993,0 
	52.557,11.373 45.991,22.745 "/>
<polygon opacity="0.06" fill="none" stroke="#FFFFFF" stroke-miterlimit="10" points="32.86,45.489 26.295,34.116 32.86,22.744 
	45.993,22.744 52.557,34.116 45.991,45.489 "/>
<polygon opacity="0.06" fill="none" stroke="#FFFFFF" stroke-miterlimit="10" points="13.227,56.861 6.663,45.488 13.227,34.116 
	26.36,34.116 32.924,45.488 26.358,56.861 "/>
<polygon opacity="0.06" fill="none" stroke="#FFFFFF" stroke-miterlimit="10" points="-6.295,45.489 -12.86,34.116 -6.295,22.744 
	6.837,22.744 13.402,34.116 6.835,45.489 "/>
<polygon opacity="0.06" fill="none" stroke="#FFFFFF" stroke-miterlimit="10" points="-6.566,22.745 -13.131,11.372 -6.566,0 
	6.566,0 13.131,11.372 6.564,22.745 "/>
<polygon opacity="0.06" fill="none" stroke="#FFFFFF" stroke-miterlimit="10" points="13.227,11.373 6.663,0 13.227,-11.372 
	26.36,-11.372 32.924,0 26.358,11.373 "/>
</svg>
