<svg xmlns="http://www.w3.org/2000/svg" width="153.375" height="56.5"><path fill="#fff" d="M.5 56V40h126.7v2.58h16.38V.5h1v42.9h-17.4v7.35h24.7V.5h1v51.06h-25.7V56H.5zm5.97-2.34l3.43-5.2H3.04l3.43 5.2z"/><path d="M152.38 1v50.05V1m-25.7 39.5v15H1v-15h125.7M6.46 54.57l.83-1.27 2.5-3.8 1.03-1.54H2.1l1.03 1.55 2.5 3.8.84 1.27M153.37 0h-2v50.25H127.7V43.9H145.07V0h-2v42.08h-15.4V39.5H0v17h127.7v-4.44h25.67V0zM6.47 52.75l-2.5-3.8h5l-2.5 3.8z"/><g enable-background="new"><path d="M21.9 52.33v-9.27h4.53c1.06 0 1.78.17 2.16.5.37.36.57 1 .57 1.94 0 1.15-.45 1.83-1.36 2.03v.03c1.06.17 1.6.9 1.6 2.2 0 .95-.2 1.62-.62 2-.4.38-1.1.57-2.1.57H21.9zm1.75-5.38h2.14c.68 0 1.12-.08 1.3-.23.2-.15.3-.5.3-1.06 0-.74-.42-1.12-1.26-1.12h-2.5v2.4zm0 3.9h2.52c.6 0 .98-.1 1.17-.26.2-.18.28-.53.28-1.07 0-.57-.1-.92-.3-1.07-.2-.14-.67-.2-1.44-.2h-2.23v2.6zM36.2 50.55h-3.95l-.57 1.78h-1.85l3.06-9.27h2.6l3.1 9.27h-1.8l-.6-1.78zm-.4-1.3l-1.58-4.83-1.56 4.83h3.15zM45.08 49.02h1.75v.32c0 1.3-.24 2.13-.7 2.5-.47.38-1.5.57-3.1.57-1.8 0-2.93-.3-3.34-.9-.43-.6-.64-2.18-.64-4.78 0-1.53.28-2.54.85-3.02s1.76-.73 3.55-.73c1.3 0 2.2.2 2.63.6.44.4.66 1.18.66 2.36v.2H45v-.23c0-.6-.12-1-.34-1.16-.23-.17-.75-.26-1.56-.26-1.08 0-1.73.14-1.94.4-.22.27-.33 1.06-.33 2.38 0 1.77.1 2.83.3 3.15.2.34.82.5 1.9.5.85 0 1.42-.1 1.67-.27.26-.18.4-.58.4-1.2l-.02-.4zM49.67 43.06v3.78h.82l3.04-3.78h2.17l-3.7 4.5 4.1 4.77h-2.23l-3.37-4h-.83v4h-1.75v-9.27h1.75zM63.91 44.64v7.7h-1.73v-7.7h-2.65v-1.58h7.14v1.58h-2.74zM71.36 42.98c1.67 0 2.74.28 3.22.84.48.56.72 1.8.72 3.75 0 2.12-.24 3.46-.72 4-.48.57-1.65.84-3.5.84-1.67 0-2.75-.26-3.24-.8-.5-.55-.73-1.75-.73-3.6 0-2.22.25-3.6.73-4.17.48-.57 1.65-.85 3.53-.85zm-.14 1.5c-1.17 0-1.85.16-2.05.46-.2.3-.3 1.35-.3 3.15 0 1.32.12 2.13.35 2.4.23.27.9.4 2.04.4 1.1 0 1.73-.15 1.95-.45.22-.3.33-1.24.33-2.8 0-1.54-.1-2.46-.3-2.74-.2-.27-.88-.4-2-.4zM83.6 44.64v7.7h-1.76v-7.7H79.2v-1.58h7.14v1.58H83.6zM91.03 42.98c1.67 0 2.74.28 3.22.84.48.56.72 1.8.72 3.75 0 2.12-.24 3.46-.72 4-.48.57-1.65.84-3.5.84-1.67 0-2.75-.26-3.24-.8-.48-.55-.72-1.75-.72-3.6 0-2.22.24-3.6.72-4.17.48-.57 1.65-.85 3.53-.85zm-.13 1.5c-1.18 0-1.86.16-2.06.46-.2.3-.3 1.35-.3 3.15 0 1.32.12 2.13.35 2.4.22.27.9.4 2.03.4 1.1 0 1.73-.15 1.95-.45.22-.3.32-1.24.32-2.8 0-1.54-.1-2.46-.3-2.74s-.87-.4-2-.4zM96.15 43.06h4.16c1.25 0 2.1.22 2.52.66s.65 1.28.65 2.53c0 1.24-.2 2.06-.62 2.47-.4.4-1.24.6-2.5.6l-.4.02H97.9v3h-1.75m1.75-4.5h1.98c.8 0 1.3-.08 1.5-.26.22-.18.32-.62.32-1.3 0-.78-.1-1.27-.26-1.46-.18-.2-.64-.28-1.4-.28H97.9v3.3z"/></g></svg>