<?xml version="1.0" encoding="utf-8"?>
<!-- Generator: Adobe Illustrator 16.0.0, SVG Export Plug-In . SVG Version: 6.00 Build 0)  -->
<!DOCTYPE svg PUBLIC "-//W3C//DTD SVG 1.1//EN" "http://www.w3.org/Graphics/SVG/1.1/DTD/svg11.dtd">
<svg version="1.1" id="Layer_1" xmlns="http://www.w3.org/2000/svg" xmlns:xlink="http://www.w3.org/1999/xlink" x="0px" y="0px"
	 width="161px" height="17px" viewBox="-33 -3.5 161 17" enable-background="new -33 -3.5 161 17" xml:space="preserve">
<g>
	<g>
		<path fill="#FFFFFF" stroke="#000000" stroke-miterlimit="10" d="M94.691,9.114V2.745h13.207v-1.81H94.691V-3.5H-33v17H94.691
			v-2.58H128V9.114H94.691z M-29.435,4.04l2.906-5.078l2.906,5.078H-29.435z"/>
	</g>
	<g enable-background="new    ">
		<path d="M-11.087,9.831V0.561h4.515c1.059,0,1.78,0.173,2.164,0.512c0.384,0.345,0.574,0.986,0.574,1.934
			c0,1.146-0.451,1.821-1.352,2.024v0.033c1.049,0.162,1.573,0.899,1.573,2.208c0,0.946-0.2,1.608-0.604,1.988
			C-4.62,9.642-5.325,9.831-6.331,9.831H-11.087z M-9.345,4.452h2.133c0.692,0,1.131-0.076,1.322-0.23
			c0.19-0.154,0.285-0.51,0.285-1.066c0-0.742-0.417-1.113-1.251-1.113h-2.491v2.41H-9.345z M-9.345,8.351h1.911l0.612-0.014
			c0.588,0,0.974-0.083,1.16-0.249c0.188-0.168,0.28-0.523,0.28-1.063c0-0.562-0.1-0.913-0.293-1.06
			C-5.869,5.823-6.351,5.75-7.119,5.75h-2.226V8.351z"/>
		<path d="M3.214,8.052H-0.75l-0.573,1.779h-1.844l3.058-9.271h2.618l3.103,9.271H3.801L3.214,8.052z M2.81,6.755L1.219,1.926
			L-0.34,6.755H2.81z"/>
		<path d="M12.076,6.524h1.751v0.318c0,1.29-0.233,2.125-0.7,2.504c-0.465,0.378-1.498,0.567-3.097,0.567
			c-1.813,0-2.928-0.301-3.345-0.896c-0.419-0.6-0.627-2.198-0.627-4.795c0-1.53,0.283-2.538,0.848-3.018
			C7.47,0.72,8.653,0.481,10.454,0.481c1.31,0,2.185,0.199,2.625,0.594c0.44,0.396,0.658,1.183,0.658,2.361l0.007,0.21h-1.749V3.409
			c0-0.607-0.114-0.996-0.34-1.167c-0.228-0.167-0.744-0.254-1.552-0.254c-1.083,0-1.731,0.137-1.95,0.402
			C7.936,2.657,7.827,3.449,7.827,4.768c0,1.774,0.098,2.825,0.293,3.151c0.194,0.327,0.826,0.489,1.896,0.489
			c0.865,0,1.428-0.091,1.687-0.271c0.258-0.181,0.387-0.581,0.387-1.195L12.076,6.524z"/>
		<path d="M16.667,0.561v3.775h0.821l3.055-3.775h2.168l-3.707,4.503l4.098,4.768h-2.234l-3.364-4.015h-0.836v4.015h-1.741V0.561
			H16.667z"/>
		<path d="M30.915,2.135v7.694h-1.743V2.135h-2.65V0.561h7.14v1.577h-2.746V2.135z"/>
		<path d="M38.357,0.479c1.67,0,2.744,0.28,3.225,0.838c0.479,0.56,0.722,1.81,0.722,3.754c0,2.123-0.244,3.462-0.724,4.013
			c-0.481,0.555-1.65,0.83-3.504,0.83c-1.668,0-2.747-0.272-3.237-0.818c-0.488-0.545-0.731-1.746-0.731-3.603
			c0-2.21,0.238-3.598,0.719-4.164C35.306,0.762,36.484,0.479,38.357,0.479z M38.226,1.988c-1.172,0-1.857,0.149-2.053,0.455
			c-0.198,0.304-0.298,1.354-0.298,3.151c0,1.331,0.116,2.131,0.348,2.403s0.912,0.408,2.042,0.408c1.083,0,1.731-0.152,1.946-0.458
			c0.216-0.306,0.321-1.235,0.321-2.782c0-1.554-0.101-2.471-0.306-2.753C40.021,2.128,39.354,1.988,38.226,1.988z"/>
		<path d="M50.588,2.135v7.694h-1.744V2.135h-2.651V0.561h7.144v1.577h-2.748V2.135z"/>
		<path d="M58.031,0.479c1.67,0,2.743,0.28,3.224,0.838c0.479,0.56,0.72,1.81,0.72,3.754c0,2.123-0.241,3.462-0.725,4.013
			c-0.48,0.555-1.648,0.83-3.5,0.83c-1.67,0-2.749-0.272-3.239-0.818c-0.486-0.545-0.733-1.746-0.733-3.603
			c0-2.21,0.24-3.598,0.72-4.164C54.978,0.762,56.155,0.479,58.031,0.479z M57.896,1.988c-1.172,0-1.854,0.149-2.052,0.455
			c-0.198,0.304-0.296,1.354-0.296,3.151c0,1.331,0.113,2.131,0.346,2.403c0.231,0.272,0.912,0.408,2.042,0.408
			c1.082,0,1.731-0.152,1.946-0.458s0.321-1.235,0.321-2.782c0-1.554-0.103-2.471-0.308-2.753
			C59.694,2.128,59.027,1.988,57.896,1.988z"/>
		<path d="M63.153,9.831V0.561h3.702h0.458c1.241,0,2.081,0.22,2.513,0.657c0.434,0.437,0.648,1.278,0.648,2.53
			c0,1.24-0.205,2.063-0.618,2.473c-0.411,0.406-1.245,0.61-2.503,0.61L66.95,6.838h-2.053v2.995h-1.744V9.831z M64.897,5.355h1.986
			c0.787,0,1.291-0.093,1.504-0.275c0.212-0.183,0.319-0.614,0.319-1.301c0-0.785-0.091-1.268-0.265-1.457
			c-0.179-0.188-0.639-0.282-1.384-0.282h-2.161V5.355L64.897,5.355z"/>
	</g>
</g>
</svg>
