<?xml version="1.0" encoding="utf-8"?>
<!-- Generator: Adobe Illustrator 16.0.0, SVG Export Plug-In . SVG Version: 6.00 Build 0)  -->
<!DOCTYPE svg PUBLIC "-//W3C//DTD SVG 1.1//EN" "http://www.w3.org/Graphics/SVG/1.1/DTD/svg11.dtd">
<svg version="1.1" id="Layer_1" xmlns="http://www.w3.org/2000/svg" xmlns:xlink="http://www.w3.org/1999/xlink" x="0px" y="0px"
	 width="161px" height="17px" viewBox="0 0 161 17" enable-background="new 0 0 161 17" xml:space="preserve">
<g>
	<g>
		<path d="M127.689,12.614V6.247H161v-1.81h-33.311V0H0v17h127.689v-2.578H161v-1.808H127.689z M3.565,7.541L6.47,2.462l2.906,5.079
			H3.565z"/>
	</g>
	<g enable-background="new    ">
		<path fill="#FFFFFF" d="M21.911,13.331v-9.27h4.516c1.06,0,1.78,0.171,2.164,0.512c0.384,0.343,0.575,0.986,0.575,1.932
			c0,1.146-0.45,1.821-1.352,2.024v0.033c1.049,0.164,1.574,0.9,1.574,2.209c0,0.944-0.202,1.607-0.605,1.987
			c-0.404,0.382-1.108,0.571-2.114,0.571L21.911,13.331L21.911,13.331z M23.654,7.952h2.134c0.691,0,1.132-0.078,1.322-0.229
			c0.19-0.156,0.286-0.511,0.286-1.068c0-0.741-0.417-1.113-1.252-1.113h-2.49V7.952z M23.654,11.85h1.911l0.612-0.013
			c0.589,0,0.975-0.083,1.161-0.251c0.187-0.167,0.279-0.521,0.279-1.061c0-0.562-0.097-0.914-0.292-1.06
			c-0.196-0.146-0.677-0.217-1.444-0.217h-2.228L23.654,11.85L23.654,11.85z"/>
		<path fill="#FFFFFF" d="M36.213,11.551h-3.965l-0.571,1.78h-1.844l3.055-9.271h2.619l3.102,9.271h-1.811L36.213,11.551z
			 M35.81,10.254l-1.589-4.829l-1.561,4.829H35.81z"/>
		<path fill="#FFFFFF" d="M45.076,10.023h1.751v0.318c0,1.29-0.233,2.125-0.7,2.502c-0.467,0.379-1.499,0.568-3.096,0.568
			c-1.813,0-2.928-0.299-3.345-0.896c-0.418-0.599-0.627-2.195-0.627-4.795c0-1.531,0.283-2.538,0.849-3.02
			c0.565-0.482,1.748-0.723,3.547-0.723c1.31,0,2.185,0.198,2.624,0.593c0.44,0.397,0.66,1.184,0.66,2.361l0.007,0.211h-1.75V6.906
			c0-0.607-0.114-0.995-0.34-1.166c-0.227-0.169-0.744-0.254-1.552-0.254c-1.08,0-1.731,0.134-1.948,0.401
			c-0.218,0.267-0.326,1.058-0.326,2.376c0,1.774,0.098,2.825,0.294,3.151c0.193,0.326,0.825,0.489,1.894,0.489
			c0.866,0,1.428-0.092,1.686-0.272c0.258-0.18,0.388-0.58,0.388-1.194L45.076,10.023z"/>
		<path fill="#FFFFFF" d="M49.667,4.061v3.776h0.82l3.057-3.776h2.166l-3.708,4.501l4.099,4.769h-2.234l-3.364-4.015h-0.835v4.015
			h-1.743v-9.27H49.667z"/>
		<path fill="#FFFFFF" d="M63.915,5.636v7.695h-1.743V5.636H59.52V4.061h7.142v1.576h-2.746V5.636z"/>
		<path fill="#FFFFFF" d="M71.357,3.979c1.67,0,2.744,0.279,3.225,0.838c0.48,0.56,0.721,1.81,0.721,3.751
			c0,2.123-0.242,3.461-0.724,4.015c-0.481,0.553-1.649,0.829-3.503,0.829c-1.669,0-2.748-0.271-3.238-0.818
			c-0.488-0.546-0.732-1.746-0.732-3.604c0-2.209,0.24-3.597,0.72-4.163C68.307,4.262,69.482,3.979,71.357,3.979z M71.225,5.487
			c-1.172,0-1.854,0.152-2.054,0.455c-0.198,0.304-0.297,1.354-0.297,3.152c0,1.33,0.114,2.133,0.349,2.402
			c0.229,0.273,0.911,0.408,2.041,0.408c1.082,0,1.73-0.152,1.945-0.457c0.216-0.307,0.322-1.234,0.322-2.782
			c0-1.554-0.102-2.471-0.307-2.754C73.021,5.629,72.354,5.487,71.225,5.487z"/>
		<path fill="#FFFFFF" d="M83.588,5.636v7.695h-1.744V5.636h-2.652V4.061h7.144v1.576h-2.747V5.636z"/>
		<path fill="#FFFFFF" d="M91.029,3.979c1.671,0,2.744,0.279,3.225,0.838c0.48,0.56,0.721,1.81,0.721,3.751
			c0,2.123-0.242,3.461-0.724,4.015c-0.481,0.553-1.649,0.829-3.502,0.829c-1.67,0-2.749-0.271-3.237-0.818
			c-0.49-0.546-0.734-1.746-0.734-3.604c0-2.209,0.24-3.597,0.721-4.163C87.977,4.262,89.154,3.979,91.029,3.979z M90.896,5.487
			c-1.172,0-1.855,0.152-2.054,0.455c-0.198,0.304-0.296,1.354-0.296,3.152c0,1.33,0.114,2.133,0.346,2.402
			c0.232,0.273,0.912,0.408,2.043,0.408c1.082,0,1.729-0.152,1.946-0.457c0.216-0.307,0.322-1.234,0.322-2.782
			c0-1.554-0.103-2.471-0.306-2.754C92.693,5.629,92.027,5.487,90.896,5.487z"/>
		<path fill="#FFFFFF" d="M96.152,13.331v-9.27h3.701h0.457c1.244,0,2.082,0.218,2.515,0.656c0.433,0.437,0.649,1.28,0.649,2.529
			c0,1.24-0.205,2.064-0.619,2.473c-0.412,0.406-1.246,0.611-2.502,0.611l-0.404,0.006h-2.055v2.995H96.152z M97.896,8.855h1.984
			c0.79,0,1.291-0.092,1.506-0.275c0.211-0.184,0.318-0.616,0.318-1.301c0-0.783-0.089-1.269-0.266-1.456
			c-0.178-0.188-0.64-0.283-1.383-0.283h-2.162v3.315H97.896z"/>
	</g>
</g>
</svg>
