<?xml version="1.0" encoding="utf-8"?>
<!-- Generator: Adobe Illustrator 16.0.0, SVG Export Plug-In . SVG Version: 6.00 Build 0)  -->
<!DOCTYPE svg PUBLIC "-//W3C//DTD SVG 1.1//EN" "http://www.w3.org/Graphics/SVG/1.1/DTD/svg11.dtd">
<svg version="1.1" id="Layer_1" xmlns="http://www.w3.org/2000/svg" xmlns:xlink="http://www.w3.org/1999/xlink" x="0px" y="0px"
	 width="161px" height="17px" viewBox="24.625 2.5 161 17" enable-background="new 24.625 2.5 161 17" xml:space="preserve">
<g>
	<g>
		<path d="M152.314,15.114V8.747h13.208v-1.81h-13.208V2.5H24.625v17h127.689v-2.578h33.311v-1.808H152.314z M28.19,10.041
			l2.905-5.079l2.906,5.079H28.19z"/>
	</g>
	<g enable-background="new    ">
		<path fill="#FFFFFF" d="M46.536,15.831V6.561h4.516c1.06,0,1.78,0.171,2.164,0.512c0.384,0.343,0.575,0.986,0.575,1.932
			c0,1.146-0.45,1.821-1.352,2.024v0.034c1.049,0.164,1.574,0.9,1.574,2.208c0,0.945-0.202,1.608-0.605,1.988
			c-0.404,0.381-1.108,0.571-2.114,0.571H46.536z M48.279,10.452h2.134c0.691,0,1.132-0.078,1.322-0.23
			c0.19-0.155,0.286-0.51,0.286-1.067c0-0.742-0.417-1.114-1.252-1.114h-2.49V10.452z M48.279,14.35h1.911l0.612-0.013
			c0.589,0,0.975-0.083,1.161-0.251c0.187-0.167,0.279-0.521,0.279-1.061c0-0.561-0.097-0.913-0.292-1.059
			c-0.196-0.146-0.677-0.217-1.444-0.217h-2.228V14.35z"/>
		<path fill="#FFFFFF" d="M60.838,14.051h-3.965l-0.571,1.78h-1.844l3.055-9.271h2.619l3.102,9.271h-1.811L60.838,14.051z
			 M60.435,12.754l-1.589-4.829l-1.561,4.829H60.435z"/>
		<path fill="#FFFFFF" d="M69.701,12.524h1.751v0.318c0,1.29-0.233,2.125-0.7,2.502c-0.467,0.378-1.499,0.568-3.096,0.568
			c-1.813,0-2.928-0.299-3.345-0.896c-0.418-0.599-0.627-2.196-0.627-4.795c0-1.531,0.283-2.538,0.849-3.02
			c0.565-0.482,1.748-0.723,3.547-0.723c1.31,0,2.185,0.198,2.624,0.593c0.44,0.397,0.66,1.184,0.66,2.361l0.007,0.21h-1.75V9.406
			c0-0.607-0.114-0.995-0.34-1.166c-0.227-0.169-0.744-0.254-1.552-0.254c-1.08,0-1.731,0.134-1.948,0.401
			c-0.218,0.267-0.326,1.059-0.326,2.376c0,1.775,0.098,2.826,0.294,3.152c0.193,0.326,0.825,0.489,1.894,0.489
			c0.866,0,1.428-0.092,1.686-0.272s0.388-0.58,0.388-1.195L69.701,12.524z"/>
		<path fill="#FFFFFF" d="M74.292,6.561v3.776h0.82l3.057-3.776h2.166l-3.708,4.502l4.099,4.768h-2.234l-3.364-4.014h-0.835v4.014
			h-1.743V6.561H74.292z"/>
		<path fill="#FFFFFF" d="M88.54,8.136v7.695h-1.743V8.136h-2.652V6.561h7.141v1.576H88.54z"/>
		<path fill="#FFFFFF" d="M95.983,6.479c1.669,0,2.744,0.279,3.224,0.838c0.48,0.56,0.721,1.81,0.721,3.752
			c0,2.123-0.242,3.461-0.724,4.014c-0.482,0.553-1.65,0.829-3.503,0.829c-1.669,0-2.748-0.272-3.238-0.818
			c-0.488-0.546-0.733-1.747-0.733-3.604c0-2.209,0.24-3.597,0.72-4.163C92.931,6.762,94.108,6.479,95.983,6.479z M95.85,7.987
			c-1.172,0-1.855,0.152-2.054,0.455c-0.198,0.304-0.297,1.354-0.297,3.152c0,1.33,0.115,2.132,0.349,2.402
			c0.229,0.273,0.911,0.409,2.041,0.409c1.082,0,1.73-0.153,1.945-0.458c0.216-0.307,0.322-1.234,0.322-2.782
			c0-1.554-0.101-2.471-0.306-2.754C97.646,8.129,96.979,7.987,95.85,7.987z"/>
		<path fill="#FFFFFF" d="M108.213,8.136v7.695h-1.744V8.136h-2.652V6.561h7.143v1.576H108.213z"/>
		<path fill="#FFFFFF" d="M115.655,6.479c1.67,0,2.744,0.279,3.224,0.838c0.48,0.56,0.721,1.81,0.721,3.752
			c0,2.123-0.242,3.461-0.724,4.014s-1.65,0.829-3.502,0.829c-1.67,0-2.749-0.272-3.238-0.818s-0.734-1.747-0.734-3.604
			c0-2.209,0.24-3.597,0.721-4.163C112.602,6.762,113.78,6.479,115.655,6.479z M115.521,7.987c-1.172,0-1.855,0.152-2.053,0.455
			c-0.198,0.304-0.296,1.354-0.296,3.152c0,1.33,0.114,2.132,0.346,2.402c0.232,0.273,0.912,0.409,2.043,0.409
			c1.082,0,1.729-0.153,1.946-0.458c0.215-0.307,0.322-1.234,0.322-2.782c0-1.554-0.103-2.471-0.306-2.754
			C117.318,8.129,116.652,7.987,115.521,7.987z"/>
		<path fill="#FFFFFF" d="M120.777,15.831V6.561h3.702h0.457c1.243,0,2.081,0.218,2.514,0.656c0.433,0.437,0.649,1.28,0.649,2.529
			c0,1.241-0.205,2.065-0.619,2.473c-0.412,0.406-1.246,0.611-2.502,0.611l-0.404,0.006h-2.054v2.995H120.777z M122.521,11.355
			h1.985c0.79,0,1.291-0.091,1.505-0.275c0.212-0.183,0.319-0.616,0.319-1.3c0-0.784-0.089-1.269-0.265-1.457
			c-0.179-0.188-0.64-0.283-1.384-0.283h-2.161V11.355z"/>
	</g>
</g>
</svg>
