<?xml version="1.0" encoding="utf-8"?>
<!-- Generator: Adobe Illustrator 16.0.0, SVG Export Plug-In . SVG Version: 6.00 Build 0)  -->
<!DOCTYPE svg PUBLIC "-//W3C//DTD SVG 1.1//EN" "http://www.w3.org/Graphics/SVG/1.1/DTD/svg11.dtd">
<svg version="1.1" id="Layer_1" xmlns="http://www.w3.org/2000/svg" xmlns:xlink="http://www.w3.org/1999/xlink" x="0px" y="0px"
	 width="175px" height="22px" viewBox="0 0 175 22" enable-background="new 0 0 175 22" xml:space="preserve">
<g>
	<g>
		<path fill="#FFFFFF" d="M0.5,21.5v-21h165.749v5.741h6.224v1.342h-6.224v9.241h8.251v1.34h-8.251V21.5H0.5z M3.032,16.043h3.084
			L6.115,6.411H3.032V16.043z"/>
		<path d="M165.749,1v4.741v1h1h5.224v0.342h-5.224h-1v1v8.241v1h1H174v0.34h-7.251h-1v1V21H1V1H165.749 M2.532,16.543h1h2.084h1v-1
			L6.615,6.911v-1h-1H3.532h-1v1v8.632V16.543 M166.749,0H0v22h166.749v-3.336H175v-2.34h-8.251V8.083h6.224V5.741h-6.224V0
			L166.749,0z M3.532,15.543V6.911h2.083l0.001,8.632H3.532L3.532,15.543z"/>
	</g>
	<path d="M42.206,16.463V3.982h6.08c1.425,0,2.396,0.23,2.913,0.69c0.516,0.46,0.774,1.327,0.774,2.601
		c0,1.542-0.607,2.451-1.821,2.725v0.045c1.414,0.22,2.12,1.21,2.12,2.973c0,1.273-0.272,2.166-0.815,2.68
		c-0.544,0.513-1.492,0.769-2.845,0.769L42.206,16.463L42.206,16.463z M44.552,9.222h2.873c0.93,0,1.523-0.104,1.78-0.311
		c0.257-0.208,0.385-0.686,0.385-1.436c0-1-0.562-1.499-1.685-1.499h-3.353V9.222z M44.552,14.469h2.573l0.824-0.018
		c0.792,0,1.313-0.113,1.563-0.338c0.25-0.228,0.376-0.701,0.376-1.428c0-0.756-0.132-1.23-0.395-1.427
		c-0.262-0.195-0.911-0.292-1.943-0.292h-2.999L44.552,14.469L44.552,14.469z"/>
	<path d="M56.321,3.982v12.48h-2.347V3.982H56.321z"/>
	<path d="M63.65,3.873c2.247,0,3.693,0.376,4.34,1.129c0.646,0.753,0.969,2.437,0.969,5.052c0,2.858-0.325,4.659-0.974,5.403
		s-2.221,1.115-4.715,1.115c-2.247,0-3.7-0.367-4.358-1.102c-0.659-0.734-0.987-2.354-0.987-4.852c0-2.975,0.323-4.843,0.969-5.605
		C59.541,4.254,61.126,3.873,63.65,3.873z M63.469,5.903c-1.577,0-2.498,0.204-2.764,0.612c-0.265,0.409-0.398,1.823-0.398,4.243
		c0,1.791,0.156,2.871,0.467,3.236s1.228,0.549,2.75,0.549c1.456,0,2.328-0.206,2.618-0.617c0.29-0.412,0.435-1.66,0.435-3.745
		c0-2.09-0.137-3.326-0.412-3.707C65.889,6.093,64.991,5.903,63.469,5.903z"/>
	<path d="M75.41,9.825h5.445l0.036,2.478c0,1.805-0.337,2.967-1.01,3.488c-0.673,0.521-2.176,0.781-4.507,0.781
		c-2.138,0-3.554-0.348-4.249-1.043c-0.694-0.694-1.042-2.111-1.042-4.25c0-2.731,0.139-4.456,0.417-5.175
		c0.344-0.878,0.867-1.469,1.567-1.774c0.701-0.305,1.89-0.457,3.57-0.457c2.198,0,3.618,0.236,4.258,0.708s0.96,1.519,0.96,3.14
		h-2.374c-0.042-0.816-0.219-1.324-0.529-1.522C77.64,6.001,76.86,5.902,75.61,5.902c-1.359,0-2.221,0.17-2.586,0.512
		c-0.366,0.342-0.548,1.143-0.548,2.405l-0.009,1.252l0.019,1.6c0,1.237,0.181,2.024,0.543,2.363
		c0.362,0.338,1.202,0.508,2.519,0.508c1.281,0,2.094-0.144,2.441-0.431c0.348-0.286,0.521-0.963,0.521-2.029l0.009-0.512H75.41
		V9.825z"/>
	<path d="M82.54,16.463V3.982h6.099c1.516,0,2.562,0.265,3.133,0.796c0.574,0.53,0.86,1.49,0.86,2.88
		c0,1.262-0.143,2.125-0.43,2.587c-0.287,0.463-0.875,0.783-1.763,0.96v0.082c1.371,0.085,2.058,0.895,2.058,2.423v2.752h-2.349
		v-2.276c0-1.285-0.627-1.93-1.883-1.93h-3.379v4.206L82.54,16.463L82.54,16.463z M84.886,10.264h3.371
		c0.804,0,1.336-0.145,1.599-0.435c0.265-0.289,0.396-0.87,0.396-1.741c0-0.89-0.113-1.464-0.341-1.724
		c-0.228-0.259-0.724-0.388-1.49-0.388h-3.533L84.886,10.264L84.886,10.264z"/>
	<path d="M101.98,14.066h-5.336l-0.771,2.396h-2.481l4.112-12.48h3.522l4.178,12.48h-2.438L101.98,14.066z M101.438,12.32
		l-2.139-6.5l-2.102,6.5H101.438z"/>
	<path d="M106.275,16.463V3.982h4.981h0.616c1.673,0,2.802,0.294,3.384,0.882c0.583,0.588,0.875,1.724,0.875,3.406
		c0,1.67-0.276,2.78-0.834,3.328c-0.556,0.549-1.68,0.823-3.368,0.823l-0.546,0.009h-2.764v4.032L106.275,16.463L106.275,16.463z
		 M108.622,10.438h2.674c1.063,0,1.737-0.124,2.024-0.37c0.285-0.247,0.431-0.831,0.431-1.751c0-1.054-0.119-1.708-0.356-1.961
		c-0.24-0.252-0.859-0.379-1.862-0.379h-2.908L108.622,10.438L108.622,10.438z"/>
	<path d="M128.12,3.982v12.48h-2.349v-5.395h-5.797v5.395h-2.349V3.982h2.349v5.093h5.797V3.982H128.12z"/>
	<path d="M140.54,3.982l-4.584,7.717v4.764h-2.347v-4.764l-4.459-7.717h2.72l1.866,3.292c0.103,0.183,0.277,0.521,0.524,1.015
		l0.263,0.503l0.254,0.503h0.063l0.264-0.503l0.264-0.503c0.224-0.451,0.4-0.79,0.533-1.015l1.886-3.292H140.54z"/>
</g>
</svg>
