<svg xmlns="http://www.w3.org/2000/svg" width="175" height="22"><path d="M175 16.32h-8.25V8.08h6.22V5.74h-6.22V0H0v22h166.75v-3.34H175v-2.34zM5.62 15.54h-2.1V6.9h2.1v8.64z"/><path fill="#fff" d="M42.2 16.46V3.98h6.1c1.4 0 2.38.23 2.9.7.5.45.77 1.32.77 2.6 0 1.53-.6 2.44-1.82 2.72v.04c1.42.22 2.12 1.2 2.12 2.98 0 1.27-.27 2.16-.8 2.67-.56.5-1.5.76-2.86.76h-6.4zm2.35-7.24h2.88c.92 0 1.52-.1 1.77-.3.26-.22.4-.7.4-1.45 0-1-.57-1.5-1.7-1.5h-3.35v3.25zm0 5.25h2.58l.82-.02c.8 0 1.3-.1 1.56-.34.26-.2.4-.7.4-1.4 0-.77-.14-1.24-.4-1.44-.27-.2-.92-.3-1.95-.3h-3v3.5zM56.32 3.98v12.48h-2.35V3.98h2.35zM63.65 3.87c2.25 0 3.7.38 4.34 1.13.64.76.96 2.44.96 5.05 0 2.86-.33 4.66-.98 5.4-.64.75-2.22 1.12-4.7 1.12-2.26 0-3.7-.37-4.37-1.1-.65-.73-.98-2.35-.98-4.85 0-2.98.33-4.84.97-5.6.64-.77 2.23-1.15 4.75-1.15zm-.18 2.03c-1.58 0-2.5.2-2.76.6-.26.42-.4 1.84-.4 4.26 0 1.8.16 2.87.47 3.23s1.23.54 2.75.54c1.46 0 2.33-.2 2.62-.6.3-.43.44-1.67.44-3.76 0-2.1-.14-3.33-.42-3.7-.27-.4-1.17-.58-2.7-.58zM75.4 9.82h5.45l.04 2.48c0 1.8-.35 2.97-1.02 3.5-.67.5-2.18.77-4.5.77-2.14 0-3.56-.35-4.26-1.04-.7-.7-1.04-2.1-1.04-4.25 0-2.73.14-4.46.42-5.18.34-.87.87-1.46 1.57-1.77.7-.3 1.9-.46 3.57-.46 2.2 0 3.6.24 4.25.7s.95 1.53.95 3.15h-2.37c-.04-.8-.22-1.32-.53-1.52-.3-.2-1.1-.3-2.34-.3-1.35 0-2.2.17-2.58.5-.36.36-.54 1.16-.54 2.42v2.85c0 1.24.2 2.03.55 2.36s1.2.5 2.52.5c1.28 0 2.1-.13 2.44-.42.34-.28.5-.95.5-2.02l.02-.5h-3.1V9.8zM82.54 16.46V3.98h6.1c1.5 0 2.56.27 3.13.8.58.53.86 1.5.86 2.88 0 1.26-.14 2.12-.43 2.58-.3.47-.87.8-1.76.96v.1c1.37.07 2.06.88 2.06 2.4v2.76h-2.35v-2.28c0-1.28-.63-1.92-1.9-1.92H84.9v4.2h-2.36zm2.35-6.2h3.36c.8 0 1.33-.14 1.6-.43.26-.3.4-.87.4-1.74 0-.9-.12-1.48-.35-1.74-.22-.26-.7-.38-1.48-.38H84.9v4.28zM101.98 14.07h-5.34l-.77 2.4H93.4l4.1-12.5h3.53l4.18 12.5h-2.43l-.8-2.4zm-.54-1.75l-2.14-6.5-2.1 6.5h4.24zM106.28 16.46V3.98h5.58c1.7 0 2.82.3 3.4.88.58.6.87 1.73.87 3.4 0 1.68-.27 2.8-.83 3.34-.56.55-1.68.82-3.37.82H108.62v4.04h-2.34zm2.34-6.02h2.68c1.06 0 1.73-.13 2.02-.37.3-.25.43-.83.43-1.75 0-1.06-.12-1.7-.36-1.96-.25-.26-.87-.38-1.87-.38h-2.9v4.46zM128.12 3.98v12.48h-2.35v-5.4h-5.8v5.4h-2.34V3.98h2.34v5.1h5.8v-5.1h2.35zM140.54 3.98l-4.58 7.72v4.76h-2.35V11.7l-4.45-7.72h2.72l1.87 3.3c.1.18.27.52.52 1l.26.5.26.52h.06l.26-.5.27-.5c.22-.46.4-.8.53-1.03l1.9-3.3h2.74z"/></svg>