<?xml version="1.0" encoding="utf-8"?>
<!-- Generator: Adobe Illustrator 16.0.0, SVG Export Plug-In . SVG Version: 6.00 Build 0)  -->
<!DOCTYPE svg PUBLIC "-//W3C//DTD SVG 1.1//EN" "http://www.w3.org/Graphics/SVG/1.1/DTD/svg11.dtd">
<svg version="1.1" id="Layer_1" xmlns="http://www.w3.org/2000/svg" xmlns:xlink="http://www.w3.org/1999/xlink" x="0px" y="0px"
	 width="103px" height="91px" viewBox="0 0 103 91" enable-background="new 0 0 103 91" xml:space="preserve">
<g>
	<polygon points="103,9.347 103,2.097 97.51,2.097 97.51,-0.529 96.057,-0.529 96.057,2.097 91.834,2.097 91.834,77.042 
		5.877,77.042 5.877,81.46 1.745,81.46 1.745,82.476 5.877,82.476 5.877,86.251 0,86.251 0,87.124 5.877,87.124 5.877,88.197 
		27.468,88.197 27.468,86.784 29.598,86.784 29.598,88.197 38.706,88.197 38.706,86.784 40.062,86.784 40.062,88.197 65.252,88.197 
		65.252,85.294 66.414,85.294 66.414,88.197 90.857,88.197 90.857,91.102 103,91.102 103,88.197 103,85.294 103,57.36 
		100.901,57.36 100.901,9.347 	"/>
</g>
</svg>
