<?xml version="1.0" encoding="utf-8"?>
<!-- Generator: Adobe Illustrator 16.0.0, SVG Export Plug-In . SVG Version: 6.00 Build 0)  -->
<!DOCTYPE svg PUBLIC "-//W3C//DTD SVG 1.1//EN" "http://www.w3.org/Graphics/SVG/1.1/DTD/svg11.dtd">
<svg version="1.1" id="Layer_1" xmlns="http://www.w3.org/2000/svg" xmlns:xlink="http://www.w3.org/1999/xlink" x="0px" y="0px"
	 width="31px" height="2017px" viewBox="0 0.251 31 2017" enable-background="new 0 0.251 31 2017" xml:space="preserve">
<path d="M1.24,523c-0.73-9.9,3.64-23.4,9.18-35.82V523h9.359v-54.26c1.551-2.73,3.041-5.221,4.371-7.32
	c12.76-20.08,5.58-47.6-4.371-74.24V258.25h-2.34V3.53h7.16V0h-19v3.52h7.16v254.73h-2.34v26.68c-0.65,1.971-1.33,3.971-2.02,6
	c-5.8,17-12.38,36.28-4.86,57.68c2,5.721,4.37,11.721,6.88,18v117.74C4.36,497.5-0.66,512.24,0.07,523 M4.62,348.141
	c-7.35-20.94-0.86-39.961,4.88-56.75c0.3-0.931,0.6-1.82,0.92-2.73v74.73c-2.1-5.301-4.08-10.4-5.8-15.261V348.141z M19.77,466.34
	V390.6c9.25,25.4,15.381,51.25,3.431,70.08c-1.06,1.66-2.22,3.58-3.431,5.65V466.34z"/>
<path fill="none" stroke="#000000" stroke-miterlimit="10" d="M20.33,3.52v35.65H15.5"/>
<path d="M9.33,32.33h4.5V46h-4.5V32.33z M7.42,2.5v13.67h6.4V2.5H7.42z M11.58,14.67H8.92V12h2.66V14.67z M11.58,10.67H8.92V8h2.66
	V10.67z M11.58,6.42H8.92V3.75h2.66V6.42z"/>
<g>
	<polygon points="19.828,2017.502 10.417,2017.502 10.417,523 19.779,523 	"/>
</g>
<path fill="none" stroke="#000000" stroke-width="1.13" stroke-miterlimit="10" d="M0.656,522.922
	c-0.657,33.328,3.67,52.166,6.677,69.412C13.5,627.708,30.292,702.227,31.001,734c1.692,75.845-27.905,226.157-29.667,302
	c-1.89,81.317,29.96,242.661,29.667,324c-0.196,54.507-28.485,161.506-29.667,216c-1.177,54.25,28.215,160.771,29.667,215.014
	C32.53,1848.144,0,1960.352,0,2017.502"/>
</svg>
