<?xml version="1.0" encoding="utf-8"?>
<!-- Generator: Adobe Illustrator 16.0.0, SVG Export Plug-In . SVG Version: 6.00 Build 0)  -->
<!DOCTYPE svg PUBLIC "-//W3C//DTD SVG 1.1//EN" "http://www.w3.org/Graphics/SVG/1.1/DTD/svg11.dtd">
<svg version="1.1" id="Layer_1" xmlns="http://www.w3.org/2000/svg" xmlns:xlink="http://www.w3.org/1999/xlink" x="0px" y="0px"
	 width="114px" height="91px" viewBox="0.292 0 114 91" enable-background="new 0.292 0 114 91" xml:space="preserve">
<path fill="none" stroke="#000000" stroke-miterlimit="10" d="M103,6.833c1.524-0.006,8.313-1.208,7.313,4.167
	c-1.857,9.989,4.139,66.631,1.188,72.262c-2.832,5.405-4.635-2.128-10-1.053"/>
<path fill="none" stroke="#000000" stroke-miterlimit="10" d="M103,6.833c1.59-0.007,7.531-0.208,5.938,4.479
	c-5.301,15.591,9.375,59.563,3.832,66.063c-3.463,4.063-5.202-3.938-9.77-2.041"/>
<path fill="none" stroke="#000000" stroke-miterlimit="10" d="M102.083,7.542c2.063-0.042,7.834-1.313,6.104,3.896
	c-2.866,8.631,6.729,39.396-1.646,43.563c-1.437,0.715-3.791-0.185-5.643-0.188"/>
<rect x="100.334" y="53.646" width="1.832" height="2.104"/>
<rect x="102.313" y="5.781" width="1.833" height="2.563"/>
<rect x="102.084" y="74.282" width="1.832" height="2.104"/>
<rect x="102.084" y="81.157" width="1.832" height="2.104"/>
<path d="M103,9.347v-7.25h-5.49v-2.626h-1.453v2.626h-4.223v74.945H5.877v4.418H1.745v1.017h4.132v3.774H0v0.873h5.877v1.073h21.591
	v-1.413h2.13v1.413h9.108v-1.413h1.356v1.413h25.19v-2.903h1.162v2.903h24.442v2.904H103v-2.904v-2.903V57.359H100.9V9.347H103z
	 M99.719,56.458H93v-1.417h6.719V56.458z M99.719,52.386H93v-1.417h6.719V52.386z M99.719,48.314H93v-1.418h6.719V48.314z
	 M99.719,44.242H93v-1.417h6.719V44.242z M99.719,40.171H93v-1.417h6.719V40.171z M99.719,36.099H93v-1.417h6.719V36.099z
	 M99.719,32.027H93V30.61h6.719V32.027z M99.719,27.955H93v-1.417h6.719V27.955z M99.719,23.883H93v-1.417h6.719V23.883z
	 M99.719,19.811H93v-1.417h6.719V19.811z M99.719,15.739H93v-1.417h6.719V15.739z M99.719,11.667H93V10.25h6.719V11.667z"/>
</svg>
