<?xml version="1.0" encoding="utf-8"?>
<!-- Generator: Adobe Illustrator 16.0.0, SVG Export Plug-In . SVG Version: 6.00 Build 0)  -->
<!DOCTYPE svg PUBLIC "-//W3C//DTD SVG 1.1//EN" "http://www.w3.org/Graphics/SVG/1.1/DTD/svg11.dtd">
<svg version="1.1" xmlns="http://www.w3.org/2000/svg" xmlns:xlink="http://www.w3.org/1999/xlink" x="0px" y="0px" width="300px"
	 height="50px" viewBox="0 0 300 50" enable-background="new 0 0 300 50" xml:space="preserve">
<g id="Layer_1">
</g>
<g id="Layer_2">
	<g>
		<path d="M300,41.875V0H0v50h291.5 M6.688,10C4.651,10,3,8.349,3,6.313s1.651-3.688,3.688-3.688s3.688,1.651,3.688,3.688
			S8.724,10,6.688,10z"/>
	</g>
	<g>
		<path fill="#FFFFFF" d="M27.416,27.643h3.555v0.643c0,2.598-0.474,4.277-1.422,5.038c-0.948,0.761-3.044,1.142-6.289,1.142
			c-3.683,0-5.947-0.602-6.795-1.805s-1.271-4.421-1.271-9.652c0-3.081,0.574-5.106,1.723-6.077s3.55-1.456,7.205-1.456
			c2.661,0,4.438,0.398,5.332,1.196c0.893,0.798,1.34,2.381,1.34,4.751l0.014,0.424h-3.555v-0.479c0-1.222-0.23-2.003-0.69-2.345
			c-0.46-0.342-1.511-0.513-3.151-0.513c-2.197,0-3.516,0.269-3.958,0.807c-0.442,0.538-0.663,2.133-0.663,4.785
			c0,3.573,0.198,5.688,0.595,6.344s1.679,0.984,3.849,0.984c1.759,0,2.9-0.183,3.425-0.547c0.524-0.364,0.786-1.167,0.786-2.406
			L27.416,27.643z"/>
		<path fill="#FFFFFF" d="M49.031,15.639v18.662H45.49v-8.066h-8.75v8.066h-3.541V15.639h3.541v7.615h8.75v-7.615H49.031z"/>
		<path fill="#FFFFFF" d="M55.484,18.619v4.813h8.75v2.611h-8.75v5.277h9.311v2.98H51.943V15.639h12.77v2.98H55.484z"/>
		<path fill="#FFFFFF" d="M78.959,27.643h3.555v0.643c0,2.598-0.474,4.277-1.422,5.038c-0.948,0.761-3.044,1.142-6.289,1.142
			c-3.683,0-5.947-0.602-6.795-1.805s-1.271-4.421-1.271-9.652c0-3.081,0.574-5.106,1.723-6.077s3.55-1.456,7.205-1.456
			c2.661,0,4.438,0.398,5.332,1.196c0.893,0.798,1.34,2.381,1.34,4.751l0.014,0.424h-3.555v-0.479c0-1.222-0.23-2.003-0.69-2.345
			c-0.46-0.342-1.511-0.513-3.151-0.513c-2.197,0-3.516,0.269-3.958,0.807c-0.442,0.538-0.663,2.133-0.663,4.785
			c0,3.573,0.198,5.688,0.595,6.344s1.679,0.984,3.849,0.984c1.759,0,2.9-0.183,3.425-0.547c0.524-0.364,0.786-1.167,0.786-2.406
			L78.959,27.643z"/>
		<path fill="#FFFFFF" d="M88.283,15.639v7.602h1.668l6.207-7.602h4.402l-7.533,9.064l8.326,9.598h-4.539l-6.836-8.08h-1.695v8.08
			h-3.541V15.639H88.283z"/>
		<path fill="#FFFFFF" d="M117.541,15.475c3.391,0,5.573,0.563,6.549,1.688c0.975,1.126,1.463,3.644,1.463,7.554
			c0,4.274-0.49,6.968-1.47,8.08c-0.98,1.112-3.352,1.668-7.116,1.668c-3.391,0-5.583-0.549-6.576-1.647
			c-0.994-1.099-1.49-3.516-1.49-7.253c0-4.448,0.487-7.241,1.463-8.381C111.338,16.044,113.731,15.475,117.541,15.475z
			 M117.268,18.51c-2.379,0-3.769,0.306-4.17,0.916c-0.401,0.61-0.602,2.726-0.602,6.344c0,2.68,0.234,4.293,0.704,4.84
			c0.469,0.547,1.853,0.82,4.149,0.82c2.196,0,3.514-0.308,3.951-0.923s0.656-2.481,0.656-5.599c0-3.126-0.208-4.975-0.622-5.544
			C120.92,18.795,119.564,18.51,117.268,18.51z"/>
		<path fill="#FFFFFF" d="M139.949,15.639h3.541v12.414c0,2.598-0.499,4.315-1.497,5.154s-3.038,1.258-6.118,1.258
			c-3.254,0-5.387-0.396-6.398-1.189s-1.518-2.466-1.518-5.018V15.639h3.541v12.619c0,1.376,0.246,2.249,0.738,2.618
			s1.649,0.554,3.473,0.554c1.868,0,3.042-0.187,3.521-0.561s0.718-1.29,0.718-2.748V15.639z"/>
		<path fill="#FFFFFF" d="M154.195,18.811v15.49h-3.541v-15.49h-5.387v-3.172h14.506v3.172H154.195z"/>
		<path fill="#FFFFFF" d="M168.564,34.301V15.639h7.52h0.93c2.524,0,4.227,0.439,5.106,1.319s1.319,2.577,1.319,5.093
			c0,2.497-0.419,4.156-1.258,4.977s-2.534,1.23-5.086,1.23l-0.82,0.014h-4.17v6.029H168.564z M172.105,25.291h4.033
			c1.604,0,2.623-0.185,3.056-0.554s0.649-1.242,0.649-2.618c0-1.577-0.18-2.555-0.54-2.933s-1.297-0.567-2.81-0.567h-4.389V25.291z
			"/>
		<path fill="#FFFFFF" d="M185.695,34.301V15.639h9.201c2.288,0,3.864,0.396,4.73,1.189s1.299,2.229,1.299,4.307
			c0,1.887-0.217,3.177-0.649,3.869s-1.319,1.171-2.659,1.436v0.123c2.069,0.128,3.104,1.335,3.104,3.623v4.115h-3.541v-3.404
			c0-1.923-0.948-2.885-2.844-2.885h-5.1v6.289H185.695z M189.236,25.031h5.086c1.212,0,2.017-0.217,2.413-0.649
			s0.595-1.301,0.595-2.604c0-1.331-0.171-2.189-0.513-2.577s-1.092-0.581-2.249-0.581h-5.332V25.031z"/>
		<path fill="#FFFFFF" d="M211.494,15.475c3.391,0,5.573,0.563,6.549,1.688s1.463,3.644,1.463,7.554c0,4.274-0.49,6.968-1.47,8.08
			s-3.352,1.668-7.116,1.668c-3.391,0-5.583-0.549-6.576-1.647s-1.49-3.516-1.49-7.253c0-4.448,0.487-7.241,1.463-8.381
			S207.685,15.475,211.494,15.475z M211.221,18.51c-2.379,0-3.769,0.306-4.17,0.916s-0.602,2.726-0.602,6.344
			c0,2.68,0.234,4.293,0.704,4.84s1.853,0.82,4.149,0.82c2.196,0,3.514-0.308,3.951-0.923s0.656-2.481,0.656-5.599
			c0-3.126-0.207-4.975-0.622-5.544S213.518,18.51,211.221,18.51z"/>
		<path fill="#FFFFFF" d="M233.082,15.639v12.879c0,2.397-0.396,3.987-1.189,4.771s-2.406,1.176-4.84,1.176
			c-2.589,0-4.268-0.378-5.038-1.135s-1.155-2.411-1.155-4.963l0.041-1.381h3.377c0.055,0.692,0.082,1.212,0.082,1.559
			c0,0.328,0.014,0.725,0.041,1.189c0.055,1.13,0.952,1.695,2.693,1.695c1.039,0,1.707-0.203,2.003-0.608s0.444-1.319,0.444-2.741
			V15.639H233.082z"/>
		<path fill="#FFFFFF" d="M239.535,18.619v4.813h8.75v2.611h-8.75v5.277h9.311v2.98h-12.852V15.639h12.77v2.98H239.535z"/>
		<path fill="#FFFFFF" d="M263.01,27.643h3.555v0.643c0,2.598-0.474,4.277-1.422,5.038s-3.044,1.142-6.289,1.142
			c-3.683,0-5.947-0.602-6.795-1.805s-1.271-4.421-1.271-9.652c0-3.081,0.574-5.106,1.723-6.077s3.55-1.456,7.205-1.456
			c2.661,0,4.438,0.398,5.332,1.196s1.34,2.381,1.34,4.751l0.014,0.424h-3.555v-0.479c0-1.222-0.23-2.003-0.69-2.345
			s-1.511-0.513-3.151-0.513c-2.196,0-3.516,0.269-3.958,0.807s-0.663,2.133-0.663,4.785c0,3.573,0.198,5.688,0.595,6.344
			s1.68,0.984,3.849,0.984c1.759,0,2.9-0.183,3.425-0.547s0.786-1.167,0.786-2.406L263.01,27.643z"/>
		<path fill="#FFFFFF" d="M276.23,18.811v15.49h-3.541v-15.49h-5.387v-3.172h14.506v3.172H276.23z"/>
	</g>
</g>
</svg>
