<svg xmlns="http://www.w3.org/2000/svg" width="300" height="50"><g><path d="M300 41.88V0H0v50h291.5M6.7 10C4.64 10 3 8.35 3 6.3s1.65-3.68 3.7-3.68 3.68 1.66 3.68 3.7S8.72 10 6.68 10z"/><g fill="#fff"><path d="M27.42 27.64h3.55v.65c0 2.58-.47 4.26-1.42 5.02-.95.76-3.05 1.15-6.3 1.15-3.67 0-5.94-.6-6.8-1.8S15.2 28.23 15.2 23c0-3.07.57-5.1 1.72-6.07s3.55-1.45 7.2-1.45c2.66 0 4.44.4 5.33 1.2.9.8 1.34 2.37 1.34 4.74v.43h-3.55v-.48c0-1.22-.23-2-.7-2.35-.45-.34-1.5-.5-3.14-.5-2.2 0-3.5.26-3.95.8-.44.54-.66 2.13-.66 4.78 0 3.58.2 5.7.6 6.35s1.66.98 3.83.98c1.76 0 2.9-.18 3.43-.55.52-.36.8-1.16.8-2.4l-.04-.84zM49.03 15.64V34.3H45.5v-8.06h-8.76v8.06H33.2V15.64h3.54v7.6h8.75v-7.6h3.53zM55.48 18.62v4.8h8.75v2.62h-8.75v5.28h9.32v2.98H51.94V15.64H64.7v2.98H55.5zM78.96 27.64h3.55v.65c0 2.58-.46 4.26-1.4 5.02-.96.76-3.05 1.15-6.3 1.15-3.68 0-5.94-.6-6.8-1.8s-1.26-4.43-1.26-9.66c0-3.07.57-5.1 1.72-6.07s3.55-1.45 7.2-1.45c2.67 0 4.44.4 5.34 1.2.9.8 1.34 2.37 1.34 4.74v.43H78.8v-.48c0-1.22-.23-2-.7-2.35-.45-.34-1.5-.5-3.14-.5-2.2 0-3.52.26-3.96.8-.45.54-.67 2.13-.67 4.78 0 3.58.2 5.7.6 6.35s1.68.98 3.85.98c1.76 0 2.9-.18 3.42-.55.53-.36.8-1.16.8-2.4l-.04-.84zM88.28 15.64v7.6h1.67l6.2-7.6h4.4l-7.52 9.06 8.32 9.6H96.8L90 26.22h-1.7v8.08h-3.54V15.64h3.54zM117.54 15.47c3.4 0 5.57.57 6.55 1.7.97 1.12 1.45 3.64 1.45 7.55 0 4.27-.5 6.96-1.47 8.08-.98 1.1-3.35 1.66-7.1 1.66-3.4 0-5.6-.54-6.6-1.64-.98-1.1-1.48-3.52-1.48-7.26 0-4.44.5-7.24 1.46-8.38.98-1.14 3.37-1.7 7.18-1.7zm-.27 3.04c-2.38 0-3.77.32-4.17.93-.4.6-.6 2.72-.6 6.34 0 2.68.23 4.3.7 4.84.47.56 1.85.83 4.15.83 2.2 0 3.5-.3 3.95-.92s.66-2.47.66-5.6c0-3.12-.2-4.97-.63-5.54-.4-.56-1.77-.85-4.06-.85zM139.95 15.64h3.54v12.4c0 2.6-.5 4.33-1.5 5.17s-3.05 1.26-6.13 1.26c-3.25 0-5.38-.4-6.4-1.18s-1.5-2.47-1.5-5.02V15.64h3.53v12.62c0 1.37.25 2.25.74 2.62s1.65.55 3.47.55c1.88 0 3.05-.2 3.53-.56s.72-1.3.72-2.75V15.64zM154.2 18.8v15.5h-3.55V18.8h-5.38v-3.16h14.5v3.17h-5.58zM168.56 34.3V15.64H177c2.54 0 4.24.44 5.12 1.32s1.32 2.57 1.32 5.1c0 2.5-.42 4.15-1.26 4.97s-2.53 1.23-5.1 1.23H172.1v6.04h-3.54zm3.54-9h4.04c1.6 0 2.62-.2 3.05-.56s.64-1.24.64-2.62c0-1.58-.18-2.56-.54-2.93s-1.3-.58-2.8-.58h-4.4v6.67zM185.7 34.3V15.64h9.2c2.28 0 3.86.4 4.73 1.2s1.3 2.22 1.3 4.3c0 1.88-.22 3.17-.65 3.86s-1.32 1.17-2.66 1.44v.12c2.07.13 3.1 1.34 3.1 3.63v4.1h-3.54v-3.4c0-1.93-.95-2.9-2.84-2.9h-5.1v6.3h-3.55zm3.54-9.27h5.08c1.2 0 2.02-.22 2.42-.65s.6-1.3.6-2.6c0-1.33-.18-2.2-.52-2.58s-1.1-.58-2.25-.58h-5.33v6.4zM211.5 15.47c3.38 0 5.57.57 6.54 1.7s1.47 3.64 1.47 7.55c0 4.27-.48 6.96-1.46 8.08s-3.36 1.66-7.12 1.66c-3.4 0-5.58-.54-6.58-1.64s-1.5-3.52-1.5-7.26c0-4.44.5-7.24 1.48-8.38s3.37-1.7 7.17-1.7zm-.28 3.04c-2.38 0-3.77.32-4.17.93s-.6 2.72-.6 6.34c0 2.68.23 4.3.7 4.84s1.86.83 4.15.83c2.2 0 3.52-.3 3.95-.92s.66-2.47.66-5.6c0-3.12-.2-4.97-.6-5.54s-1.78-.85-4.08-.85zM233.08 15.64v12.88c0 2.4-.4 4-1.2 4.77s-2.4 1.17-4.83 1.17c-2.6 0-4.27-.38-5.04-1.14s-1.14-2.4-1.14-4.96l.04-1.38h3.38c.05.68.08 1.2.08 1.55 0 .32 0 .72.04 1.18.06 1.13.95 1.7 2.7 1.7 1.03 0 1.7-.2 2-.6s.44-1.33.44-2.75V15.64h3.54zM239.53 18.62v4.8h8.75v2.62h-8.75v5.28h9.32v2.98H236V15.64h12.76v2.98h-9.22zM263 27.64h3.56v.65c0 2.58-.47 4.26-1.42 5.02s-3.04 1.15-6.3 1.15c-3.67 0-5.93-.6-6.78-1.8s-1.27-4.43-1.27-9.66c0-3.07.56-5.1 1.7-6.07s3.56-1.45 7.22-1.45c2.66 0 4.43.4 5.33 1.2s1.34 2.37 1.34 4.74v.43h-3.55v-.48c0-1.22-.23-2-.7-2.35s-1.5-.5-3.14-.5c-2.2 0-3.5.26-3.95.8s-.67 2.13-.67 4.78c0 3.58.2 5.7.6 6.35s1.68.98 3.85.98c1.76 0 2.9-.18 3.42-.55s.8-1.16.8-2.4l-.04-.84zM276.23 18.8v15.5h-3.54V18.8h-5.4v-3.16h14.5v3.17h-5.57z"/></g></g></svg>