<?xml version="1.0" encoding="utf-8"?>
<!-- Generator: Adobe Illustrator 16.0.0, SVG Export Plug-In . SVG Version: 6.00 Build 0)  -->
<!DOCTYPE svg PUBLIC "-//W3C//DTD SVG 1.1//EN" "http://www.w3.org/Graphics/SVG/1.1/DTD/svg11.dtd">
<svg version="1.1" id="Layer_1" xmlns="http://www.w3.org/2000/svg" xmlns:xlink="http://www.w3.org/1999/xlink" x="0px" y="0px"
	 width="175px" height="22px" viewBox="0 0 175 22" enable-background="new 0 0 175 22" xml:space="preserve">
<g>
	<g>
		<polygon fill="#FFFFFF" points="0.5,21.5 0.5,0.5 168.057,0.5 168.057,15.752 174.5,15.752 174.5,17.092 168.057,17.092 
			168.057,21.5 		"/>
		<path d="M167.557,1v14.252v1h1H174v0.34h-5.443h-1v1V21H1V1H167.557 M168.557,0H0v22h168.557v-4.408H175v-2.34h-6.443V0L168.557,0
			z"/>
	</g>
	<g>
		<path d="M49.843,12.01h2.355v0.43c0,1.738-0.313,2.861-0.941,3.371c-0.629,0.508-2.018,0.765-4.168,0.765
			c-2.44,0-3.941-0.403-4.503-1.208s-0.842-2.956-0.842-6.455c0-2.06,0.38-3.415,1.142-4.063c0.761-0.649,2.352-0.974,4.774-0.974
			c1.764,0,2.941,0.266,3.533,0.8c0.592,0.533,0.888,1.592,0.888,3.177l0.009,0.283h-2.355v-0.32c0-0.816-0.153-1.339-0.458-1.567
			c-0.305-0.228-1.001-0.343-2.088-0.343c-1.456,0-2.331,0.18-2.624,0.539c-0.292,0.36-0.439,1.427-0.439,3.2
			c0,2.39,0.132,3.805,0.395,4.243c0.263,0.438,1.113,0.658,2.55,0.658c1.166,0,1.922-0.121,2.27-0.363
			c0.348-0.244,0.521-0.781,0.521-1.609L49.843,12.01z"/>
		<path d="M58.813,3.873c2.247,0,3.693,0.376,4.34,1.129c0.646,0.753,0.969,2.437,0.969,5.051c0,2.86-0.324,4.661-0.974,5.405
			c-0.649,0.743-2.222,1.115-4.715,1.115c-2.247,0-3.7-0.368-4.358-1.103c-0.659-0.734-0.988-2.354-0.988-4.853
			c0-2.975,0.323-4.844,0.969-5.604C54.702,4.254,56.288,3.873,58.813,3.873z M58.631,5.902c-1.577,0-2.498,0.204-2.764,0.612
			c-0.266,0.409-0.398,1.823-0.398,4.242c0,1.792,0.155,2.872,0.467,3.238c0.311,0.365,1.227,0.548,2.749,0.548
			c1.456,0,2.329-0.206,2.619-0.617c0.29-0.411,0.435-1.659,0.435-3.745c0-2.09-0.138-3.326-0.412-3.707
			C61.051,6.094,60.153,5.902,58.631,5.902z"/>
		<path d="M77.186,3.982v12.48h-3.977l-3.534-6.849c-0.175-0.341-0.45-0.938-0.824-1.792l-0.398-0.896l-0.39-0.896h-0.091
			l0.036,0.822l0.027,0.814l0.018,1.637v7.159h-2.347V3.982h3.978L72.9,10.31c0.284,0.561,0.613,1.24,0.987,2.04l0.471,1.016
			l0.471,1.023h0.082l-0.027-0.805l-0.027-0.807l-0.018-1.608V3.982H77.186z"/>
		<path d="M84.288,6.104v10.359h-2.346V6.104h-3.569V3.982h9.613v2.121L84.288,6.104L84.288,6.104z"/>
		<path d="M96.654,14.066h-5.336l-0.771,2.396h-2.48l4.113-12.48h3.522l4.176,12.48h-2.438L96.654,14.066z M96.111,12.32l-2.137-6.5
			l-2.104,6.5H96.111z"/>
		<path d="M108.587,12.01h2.354v0.43c0,1.738-0.313,2.861-0.94,3.371c-0.629,0.508-2.019,0.765-4.168,0.765
			c-2.44,0-3.94-0.403-4.504-1.208c-0.562-0.805-0.843-2.956-0.843-6.455c0-2.06,0.382-3.415,1.143-4.063
			c0.762-0.649,2.354-0.974,4.773-0.974c1.765,0,2.94,0.266,3.533,0.8c0.592,0.533,0.89,1.592,0.89,3.177l0.008,0.283h-2.354v-0.32
			c0-0.816-0.151-1.339-0.457-1.567s-1.002-0.343-2.088-0.343c-1.457,0-2.33,0.18-2.623,0.539c-0.293,0.36-0.438,1.427-0.438,3.2
			c0,2.39,0.131,3.805,0.396,4.243c0.264,0.438,1.111,0.658,2.551,0.658c1.164,0,1.922-0.121,2.27-0.363
			c0.348-0.244,0.521-0.781,0.521-1.609L108.587,12.01z"/>
		<path d="M117.348,6.104v10.359h-2.347V6.104h-3.569V3.982h9.612v2.121L117.348,6.104L117.348,6.104z"/>
	</g>
</g>
</svg>
