<svg xmlns="http://www.w3.org/2000/svg" width="175" height="22"><path d="M175 15.25h-6.44V0H0v22h168.56v-4.4H175z"/><g fill="#fff"><path d="M49.84 12h2.36v.44c0 1.74-.32 2.86-.94 3.37-.63.52-2.02.77-4.17.77-2.45 0-3.95-.4-4.5-1.2-.58-.8-.86-2.96-.86-6.46 0-2.05.38-3.4 1.15-4.05.75-.65 2.34-.98 4.76-.98 1.76 0 2.94.27 3.53.8.6.54.88 1.6.88 3.18v.28h-2.34V7.8c0-.8-.16-1.33-.46-1.55s-1-.35-2.1-.35c-1.45 0-2.32.18-2.6.54-.3.36-.45 1.43-.45 3.2 0 2.4.13 3.8.4 4.25s1.1.64 2.54.64c1.17 0 1.92-.12 2.27-.36.35-.25.52-.78.52-1.6l-.02-.57zM58.8 3.87c2.26 0 3.7.38 4.35 1.13.65.76.97 2.44.97 5.05 0 2.86-.32 4.66-.97 5.4-.65.75-2.22 1.12-4.72 1.12-2.24 0-3.7-.36-4.35-1.1-.66-.73-1-2.35-1-4.85 0-2.98.33-4.84.98-5.6.64-.77 2.23-1.15 4.75-1.15zm-.17 2.03c-1.58 0-2.5.2-2.76.6-.27.42-.4 1.84-.4 4.26 0 1.8.15 2.87.47 3.23.3.36 1.22.54 2.74.54 1.46 0 2.33-.2 2.62-.6.3-.43.44-1.67.44-3.76 0-2.1-.14-3.33-.4-3.7-.3-.4-1.2-.58-2.7-.58zM77.2 3.98v12.48h-4L69.7 9.6c-.18-.33-.46-.93-.83-1.78l-.4-.9-.4-.9h-.08l.04.83.04.82v8.79h-2.33V3.98h3.98l3.22 6.33c.28.57.6 1.25 1 2.05l.46 1 .47 1.04h.08l-.02-.82-.02-.8-.02-1.6v-7.2h2.35zM84.3 6.1v10.36h-2.36V6.1h-3.57V3.98H88V6.1h-3.7zM96.66 14.07h-5.34l-.77 2.4h-2.48l4.1-12.5h3.53l4.18 12.5h-2.44l-.78-2.4zm-.55-1.75l-2.13-6.5-2.1 6.5h4.24zM108.6 12h2.34v.44c0 1.74-.3 2.86-.94 3.37-.63.52-2.02.77-4.17.77-2.44 0-3.94-.4-4.5-1.2-.56-.8-.84-2.96-.84-6.46 0-2.05.37-3.4 1.13-4.05.76-.65 2.35-.98 4.77-.98 1.77 0 2.94.27 3.54.8.6.54.88 1.6.88 3.18v.28h-2.34V7.8c0-.8-.15-1.33-.46-1.55s-1-.35-2.1-.35c-1.44 0-2.32.18-2.6.54-.3.36-.45 1.43-.45 3.2 0 2.4.13 3.8.4 4.25.26.42 1.1.64 2.55.64 1.16 0 1.92-.12 2.27-.36.33-.25.5-.78.5-1.6V12zM117.35 6.1v10.36H115V6.1h-3.57V3.98h9.6V6.1h-3.68z"/></g></svg>