<?xml version="1.0" encoding="utf-8"?>
<!-- Generator: Adobe Illustrator 16.0.0, SVG Export Plug-In . SVG Version: 6.00 Build 0)  -->
<!DOCTYPE svg PUBLIC "-//W3C//DTD SVG 1.1//EN" "http://www.w3.org/Graphics/SVG/1.1/DTD/svg11.dtd">
<svg version="1.1" id="Layer_1" xmlns="http://www.w3.org/2000/svg" xmlns:xlink="http://www.w3.org/1999/xlink" x="0px" y="0px"
	 width="175px" height="22px" viewBox="0 0 175 22" enable-background="new 0 0 175 22" xml:space="preserve">
<g>
	<polygon points="175,15.252 168.556,15.252 168.556,0 0,0 0,22 168.556,22 168.556,17.592 175,17.592 	"/>
	<g>
		<path fill="#FFFFFF" d="M49.843,12.01h2.355v0.43c0,1.738-0.313,2.861-0.941,3.37c-0.629,0.509-2.018,0.764-4.168,0.764
			c-2.44,0-3.941-0.403-4.503-1.208c-0.562-0.804-0.842-2.956-0.842-6.455c0-2.06,0.38-3.415,1.142-4.063
			c0.761-0.649,2.352-0.974,4.774-0.974c1.764,0,2.941,0.266,3.533,0.8c0.592,0.533,0.888,1.592,0.888,3.177l0.009,0.283h-2.355
			v-0.32c0-0.816-0.153-1.339-0.458-1.567s-1.001-0.343-2.088-0.343c-1.456,0-2.331,0.18-2.624,0.539
			c-0.292,0.36-0.439,1.427-0.439,3.2c0,2.39,0.132,3.805,0.395,4.243s1.113,0.658,2.55,0.658c1.166,0,1.922-0.121,2.27-0.365
			c0.348-0.244,0.521-0.781,0.521-1.609L49.843,12.01z"/>
		<path fill="#FFFFFF" d="M58.813,3.873c2.247,0,3.693,0.376,4.34,1.129c0.646,0.753,0.969,2.437,0.969,5.051
			c0,2.86-0.324,4.661-0.974,5.405c-0.649,0.743-2.222,1.115-4.715,1.115c-2.247,0-3.7-0.368-4.358-1.103
			c-0.659-0.734-0.988-2.352-0.988-4.851c0-2.975,0.323-4.844,0.969-5.604C54.702,4.254,56.288,3.873,58.813,3.873z M58.631,5.902
			c-1.577,0-2.498,0.204-2.764,0.612c-0.266,0.409-0.398,1.823-0.398,4.242c0,1.792,0.155,2.872,0.467,3.238
			c0.311,0.365,1.227,0.548,2.749,0.548c1.456,0,2.329-0.206,2.619-0.617c0.29-0.411,0.435-1.66,0.435-3.745
			c0-2.09-0.138-3.326-0.412-3.707C61.051,6.094,60.153,5.902,58.631,5.902z"/>
		<path fill="#FFFFFF" d="M77.186,3.982v12.48h-3.977l-3.534-6.849c-0.175-0.341-0.45-0.938-0.824-1.792l-0.398-0.896l-0.39-0.896
			h-0.091l0.036,0.822l0.027,0.814l0.018,1.637v7.159h-2.347V3.982h3.978L72.9,10.31c0.284,0.561,0.613,1.24,0.987,2.039
			l0.471,1.015l0.471,1.024h0.082l-0.027-0.804l-0.027-0.806l-0.018-1.609V3.982H77.186z"/>
		<path fill="#FFFFFF" d="M84.288,6.104v10.359h-2.346V6.104h-3.569V3.982h9.613v2.121H84.288z"/>
		<path fill="#FFFFFF" d="M96.655,14.067h-5.336l-0.771,2.396h-2.482l4.113-12.48h3.524l4.176,12.48h-2.437L96.655,14.067z
			 M96.112,12.321L93.974,5.82l-2.102,6.501H96.112z"/>
		<path fill="#FFFFFF" d="M108.587,12.01h2.355v0.43c0,1.738-0.314,2.861-0.941,3.37c-0.629,0.509-2.018,0.764-4.168,0.764
			c-2.44,0-3.941-0.403-4.504-1.208c-0.561-0.804-0.842-2.956-0.842-6.455c0-2.06,0.381-3.415,1.142-4.063
			c0.761-0.649,2.353-0.974,4.774-0.974c1.764,0,2.941,0.266,3.533,0.8c0.592,0.533,0.889,1.592,0.889,3.177l0.008,0.283h-2.355
			v-0.32c0-0.816-0.152-1.339-0.457-1.567s-1.001-0.343-2.088-0.343c-1.456,0-2.33,0.18-2.623,0.539
			c-0.293,0.36-0.439,1.427-0.439,3.2c0,2.39,0.131,3.805,0.395,4.243c0.263,0.438,1.112,0.658,2.55,0.658
			c1.165,0,1.923-0.121,2.27-0.365c0.348-0.244,0.521-0.781,0.521-1.609L108.587,12.01z"/>
		<path fill="#FFFFFF" d="M117.348,6.104v10.359h-2.347V6.104h-3.569V3.982h9.612v2.121H117.348z"/>
	</g>
</g>
</svg>
