<svg xmlns="http://www.w3.org/2000/svg" width="175" height="22"><path fill="#fff" d="M.5 21.5V.5h167.56v15.25h6.44v1.34h-6.44v4.4z"/><path d="M167.56 1v15.25H174v.34h-6.44V21H1V1h166.56m1-1H0v22h168.56v-4.4H175v-2.35h-6.44V0zM49.84 12h2.36v.44c0 1.74-.32 2.86-.94 3.37-.63.52-2.02.78-4.17.78-2.45 0-3.95-.4-4.5-1.2s-.86-2.97-.86-6.47c0-2.05.38-3.4 1.15-4.05.75-.65 2.34-.97 4.76-.97 1.76 0 2.94.26 3.53.8.6.53.88 1.6.88 3.17v.3h-2.34V7.8c0-.82-.16-1.34-.46-1.57-.3-.23-1-.34-2.1-.34-1.45 0-2.32.2-2.6.54-.3.36-.45 1.43-.45 3.2 0 2.4.13 3.8.4 4.25.25.43 1.1.65 2.54.65 1.17 0 1.92-.13 2.27-.37.35-.24.52-.78.52-1.6l-.02-.57zM58.8 3.87c2.26 0 3.7.38 4.35 1.13.65.76.97 2.44.97 5.05 0 2.86-.32 4.66-.97 5.4-.65.75-2.22 1.12-4.72 1.12-2.24 0-3.7-.36-4.35-1.1-.66-.73-1-2.35-1-4.85 0-2.98.33-4.85.98-5.6.64-.77 2.23-1.15 4.75-1.15zm-.17 2.03c-1.58 0-2.5.2-2.76.6-.27.42-.4 1.84-.4 4.26 0 1.8.15 2.87.47 3.23.3.36 1.22.54 2.74.54 1.46 0 2.33-.2 2.62-.6.3-.43.44-1.67.44-3.76 0-2.1-.14-3.33-.4-3.7-.3-.4-1.2-.58-2.7-.58zM77.2 3.98v12.48h-4L69.7 9.6c-.18-.33-.46-.93-.83-1.78l-.4-.9-.4-.9h-.08l.04.83.04.82v8.79h-2.33V3.98h3.98l3.22 6.33c.28.57.6 1.25 1 2.05l.46 1.02.47 1.02h.08l-.02-.82-.02-.8-.02-1.6v-7.2h2.35zM84.3 6.1v10.36h-2.36V6.1h-3.57V3.98H88V6.1h-3.7zM96.65 14.07h-5.33l-.77 2.4h-2.48l4.1-12.5h3.53l4.18 12.5h-2.44l-.8-2.4zm-.54-1.75l-2.13-6.5-2.1 6.5h4.24zM108.6 12h2.34v.44c0 1.74-.3 2.86-.94 3.37-.63.52-2.02.78-4.17.78-2.44 0-3.94-.4-4.5-1.2-.56-.82-.84-2.97-.84-6.47 0-2.05.37-3.4 1.13-4.05.76-.65 2.35-.97 4.77-.97 1.77 0 2.94.26 3.53.8.6.53.9 1.6.9 3.17v.3h-2.35V7.8c0-.82-.15-1.34-.46-1.57s-1-.34-2.1-.34c-1.44 0-2.32.2-2.6.54-.3.36-.45 1.43-.45 3.2 0 2.4.13 3.8.4 4.25.26.43 1.1.65 2.55.65 1.16 0 1.92-.13 2.27-.37.34-.24.5-.78.5-1.6V12zM117.35 6.1v10.36H115V6.1h-3.57V3.98h9.6V6.1h-3.68z"/></svg>