<?xml version="1.0" encoding="utf-8"?>
<!-- Generator: Adobe Illustrator 16.0.0, SVG Export Plug-In . SVG Version: 6.00 Build 0)  -->
<!DOCTYPE svg PUBLIC "-//W3C//DTD SVG 1.1//EN" "http://www.w3.org/Graphics/SVG/1.1/DTD/svg11.dtd">
<svg version="1.1" id="Layer_1" xmlns="http://www.w3.org/2000/svg" xmlns:xlink="http://www.w3.org/1999/xlink" x="0px" y="0px"
	 width="128px" height="234px" viewBox="-15.333 -90.165 128 234" enable-background="new -15.333 -90.165 128 234"
	 xml:space="preserve">
<line fill="none" stroke="#000000" stroke-width="3" stroke-miterlimit="10" x1="6" y1="-90.109" x2="6" y2="115.78"/>
<rect x="3.51" y="-81.936" width="2.125" height="1.25"/>
<polygon points="9.25,-67.484 9.25,-68.172 10.667,-68.172 10.667,-69.213 9.25,-69.213 9.25,-69.901 10.667,-69.901 
	10.667,-70.943 9.25,-70.943 9.25,-71.63 10.667,-71.63 10.667,-72.672 9.25,-72.672 9.25,-73.359 10.667,-73.359 10.667,-74.401 
	9.25,-74.401 9.25,-75.089 10.667,-75.089 10.667,-76.13 9.25,-76.13 9.25,-76.818 10.667,-76.818 10.667,-77.859 9.25,-77.859 
	9.25,-78.547 10.667,-78.547 10.667,-79.588 9.25,-79.588 9.25,-80.276 10.667,-80.276 10.667,-81.317 9.25,-81.317 9.25,-82.005 
	10.667,-82.005 10.667,-83.047 9.25,-83.047 9.25,-83.734 10.667,-83.734 10.667,-90.109 6,-90.109 6,-65.776 10.667,-65.776 
	10.667,-67.484 "/>
<polygon points="1.333,47.5 1.333,48.672 2.438,48.672 2.438,49.922 1.333,49.922 1.333,51.508 2.438,51.508 2.438,52.758 
	1.333,52.758 1.333,54.414 2.438,54.414 2.438,55.664 1.333,55.664 1.333,56.766 6,56.766 6,47.5 "/>
<path d="M1.333,95.016v20.875h9.417V95.016H1.333z M3.375,108.39H2.083V96.85h1.292V108.39z"/>
<path d="M2.594-86.234v3.188h2.635v-3.188H2.594z M3.51-84.109c-0.293,0-0.531-0.238-0.531-0.531s0.238-0.531,0.531-0.531
	s0.531,0.238,0.531,0.531S3.804-84.109,3.51-84.109z"/>
<path fill="none" stroke="#000000" stroke-width="0.5" stroke-miterlimit="10" d="M5.229-80.859c-0.854-0.688-3.859-1-2.792,2.188
	c1.197,3.574-3.854,6.063,1.073,11.625c2.385,2.693,5.199,12.521,5.115,17.125c-0.119,6.529-6.313,23.125-5.438,37
	s5.854,34.729,0.938,45.688c-3.374,7.519,2.829,8.362,4.438,15.625C10.417,56.766,7.104,60.245,6,63.808
	c-2.534,8.177-4.665,15.969-2.031,20.364c1.247,2.081,3.637,3.644,6.156,7.5c1.667,2.552,2.957,16.55-1.542,16.718"/>
<path d="M112.667,130.98h-7.38v-5.851h4.78v-2.35h-4.78v-7h-120.62v21.9H93.638v6.1h2.299v-6.1h9.351v-4.36h7.38V130.98z"/>
<g>
	<path fill="#FFFFFF" d="M17.767,130.8v-9.3h4.551c1.3,0,2.199,0.271,2.72,0.841c0.521,0.569,0.78,1.569,0.78,3
		c0,2.299-0.2,3.799-0.631,4.47c-0.399,0.659-1.35,1-2.799,1h-4.621V130.8z M19.526,129.3h2.5c0.841,0,1.4-0.18,1.631-0.569
		c0.24-0.4,0.359-1.25,0.359-2.58c0-1.37-0.1-2.24-0.33-2.62c-0.22-0.37-0.74-0.561-1.56-0.561h-2.601V129.3z M28.667,122.98v2.399
		h4.34v1.301h-4.34v2.63h4.62v1.5h-6.38v-9.33h6.34v1.5H28.667z M41.467,124.2h-1.72c0-0.08,0-0.15,0-0.2
		c-0.051-0.5-0.17-0.84-0.359-0.97c-0.201-0.141-0.641-0.2-1.341-0.2c-0.83,0-1.38,0.07-1.63,0.23c-0.26,0.149-0.4,0.479-0.4,0.97
		c0,0.6,0.121,0.939,0.33,1.061c0.2,0.129,0.9,0.22,2.061,0.279c1.38,0.08,2.27,0.28,2.67,0.6c0.42,0.301,0.619,0.98,0.619,1.98
		c0,1.24-0.239,2.04-0.699,2.4c-0.46,0.359-1.53,0.539-3.15,0.539c-1.459,0-2.42-0.18-2.9-0.529c-0.479-0.35-0.719-1.07-0.719-2.16
		v-0.33h1.699v0.2c0,0.649,0.12,1.05,0.35,1.2c0.23,0.14,0.841,0.199,1.851,0.199c0.8,0,1.3-0.069,1.5-0.239s0.33-0.56,0.33-1.17
		c0-0.45-0.08-0.75-0.24-0.9c-0.17-0.14-0.521-0.229-1.069-0.26l-0.971-0.07c-1.47-0.08-2.4-0.3-2.8-0.6
		c-0.42-0.33-0.62-1.03-0.62-2.101c0-1.08,0.25-1.8,0.74-2.16c0.49-0.359,1.47-0.549,2.939-0.549c1.4,0,2.33,0.17,2.801,0.5
		c0.5,0.329,0.74,0.979,0.74,1.949v0.35L41.467,124.2z M44.667,121.48v9.319h-1.76v-9.3h1.76V121.48z M49.946,125.851h4.07
		l0.03,1.85c0,1.34-0.25,2.2-0.76,2.6c-0.5,0.4-1.63,0.58-3.37,0.58c-1.6,0-2.66-0.26-3.18-0.779c-0.521-0.5-0.78-1.57-0.78-3.17
		c0-2.041,0.101-3.32,0.3-3.86c0.26-0.67,0.65-1.101,1.17-1.33c0.53-0.229,1.42-0.34,2.68-0.34c1.641,0,2.701,0.17,3.181,0.521
		c0.479,0.359,0.72,1.14,0.72,2.35h-1.77c-0.041-0.6-0.17-1-0.4-1.141c-0.23-0.149-0.82-0.22-1.75-0.22
		c-1.02,0-1.66,0.13-1.939,0.38c-0.28,0.26-0.42,0.86-0.42,1.801v2.129c0,0.92,0.14,1.5,0.399,1.761
		c0.261,0.26,0.899,0.399,1.899,0.399c0.961,0,1.57-0.119,1.83-0.33c0.271-0.22,0.4-0.72,0.4-1.52v-0.38h-2.32v-1.3H49.946z
		 M63.867,121.48v9.319h-2.97l-2.65-5.1c-0.13-0.26-0.33-0.7-0.6-1.35l-0.301-0.67l-0.3-0.66h-0.069l0.029,0.6l0.03,0.62v6.56h-1.75
		v-9.3h3l2.399,4.7c0.201,0.43,0.461,0.93,0.74,1.53l0.35,0.76l0.341,0.771h0.06l-0.02-0.601l-0.02-0.6v-6.58h1.739H63.867z
		 M72.367,124.2h-1.72c0-0.08,0-0.15,0-0.2c-0.051-0.5-0.16-0.84-0.36-0.97c-0.181-0.141-0.63-0.2-1.341-0.2
		c-0.829,0-1.369,0.07-1.629,0.23c-0.26,0.149-0.381,0.479-0.381,0.97c0,0.6,0.101,0.939,0.301,1.061
		c0.22,0.129,0.9,0.22,2.07,0.279c1.379,0.08,2.27,0.28,2.68,0.6c0.4,0.32,0.6,0.98,0.6,1.98c0,1.24-0.23,2.04-0.699,2.4
		c-0.471,0.359-1.531,0.539-3.15,0.539c-1.461,0-2.42-0.18-2.9-0.529c-0.47-0.35-0.699-1.07-0.699-2.16l-0.021-0.33h1.7l0.02,0.2
		c0,0.649,0.1,1.05,0.33,1.2c0.23,0.14,0.85,0.199,1.859,0.199c0.781,0,1.281-0.069,1.5-0.239c0.221-0.17,0.33-0.56,0.33-1.17
		c0-0.45-0.1-0.75-0.26-0.9c-0.17-0.14-0.52-0.229-1.07-0.26l-0.969-0.07c-1.461-0.08-2.4-0.3-2.801-0.6
		c-0.4-0.33-0.619-1.03-0.619-2.101c0-1.08,0.25-1.8,0.739-2.16c0.49-0.359,1.47-0.549,2.94-0.549c1.399,0,2.33,0.17,2.8,0.5
		c0.5,0.34,0.739,0.979,0.739,1.949v0.35L72.367,124.2z"/>
</g>
</svg>
