<?xml version="1.0" encoding="utf-8"?>
<!-- Generator: Adobe Illustrator 16.0.0, SVG Export Plug-In . SVG Version: 6.00 Build 0)  -->
<!DOCTYPE svg PUBLIC "-//W3C//DTD SVG 1.1//EN" "http://www.w3.org/Graphics/SVG/1.1/DTD/svg11.dtd">
<svg version="1.1" id="Layer_1" xmlns="http://www.w3.org/2000/svg" xmlns:xlink="http://www.w3.org/1999/xlink" x="0px" y="0px"
	 width="128px" height="28px" viewBox="0 0 128 28" enable-background="new 0 0 128 28" xml:space="preserve">
<g>
	<g>
		<polygon fill="#FFFFFF" points="109.467,27.5 109.467,21.387 0.5,21.387 0.5,0.5 120.124,0.5 120.124,7.513 124.896,7.513 
			124.896,8.841 120.124,8.841 120.124,15.713 127.5,15.713 127.5,17.043 120.124,17.043 120.124,21.387 110.781,21.387 
			110.781,27.5 		"/>
		<path d="M119.624,1v6.013v1h1h3.772v0.328h-3.772h-1v1v5.872v1h1H127v0.33h-6.376h-1v1v3.344h-8.343h-1v1V27h-0.314v-5.113v-1h-1
			H1V1H119.624 M120.624,0H0v21.887h108.967V28h2.314v-6.113h9.343v-4.344H128v-2.33h-7.376V9.341h4.772V7.013h-4.772V0L120.624,0z"
			/>
	</g>
	<g>
		<path d="M33.105,15.02V5.708h4.55c1.292,0,2.197,0.284,2.715,0.853s0.776,1.564,0.776,2.988c0,2.324-0.208,3.817-0.623,4.479
			c-0.416,0.664-1.354,0.994-2.813,0.994h-4.605V15.02z M34.861,13.532h2.502c0.84,0,1.385-0.194,1.631-0.583
			c0.246-0.389,0.369-1.247,0.369-2.575c0-1.374-0.11-2.247-0.332-2.62c-0.221-0.373-0.741-0.559-1.559-0.559h-2.611V13.532z"/>
		<path d="M44.001,7.195v2.401h4.341v1.303h-4.341v2.633h4.617v1.487h-6.373V5.708h6.333v1.487H44.001z"/>
		<path d="M56.795,8.422H55.08c-0.009-0.086-0.014-0.15-0.014-0.19C55.025,7.709,54.91,7.38,54.72,7.246
			c-0.188-0.134-0.636-0.201-1.342-0.201c-0.832,0-1.375,0.077-1.631,0.232c-0.255,0.155-0.383,0.48-0.383,0.976
			c0,0.587,0.104,0.939,0.313,1.058c0.208,0.118,0.895,0.209,2.062,0.273c1.378,0.077,2.27,0.275,2.674,0.593
			c0.404,0.318,0.606,0.98,0.606,1.985c0,1.237-0.237,2.036-0.712,2.396s-1.521,0.543-3.139,0.543c-1.455,0-2.421-0.179-2.898-0.531
			c-0.477-0.354-0.716-1.074-0.716-2.156l-0.007-0.341h1.71l0.005,0.198c0,0.65,0.113,1.048,0.34,1.193
			c0.227,0.146,0.843,0.219,1.852,0.219c0.786,0,1.288-0.084,1.505-0.252s0.326-0.557,0.326-1.167c0-0.451-0.084-0.75-0.248-0.897
			c-0.165-0.147-0.521-0.238-1.069-0.27L53,11.035c-1.465-0.086-2.401-0.291-2.809-0.614c-0.406-0.323-0.609-1.017-0.609-2.081
			c0-1.087,0.246-1.812,0.736-2.173c0.49-0.361,1.47-0.542,2.938-0.542c1.393,0,2.33,0.167,2.813,0.498
			c0.484,0.332,0.726,0.98,0.726,1.944V8.422z"/>
		<path d="M59.996,5.708v9.312H58.24V5.708H59.996z"/>
		<path d="M65.277,10.066h4.074l0.025,1.849c0,1.346-0.251,2.213-0.756,2.603c-0.504,0.39-1.628,0.584-3.373,0.584
			c-1.6,0-2.66-0.261-3.179-0.777c-0.521-0.518-0.78-1.576-0.78-3.172c0-2.038,0.104-3.325,0.312-3.861
			c0.259-0.655,0.649-1.096,1.172-1.323c0.525-0.228,1.416-0.341,2.672-0.341c1.646,0,2.707,0.177,3.188,0.529
			c0.479,0.353,0.719,1.133,0.719,2.344h-1.774c-0.032-0.61-0.164-0.988-0.396-1.137c-0.233-0.147-0.816-0.221-1.755-0.221
			c-1.018,0-1.662,0.127-1.937,0.382c-0.273,0.255-0.41,0.853-0.41,1.794l-0.006,0.935l0.014,1.194c0,0.923,0.135,1.511,0.406,1.763
			s0.899,0.378,1.885,0.378c0.959,0,1.566-0.106,1.828-0.32c0.26-0.214,0.391-0.718,0.391-1.514l0.008-0.382h-2.326v-1.305
			L65.277,10.066L65.277,10.066z"/>
		<path d="M79.204,5.708v9.312h-2.976L73.583,9.91c-0.132-0.254-0.337-0.7-0.617-1.337l-0.299-0.669l-0.291-0.668h-0.067
			l0.026,0.614l0.021,0.607l0.016,1.221v5.341h-1.756V5.708h2.976l2.407,4.721c0.213,0.418,0.459,0.925,0.738,1.521l0.354,0.757
			l0.354,0.764h0.062l-0.021-0.6l-0.021-0.6l-0.014-1.201V5.708H79.204z"/>
		<path d="M87.7,8.422h-1.716c-0.01-0.086-0.014-0.15-0.014-0.19c-0.041-0.523-0.156-0.852-0.348-0.986
			c-0.188-0.134-0.639-0.201-1.342-0.201c-0.832,0-1.377,0.077-1.633,0.232c-0.256,0.155-0.383,0.48-0.383,0.976
			c0,0.587,0.104,0.939,0.313,1.058c0.207,0.118,0.896,0.209,2.062,0.273c1.379,0.077,2.271,0.275,2.676,0.593
			c0.404,0.318,0.604,0.98,0.604,1.985c0,1.237-0.235,2.036-0.712,2.396s-1.521,0.543-3.141,0.543c-1.457,0-2.422-0.179-2.897-0.531
			c-0.478-0.354-0.716-1.074-0.716-2.156l-0.006-0.341h1.708l0.007,0.198c0,0.65,0.111,1.048,0.339,1.193
			c0.228,0.146,0.845,0.219,1.853,0.219c0.787,0,1.289-0.084,1.506-0.252c0.218-0.168,0.326-0.557,0.326-1.167
			c0-0.451-0.084-0.75-0.248-0.897c-0.166-0.147-0.521-0.238-1.068-0.27l-0.969-0.062c-1.465-0.086-2.401-0.291-2.81-0.614
			c-0.405-0.323-0.608-1.017-0.608-2.081c0-1.087,0.246-1.812,0.735-2.173s1.47-0.542,2.938-0.542c1.392,0,2.328,0.167,2.813,0.498
			c0.482,0.332,0.727,0.98,0.727,1.944v0.355H87.7z"/>
	</g>
</g>
</svg>
