<?xml version="1.0" encoding="utf-8"?>
<!-- Generator: Adobe Illustrator 16.0.0, SVG Export Plug-In . SVG Version: 6.00 Build 0)  -->
<!DOCTYPE svg PUBLIC "-//W3C//DTD SVG 1.1//EN" "http://www.w3.org/Graphics/SVG/1.1/DTD/svg11.dtd">
<svg version="1.1" id="Layer_1" xmlns="http://www.w3.org/2000/svg" xmlns:xlink="http://www.w3.org/1999/xlink" x="0px" y="0px"
	 width="88px" height="229px" viewBox="0 -89.958 88 229" enable-background="new 0 -89.958 88 229" xml:space="preserve">
<polyline fill="none" stroke="#000000" stroke-width="4" stroke-miterlimit="10" points="6,-90 6,117 23,117 "/>
<polygon points="1.75,-90 1.75,-85.5 8.833,-85.5 8.833,-87 12.792,-87 12.792,-85.5 13.813,-85.5 13.813,-81.792 14.813,-81.792 
	14.813,-85.5 16.25,-85.5 16.25,-81.792 17.25,-81.792 17.25,-85.5 17.25,-87 17.25,-90 "/>
<path d="M11.5-11.833V-14H1.75V9.75h9.75V7.583H10v-1.75h1.5V4.05h-1.499V2.3H11.5V0.517H10v-1.75h1.5v-1.783H10v-1.751h1.5V-6.55
	H10V-8.3h1.5v-1.783H10v-1.75H11.5z M3.295,8.958H2.292v-22.188h1.003V8.958z"/>
<path d="M11.5,87.083V84.75H1.75v23.75h9.75v-2H9.083v-1.75H11.5v-1.783H9.084v-1.75H11.5v-1.783H9.083v-1.75H11.5V95.9H9.083
	v-1.751H11.5v-1.783H9.083v-1.75H11.5v-1.783H9.083v-1.75H11.5z M3.25,107.438H2.247v-21H3.25V107.438z"/>
<rect x="3.125" y="-57" width="7.104" height="0.333"/>
<rect x="3.125" y="-46.458" width="7.104" height="0.333"/>
<path fill="none" stroke="#000000" stroke-width="0.5" stroke-miterlimit="10" d="M3.25-87.75c0,0-4.735,17.298,1.125,20.75
	c9.125,5.375,3.116,34.527,4.059,47.125C9.583-4.5,0.222,11.862,4.25,20.417C6.873,25.987,12.5,24.25,10,41
	s-7.244,29.686,0.417,40.084c6.877,9.334,4.75,31.75,0,31.667C5.75,112.669,8.685,115.896,6,117"/>
<path d="M1.75,32.5v2.166h1.5v1.75h-1.5v1.783h1.5v1.75h-1.5v1.783h1.5v1.751h-1.5v1.783h1.5v1.75h-1.5V48.8h1.5v1.75h-1.5v1.783
	h1.5v1.75h-1.5v2.167h9.75V32.5H1.75z M9.563,55.438c-0.46,0-0.833-0.373-0.833-0.834c0-0.46,0.373-0.833,0.833-0.833
	s0.833,0.373,0.833,0.833C10.396,55.064,10.023,55.438,9.563,55.438z"/>
<path d="M88,107.783h-7.16v-3.699H23v21.799h8.88v6.941h2.3l0.021-6.951h2.3v13.211h2.33v-13.201h42v-15.799H88V107.783z"/>
<g>
	<path fill="#FFFFFF" d="M46.48,114.983v-1.37h0.299c1,0,1.601-0.05,1.801-0.17c0.199-0.119,0.33-0.449,0.33-1
		c0-0.6-0.1-1-0.28-1.13c-0.2-0.14-0.7-0.2-1.521-0.2c-0.75,0-1.219,0.07-1.42,0.221c-0.199,0.16-0.299,0.539-0.299,1.149v0.271
		H43.7v-0.351c0-1.079,0.229-1.8,0.68-2.17c0.46-0.36,1.36-0.54,2.7-0.54c1.37,0,2.3,0.18,2.8,0.52c0.5,0.351,0.761,0.98,0.761,1.9
		c0,1.301-0.5,2-1.541,2.17v0.041c1.121,0.119,1.68,0.799,1.68,2.02c0,1.1-0.25,1.82-0.739,2.199c-0.49,0.381-1.45,0.561-2.88,0.561
		c-1.4,0-2.36-0.18-2.86-0.561c-0.5-0.379-0.76-1.1-0.76-2.129v-0.521h1.72c0.02,0.22,0.02,0.34,0.02,0.38
		c0,0.641,0.101,1.04,0.33,1.2c0.221,0.149,0.761,0.229,1.631,0.229c0.8,0,1.3-0.07,1.5-0.25c0.199-0.17,0.3-0.58,0.3-1.229
		c0-0.5-0.08-0.83-0.28-0.979c-0.199-0.16-0.6-0.24-1.199-0.24h-1.08V114.983z M52.43,119.033v-9.27h4.551
		c1.299,0,2.199,0.279,2.72,0.85c0.521,0.561,0.78,1.561,0.78,2.971c0,2.319-0.201,3.799-0.631,4.459s-1.35,1-2.8,1h-4.62V119.033z
		 M54.189,117.553h2.5c0.83,0,1.381-0.199,1.621-0.579c0.25-0.399,0.369-1.25,0.369-2.57c0-1.37-0.119-2.239-0.34-2.601
		c-0.22-0.379-0.74-0.569-1.561-0.569h-2.6v6.3L54.189,117.553z"/>
</g>
</svg>
