<?xml version="1.0" encoding="utf-8"?>
<!-- Generator: Adobe Illustrator 16.0.0, SVG Export Plug-In . SVG Version: 6.00 Build 0)  -->
<!DOCTYPE svg PUBLIC "-//W3C//DTD SVG 1.1//EN" "http://www.w3.org/Graphics/SVG/1.1/DTD/svg11.dtd">
<svg version="1.1" id="Layer_1" xmlns="http://www.w3.org/2000/svg" xmlns:xlink="http://www.w3.org/1999/xlink" x="0px" y="0px"
	 width="65px" height="35px" viewBox="0 0 65 35" enable-background="new 0 0 65 35" xml:space="preserve">
<g>
	<polygon points="65,3.707 57.842,3.707 57.842,0 0,0 0,21.788 8.879,21.788 8.879,28.741 11.195,28.741 11.195,21.788 
		13.512,21.788 13.512,35 15.828,35 15.828,21.788 57.842,21.788 57.842,6.024 65,6.024 	"/>
	<g>
		<path fill="#FFFFFF" d="M23.485,10.896V9.531l0.299,0.007c0.986,0,1.587-0.059,1.802-0.177s0.322-0.451,0.322-0.999
			c0-0.611-0.096-0.988-0.288-1.13c-0.193-0.143-0.7-0.214-1.523-0.214c-0.747,0-1.217,0.078-1.412,0.234
			c-0.194,0.157-0.292,0.538-0.292,1.145v0.271h-1.696V8.322c0-1.082,0.229-1.805,0.685-2.169c0.457-0.364,1.36-0.547,2.708-0.547
			c1.357,0,2.289,0.172,2.795,0.516c0.507,0.344,0.76,0.98,0.76,1.908c0,1.281-0.514,2.001-1.54,2.16v0.047
			c1.117,0.122,1.676,0.797,1.676,2.023c0,1.091-0.247,1.825-0.74,2.201s-1.455,0.563-2.884,0.563c-1.402,0-2.356-0.188-2.86-0.563
			c-0.504-0.376-0.757-1.086-0.757-2.132l0.007-0.516h1.717c0.014,0.204,0.021,0.326,0.021,0.367c0,0.638,0.107,1.037,0.322,1.195
			c0.215,0.158,0.754,0.238,1.619,0.238c0.792,0,1.292-0.086,1.503-0.258c0.21-0.172,0.315-0.584,0.315-1.236
			c0-0.498-0.096-0.826-0.289-0.984c-0.192-0.158-0.591-0.238-1.197-0.238h-0.767H23.485z"/>
		<path fill="#FFFFFF" d="M29.43,14.95v-9.27h4.552c1.295,0,2.201,0.283,2.719,0.849c0.518,0.566,0.777,1.558,0.777,2.975
			c0,2.313-0.209,3.8-0.625,4.458s-1.354,0.988-2.816,0.988H29.43z M31.188,13.47h2.504c0.842,0,1.386-0.194,1.633-0.581
			c0.246-0.387,0.369-1.241,0.369-2.563c0-1.367-0.111-2.236-0.332-2.608c-0.223-0.371-0.742-0.557-1.561-0.557h-2.613V13.47z"/>
	</g>
</g>
</svg>
