<?xml version="1.0" encoding="utf-8"?>
<!-- Generator: Adobe Illustrator 16.0.0, SVG Export Plug-In . SVG Version: 6.00 Build 0)  -->
<!DOCTYPE svg PUBLIC "-//W3C//DTD SVG 1.1//EN" "http://www.w3.org/Graphics/SVG/1.1/DTD/svg11.dtd">
<svg version="1.1" id="Layer_1" xmlns="http://www.w3.org/2000/svg" xmlns:xlink="http://www.w3.org/1999/xlink" x="0px" y="0px"
	 width="116px" height="153px" viewBox="0 0 116 153" enable-background="new 0 0 116 153" xml:space="preserve">
<g opacity="0.4">
	<g>
		<path fill="#F6852C" d="M0,0l90.377,73.853L0,147.704V0z"/>
		<path fill="#6E6F72" d="M0.499,153H116V60.023L0.499,153z M30.967,149.617c-3.773,0-6.828-3.046-6.828-6.825
			c0-3.767,3.055-6.827,6.814-6.827s6.798,3.061,6.798,6.827c0,3.779-3.054,6.84-6.813,6.84L30.967,149.617z"/>
		<path fill="#6E6F72" d="M31.036,137.99c2.729,0,4.94,2.221,4.94,4.961c0,2.736-2.212,4.959-4.94,4.959
			c-2.727,0-4.938-2.223-4.938-4.959C26.098,140.211,28.31,137.99,31.036,137.99z"/>
	</g>
</g>
</svg>
