<?xml version="1.0" encoding="utf-8"?>
<!-- Generator: Adobe Illustrator 16.0.0, SVG Export Plug-In . SVG Version: 6.00 Build 0)  -->
<!DOCTYPE svg PUBLIC "-//W3C//DTD SVG 1.1//EN" "http://www.w3.org/Graphics/SVG/1.1/DTD/svg11.dtd">
<svg version="1.1" id="Layer_1" xmlns="http://www.w3.org/2000/svg" xmlns:xlink="http://www.w3.org/1999/xlink" x="0px" y="0px"
	 width="323px" height="220px" viewBox="0 0.229 323 220" enable-background="new 0 0.229 323 220" xml:space="preserve">
<polygon points="117.343,205.653 117.343,207.012 116.095,207.012 116.095,205.653 112.207,205.653 112.207,207.526 109.71,207.526 
	109.71,205.653 106.733,205.653 106.733,216.96 108.124,216.96 108.124,214.462 109.158,214.462 109.158,216.96 110.63,216.96 
	110.63,216.217 111.878,216.217 111.878,216.96 113.53,216.96 113.53,216.217 114.779,216.217 114.779,216.96 116.095,216.96 
	116.095,216.216 117.343,216.216 117.343,216.96 122.832,216.96 122.832,205.653 "/>
<g>
	<path fill="none" stroke="#000000" stroke-miterlimit="10" d="M115.478,23.6c0,3.54,0.388,13.98,2.708,18.15
		c4.25,7.63,12.2-3.25,12.2,10.24"/>
	<path fill="#414042" d="M119.505,19.18h7v33.8h-7V19.18z"/>
	<polygon points="258.244,214.232 258.244,213.574 255.633,213.574 255.633,211.549 253.01,211.549 253.01,209.296 255.621,209.297 
		255.621,206.667 258.23,206.667 258.23,206.008 255.621,206.008 255.621,205.653 249.886,205.653 249.626,205.653 120.315,205.653 
		120.315,216.96 249.626,216.96 249.886,216.96 255.633,216.96 255.633,216.604 258.244,216.604 258.244,215.947 255.633,215.947 
		255.633,214.232 	"/>
	<path d="M322.55,18.28c0,1.4-0.068,2.55-2.88,2.55H-0.13c0-1.92,0-1.14,0-2.55V0.58c0-1.4,0,0.1,0-0.7h322.68V18.28z"/>
	
		<linearGradient id="SVGID_1_" gradientUnits="userSpaceOnUse" x1="748.8701" y1="1381.3652" x2="1068.6797" y2="1381.3652" gradientTransform="matrix(1 0 0 1 -749 -1371)">
		<stop  offset="0" style="stop-color:#000000"/>
		<stop  offset="0" style="stop-color:#FFFFFF;stop-opacity:0"/>
		<stop  offset="0.029" style="stop-color:#F4F4F5;stop-opacity:0.029"/>
		<stop  offset="0.308" style="stop-color:#ACAEB1;stop-opacity:0.308"/>
		<stop  offset="0.555" style="stop-color:#787A7C;stop-opacity:0.555"/>
		<stop  offset="0.759" style="stop-color:#505052;stop-opacity:0.759"/>
		<stop  offset="0.913" style="stop-color:#252526;stop-opacity:0.913"/>
		<stop  offset="1" style="stop-color:#000000"/>
	</linearGradient>
	<path fill="url(#SVGID_1_)" d="M-0.12-0.1h319.8v20.93H-0.13L-0.12-0.1z"/>
	
		<linearGradient id="SVGID_2_" gradientUnits="userSpaceOnUse" x1="843.75" y1="1372.3301" x2="843.75" y2="1374.2261" gradientTransform="matrix(1 0 0 1 -749 -1371)">
		<stop  offset="0" style="stop-color:#FFFFFF;stop-opacity:0"/>
		<stop  offset="1" style="stop-color:#000000"/>
	</linearGradient>
	<path fill="url(#SVGID_2_)" d="M59.97,1.33h69.56v1.9H59.97V1.33z"/>
	<path d="M60.92,2.55c0,0.15,0.12,0.28,0.27,0.28h67.1c0.16,0,0.3-0.13,0.3-0.28c0-0.15-0.14-0.27-0.3-0.27H61.2
		C61.04,2.28,60.92,2.4,60.92,2.55C60.92,2.55,60.92,2.4,60.92,2.55z"/>
	
		<linearGradient id="SVGID_3_" gradientUnits="userSpaceOnUse" x1="843.75" y1="1376.8789" x2="843.75" y2="1378.7738" gradientTransform="matrix(1 0 0 1 -749 -1371)">
		<stop  offset="0" style="stop-color:#FFFFFF;stop-opacity:0"/>
		<stop  offset="1" style="stop-color:#000000"/>
	</linearGradient>
	<path fill="url(#SVGID_3_)" d="M59.97,5.88h69.56v1.9H59.97V5.88z"/>
	<path d="M60.92,7.1c0,0.15,0.12,0.28,0.27,0.28h67.1c0.16,0,0.3-0.13,0.3-0.28s-0.14-0.27-0.3-0.27H61.2
		C61.04,6.83,60.92,6.95,60.92,7.1C60.92,7.1,60.92,6.95,60.92,7.1z"/>
	
		<linearGradient id="SVGID_4_" gradientUnits="userSpaceOnUse" x1="843.75" y1="1381.4277" x2="843.75" y2="1383.3237" gradientTransform="matrix(1 0 0 1 -749 -1371)">
		<stop  offset="0" style="stop-color:#FFFFFF;stop-opacity:0"/>
		<stop  offset="1" style="stop-color:#000000"/>
	</linearGradient>
	<path fill="url(#SVGID_4_)" d="M59.97,10.43h69.56v1.9H59.97V10.43z"/>
	<path d="M60.92,11.65c0,0.15,0.12,0.27,0.27,0.27h67.1c0.16,0,0.3-0.12,0.3-0.27s-0.14-0.28-0.3-0.28H61.2
		C61.04,11.37,60.92,11.5,60.92,11.65C60.92,11.65,60.92,11.5,60.92,11.65z"/>
	
		<linearGradient id="SVGID_5_" gradientUnits="userSpaceOnUse" x1="843.75" y1="1385.9766" x2="843.75" y2="1387.8715" gradientTransform="matrix(1 0 0 1 -749 -1371)">
		<stop  offset="0" style="stop-color:#FFFFFF;stop-opacity:0"/>
		<stop  offset="1" style="stop-color:#000000"/>
	</linearGradient>
	<path fill="url(#SVGID_5_)" d="M59.97,14.98h69.56v1.9H59.97V14.98z"/>
	<path d="M60.92,16.2c0,0.15,0.12,0.27,0.27,0.27h67.1c0.16,0,0.3-0.12,0.3-0.27c0-0.15-0.14-0.28-0.3-0.28H61.2
		C61.04,15.92,60.92,16.05,60.92,16.2C60.92,16.2,60.92,16.05,60.92,16.2z M321.87,18.58h1.17v1.28h-1.17V18.58z M178.04,3.23
		h135.34v11.75H178.04V3.23z"/>
	
		<linearGradient id="SVGID_6_" gradientUnits="userSpaceOnUse" x1="928.2002" y1="1380.0996" x2="1061.2002" y2="1380.0996" gradientTransform="matrix(1 0 0 1 -749 -1371)">
		<stop  offset="0" style="stop-color:#000000"/>
		<stop  offset="0" style="stop-color:#202021;stop-opacity:0.993"/>
		<stop  offset="0" style="stop-color:#5C5C5F;stop-opacity:0.952"/>
		<stop  offset="0" style="stop-color:#7D7F82;stop-opacity:0.907"/>
		<stop  offset="0" style="stop-color:#9A9C9E;stop-opacity:0.858"/>
		<stop  offset="0" style="stop-color:#B4B6B8;stop-opacity:0.805"/>
		<stop  offset="0" style="stop-color:#CACCCE;stop-opacity:0.746"/>
		<stop  offset="0" style="stop-color:#DCDEDF;stop-opacity:0.68"/>
		<stop  offset="0" style="stop-color:#EBEBEC;stop-opacity:0.603"/>
		<stop  offset="0" style="stop-color:#F5F5F5;stop-opacity:0.507"/>
		<stop  offset="0" style="stop-color:#FCFCFC;stop-opacity:0.373"/>
		<stop  offset="0" style="stop-color:#FFFFFF;stop-opacity:0"/>
		<stop  offset="0.035" style="stop-color:#E3E4E5;stop-opacity:0.035"/>
		<stop  offset="0.098" style="stop-color:#BCBEC0;stop-opacity:0.098"/>
		<stop  offset="0.168" style="stop-color:#9A9C9F;stop-opacity:0.168"/>
		<stop  offset="0.241" style="stop-color:#7E8083;stop-opacity:0.241"/>
		<stop  offset="0.32" style="stop-color:#67686A;stop-opacity:0.32"/>
		<stop  offset="0.405" style="stop-color:#515254;stop-opacity:0.405"/>
		<stop  offset="0.5" style="stop-color:#3F3E40;stop-opacity:0.5"/>
		<stop  offset="0.609" style="stop-color:#232223;stop-opacity:0.609"/>
		<stop  offset="0.747" style="stop-color:#0A0A0A;stop-opacity:0.747"/>
		<stop  offset="1" style="stop-color:#000000"/>
	</linearGradient>
	<path fill="url(#SVGID_6_)" d="M179.2,4.1h133v10h-133V4.1L179.2,4.1z"/>
	<path d="M56.285,20.475h17.83v1.26h-17.83V20.475z M115.585,20.83h12.84v1.26h-12.84V20.83z M174.385,20.83h25.95v1.26h-25.95
		V20.83z M276.166,20.83h25.949v1.26h-25.949V20.83L276.166,20.83z"/>
	<path fill="none" stroke="#808285" stroke-miterlimit="10" d="M178.04,9.1"/>
	<path d="M114.595,20.83h1.75v2.93h-1.75V20.83z"/>
	<path fill="#FFFFFF" d="M40.3-0.1h15.46v23.7H40.3V-0.1z"/>
	<path fill="none" stroke="#000000" stroke-width="3" stroke-miterlimit="10" d="M127.601,84.25H0 M127.601,101.333H0
		 M68.415,19.855v50.35h59.97"/>
	<path fill="#FFFFFF" d="M132.001,206.665v9.257h-1.767v-5.06c0-0.396,0.028-0.848,0.057-1.372l0.028-0.707l0.042-0.662h-0.071
		l-0.212,0.649l-0.211,0.637c-0.184,0.563-0.326,0.988-0.424,1.27l-2.049,5.23h-1.597l-2.078-5.172
		c-0.098-0.285-0.24-0.706-0.423-1.273l-0.213-0.664l-0.211-0.636h-0.057l0.042,0.707v0.665c0.042,0.522,0.058,0.988,0.058,1.343
		v5.044h-1.739v-9.271h2.854l1.653,4.297c0.099,0.282,0.255,0.707,0.425,1.271l0.212,0.649l0.212,0.638h0.07l0.183-0.651
		l0.212-0.651c0.17-0.536,0.312-0.961,0.425-1.271l1.639-4.296h2.912L132.001,206.665z M139.577,206.665h1.767v6.161
		c0,1.272-0.255,2.149-0.749,2.544c-0.495,0.426-1.512,0.637-3.04,0.637c-1.625,0-2.685-0.197-3.18-0.594
		c-0.508-0.382-0.763-1.217-0.763-2.486v-6.262h1.781v6.262c0,0.677,0.113,1.131,0.367,1.301c0.241,0.168,0.806,0.254,1.725,0.254
		c0.919,0,1.498-0.086,1.738-0.285c0.24-0.168,0.354-0.62,0.354-1.354v-6.191L139.577,206.665L139.577,206.665z M142.955,215.936
		v-9.271h4.593c1.131,0,1.908,0.197,2.347,0.592c0.423,0.398,0.65,1.105,0.65,2.12c0,0.962-0.099,1.599-0.325,1.938
		c-0.211,0.338-0.65,0.563-1.314,0.706v0.069c1.032,0.057,1.555,0.667,1.555,1.795v2.036h-1.767v-1.695
		c0-0.963-0.48-1.414-1.414-1.414h-2.543v3.109h-1.738L142.955,215.936z M144.735,211.329h2.515c0.608,0,0.99-0.113,1.203-0.326
		c0.183-0.197,0.282-0.635,0.282-1.271c0-0.663-0.085-1.088-0.254-1.271c-0.169-0.196-0.538-0.283-1.131-0.283h-2.629v3.166
		L144.735,211.329z M157.526,214.156h-4l-0.594,1.766h-1.838l3.066-9.271h2.63l3.137,9.258h-1.837l-0.565-1.78L157.526,214.156
		L157.526,214.156z M157.102,212.855l-1.582-4.806l-1.585,4.806h3.182H157.102z M160.748,215.936v-9.271h4.523
		c1.313,0,2.219,0.284,2.726,0.848c0.524,0.564,0.778,1.555,0.778,2.969c0,2.317-0.197,3.814-0.621,4.464
		c-0.426,0.651-1.357,0.99-2.826,0.99h-4.594H160.748L160.748,215.936z M162.485,214.452h2.517c0.848,0,1.413-0.196,1.639-0.566
		c0.24-0.396,0.366-1.271,0.366-2.57c0-1.372-0.112-2.233-0.323-2.616c-0.241-0.366-0.765-0.563-1.585-0.563H162.5v6.316H162.485z
		 M182.132,206.665v9.257h-2.97l-2.655-5.088c-0.142-0.256-0.34-0.706-0.608-1.328l-0.281-0.665l-0.313-0.679h-0.07l0.027,0.607
		v0.607l0.028,1.201v5.313h-1.766v-9.27h2.967l2.404,4.693c0.225,0.421,0.478,0.918,0.763,1.511l0.337,0.75l0.354,0.763h0.043
		v-0.593l-0.043-0.595v-6.473h1.738L182.132,206.665z M189.367,214.156h-4l-0.566,1.766h-1.864l3.083-9.271h2.641l3.109,9.258h-1.81
		l-0.593-1.78V214.156z M188.941,212.855l-1.582-4.806l-1.555,4.806h3.152H188.941z M192.589,215.936v-9.271h4.552
		c1.06,0,1.796,0.171,2.177,0.508c0.366,0.34,0.564,0.989,0.564,1.937c0,1.133-0.452,1.809-1.356,2.022v0.027
		c1.061,0.17,1.582,0.904,1.582,2.22c0,0.917-0.197,1.583-0.607,1.978c-0.424,0.368-1.131,0.565-2.118,0.565h-4.806L192.589,215.936
		z M194.341,210.566h2.147c0.681,0,1.132-0.085,1.315-0.242c0.198-0.141,0.283-0.508,0.283-1.06c0-0.748-0.424-1.129-1.243-1.129
		h-2.517v2.4L194.341,210.566z M194.341,214.452h2.545c0.593,0,0.989-0.099,1.172-0.283c0.184-0.141,0.284-0.508,0.284-1.045
		c0-0.566-0.101-0.904-0.284-1.047c-0.21-0.141-0.705-0.212-1.468-0.212h-2.263v2.616L194.341,214.452z M203.146,206.665v9.257
		h-1.752v-9.272h1.752V206.665z M206.368,208.162v2.374h4.34v1.302h-4.34v2.614h4.622v1.483h-6.359v-9.271h6.317v1.497H206.368
		L206.368,208.162z M218.227,206.665h1.865l-3.01,9.257h-2.686l-2.968-9.272h1.837l1.726,5.229c0.141,0.523,0.396,1.357,0.706,2.543
		h0.058l0.168-0.633c0.213-0.807,0.425-1.415,0.565-1.91l1.695-5.229L218.227,206.665z M229.93,214.156h-4l-0.566,1.766H223.5
		l3.077-9.271h2.646l3.106,9.258h-1.807l-0.594-1.78V214.156z M229.504,212.855l-1.583-4.806l-1.554,4.806h3.149H229.504z
		 M233.15,215.936v-9.271h4.564c1.131,0,1.908,0.197,2.347,0.592c0.423,0.398,0.634,1.105,0.634,2.12
		c0,0.962-0.099,1.599-0.324,1.938c-0.21,0.338-0.649,0.563-1.315,0.706v0.069c1.048,0.057,1.558,0.667,1.558,1.795v2.036h-1.752
		v-1.695c0-0.963-0.483-1.414-1.414-1.414h-2.546v3.109h-1.738L233.15,215.936z M234.901,211.329h2.546
		c0.565,0,0.989-0.113,1.173-0.326c0.196-0.197,0.284-0.635,0.284-1.271c0-0.663-0.071-1.088-0.243-1.271
		c-0.169-0.196-0.536-0.283-1.131-0.283h-2.629v3.166V211.329z M245.799,208.249v7.673h-1.767v-7.688h-2.684v-1.555h7.206v1.555
		h-2.77L245.799,208.249z"/>
	<rect x="120.932" y="25.145" width="4" height="23.87"/>
	<g>
		<path fill="#414042" d="M121.247,27.825h3.37v0.9h-3.37V27.825z M121.247,30.045h3.37v0.9h-3.37V30.045z M121.247,32.265h3.37v0.9
			h-3.37V32.265z M121.247,34.495h3.37v0.9h-3.37V34.495z M121.247,36.715h3.37v0.9h-3.37V36.715z M121.247,38.935h3.37v0.9h-3.37
			V38.935z M121.247,41.155h3.37v0.9h-3.37V41.155z M121.247,43.375h3.37v0.9h-3.37V43.375z M121.247,45.595h3.37v0.9h-3.37V45.595z
			 M121.247,47.825h3.37v0.9h-3.37V47.825z"/>
	</g>
</g>
<rect x="64.545" y="99.083" width="3.62" height="4.5"/>
<rect x="70.835" y="99.083" width="3.63" height="4.5"/>
<polygon points="90.155,99.083 93.775,99.083 93.775,103.583 90.145,103.583 "/>
<rect x="94.495" y="81.84" width="3.62" height="4.5"/>
<rect x="68.165" y="81.84" width="3.63" height="4.5"/>
<rect x="76.92" y="68.045" width="3.62" height="4.5"/>
<rect x="120.83" y="191.464" width="1.467" height="14.513"/>
<rect x="126.133" y="191.464" width="1.467" height="14.513"/>
<rect x="119.791" y="185.167" width="2.188" height="2.396"/>
<rect x="120.321" y="190.75" width="2.188" height="1.875"/>
<rect x="129.082" y="49.833" width="2.417" height="1.796"/>
<g>
	<path d="M137.498,51.864V50.89h-26.25v0.974h-0.098v11.067h-2.799v8.28h2.799v2.014h17.13v2.434h-17.13v13.669h-2.799v8.281h2.799
		v8.608h17.13v2.433h-17.13v10.49h-2.799v8.281h2.799v1.179h6.185v2.065h-6.185v1.191h6.185v2.065h-6.185v1.192h6.185v2.065h-6.185
		v1.191h6.185v2.064h-6.185v1.192h6.185v2.064h-6.185v1.193h6.185v2.064h-6.185v1.191h6.185v2.066h-6.185v1.191h6.185v2.064h-6.185
		v1.193h6.185v2.064h-6.185v1.191h6.185v2.065h-6.185v1.243h9.761v7.535h3.219v2.433h-3.219v10.033h4.04v2.422h-4.04v5.819h-1.661
		v4.369h18.34V51.864H137.498z M116.345,59.625c-2.103,0-3.807-1.407-3.807-3.144c0-1.736,1.705-3.144,3.807-3.144
		s3.807,1.408,3.807,3.144C120.152,58.218,118.448,59.625,116.345,59.625z"/>
</g>
<rect x="111.833" y="53.833" width="13.099" height="7.833"/>
<rect x="108.346" y="50.89" display="none" fill="none" stroke="#231F20" stroke-miterlimit="10" width="200" height="170"/>
<g opacity="0.7">
	<g>
		<path opacity="0.4" fill="#F5852D" d="M139.997,51.903l88.647,72.5l-88.647,72.499V51.903z"/>
		<path opacity="0.4" fill="#6D6E71" d="M140.486,202.102h113.292v-91.274L140.486,202.102z M170.372,198.781
			c-3.702,0-6.698-2.99-6.698-6.7c0-3.698,2.996-6.702,6.684-6.702c3.688,0,6.668,3.004,6.668,6.702c0,3.71-2.995,6.714-6.683,6.714
			L170.372,198.781z"/>
		<ellipse opacity="0.4" fill="#6D6E71" cx="170.438" cy="192.235" rx="4.846" ry="4.869"/>
	</g>
</g>
</svg>
