<?xml version="1.0" encoding="utf-8"?>
<!-- Generator: Adobe Illustrator 16.0.0, SVG Export Plug-In . SVG Version: 6.00 Build 0)  -->
<!DOCTYPE svg PUBLIC "-//W3C//DTD SVG 1.1//EN" "http://www.w3.org/Graphics/SVG/1.1/DTD/svg11.dtd">
<svg version="1.1" id="Layer_1" xmlns="http://www.w3.org/2000/svg" xmlns:xlink="http://www.w3.org/1999/xlink" x="0px" y="0px"
	 width="339px" height="169px" viewBox="0 0.125 339 169" enable-background="new 0 0.125 339 169" xml:space="preserve">
<g id="Layer_1_1_">
</g>
<g id="Layer_2">
	<g>
		<rect x="95.416" y="19.183" fill="#414042" width="7" height="33.802"/>
		<path fill="none" stroke="#000000" stroke-miterlimit="10" d="M233.223,20.83c2.25,17.625,5.988,75.213-8.147,74.044"/>
		<path fill="none" stroke="#000000" stroke-miterlimit="10" d="M95.416,22.09c0,3.546-3.64,15.489-1.313,19.664
			c4.25,7.625,12.188-3.25,12.188,10.231"/>
		<rect x="96.916" y="28.129" width="4" height="23.856"/>
		<g>
			<g>
				<polyline points="126.91,50.374 126.91,52.725 89.458,52.725 89.458,50.374 				"/>
			</g>
			<g>
				<rect x="115.882" y="52.386" opacity="0.1" fill="#58595B" enable-background="new    " width="99.886" height="107.882"/>
				<polygon points="218.327,87.378 218.327,62.121 220.561,62.121 220.561,55.788 218.327,55.788 218.327,52.386 213.208,52.386 
					213.208,160.945 218.327,160.945 218.327,157.563 220.561,157.563 220.561,151.23 218.327,151.23 218.327,134.773 
					220.561,134.773 220.561,128.439 218.327,128.439 218.327,108.99 216.094,108.99 216.094,87.378 				"/>
				<g>
					<rect x="213.208" y="159.589" width="0.683" height="1.356"/>
				</g>
				<rect x="213.208" y="45.117" width="5.119" height="7.269"/>
			</g>
		</g>
		<g>
			<rect x="97.197" y="30.728" fill="#414042" width="3.375" height="0.901"/>
			<rect x="97.197" y="32.95" fill="#414042" width="3.375" height="0.901"/>
			<rect x="97.197" y="35.172" fill="#414042" width="3.375" height="0.901"/>
			<rect x="97.196" y="37.394" fill="#414042" width="3.375" height="0.902"/>
			<rect x="97.197" y="39.616" fill="#414042" width="3.375" height="0.901"/>
			<rect x="97.197" y="41.839" fill="#414042" width="3.375" height="0.901"/>
			<rect x="97.196" y="44.061" fill="#414042" width="3.375" height="0.902"/>
			<rect x="97.197" y="46.283" fill="#414042" width="3.375" height="0.901"/>
			<rect x="97.197" y="48.505" fill="#414042" width="3.375" height="0.901"/>
			<rect x="97.197" y="50.728" fill="#414042" width="3.375" height="0.901"/>
		</g>
		<path fill="none" stroke="#000000" stroke-miterlimit="10" d="M233.223,20.83c0.113,4.801,5.988,75.213-8.147,74.044
			c-9.427-0.78-1.083-21.477-8.999-21.977"/>
		<path fill="none" stroke="#000000" stroke-miterlimit="10" d="M225.075,94.874c-9.427-0.78,1.042-27.548-6.874-28.048"/>
		<path fill="none" stroke="#000000" stroke-miterlimit="10" d="M225.075,94.874c-9.427-0.78,4.25-35.034-6.874-35.034"/>
	</g>
	<path d="M322.545,18.279c0,1.409-0.064,2.551-2.875,2.551H-0.122c0-1.915,0-1.142,0-2.551V0.594c0-1.409,0,0.078,0-0.701h317.581
		h5.087L322.545,18.279L322.545,18.279z"/>
	
		<linearGradient id="SVGID_1_" gradientUnits="userSpaceOnUse" x1="280.8779" y1="-213.3623" x2="600.6709" y2="-213.3623" gradientTransform="matrix(1 0 0 -1 -281 -203)">
		<stop  offset="0" style="stop-color:#000000"/>
		<stop  offset="0" style="stop-color:#FFFFFF;stop-opacity:0"/>
		<stop  offset="0.0291" style="stop-color:#F4F4F5;stop-opacity:0.0291"/>
		<stop  offset="0.3083" style="stop-color:#ACAEB1;stop-opacity:0.3083"/>
		<stop  offset="0.5546" style="stop-color:#787A7C;stop-opacity:0.5546"/>
		<stop  offset="0.7587" style="stop-color:#505052;stop-opacity:0.7587"/>
		<stop  offset="0.9132" style="stop-color:#252526;stop-opacity:0.9132"/>
		<stop  offset="1" style="stop-color:#000000"/>
	</linearGradient>
	<rect x="-0.122" y="-0.106" fill="url(#SVGID_1_)" width="319.793" height="20.937"/>
	<g>
		<g>
			
				<linearGradient id="SVGID_2_" gradientUnits="userSpaceOnUse" x1="375.7539" y1="-204.3311" x2="375.7539" y2="-206.2261" gradientTransform="matrix(1 0 0 -1 -281 -203)">
				<stop  offset="0" style="stop-color:#FFFFFF;stop-opacity:0"/>
				<stop  offset="1" style="stop-color:#000000"/>
			</linearGradient>
			<rect x="59.972" y="1.331" fill="url(#SVGID_2_)" width="69.563" height="1.895"/>
			<g>
				<path d="M60.919,2.552c0,0.151,0.123,0.274,0.274,0.274h67.119c0.151,0,0.274-0.123,0.274-0.274
					c0-0.151-0.123-0.274-0.274-0.274H61.193C61.042,2.278,60.919,2.401,60.919,2.552C60.919,2.552,60.919,2.401,60.919,2.552z"/>
			</g>
		</g>
		<g>
			
				<linearGradient id="SVGID_3_" gradientUnits="userSpaceOnUse" x1="375.7539" y1="-208.8789" x2="375.7539" y2="-210.7749" gradientTransform="matrix(1 0 0 -1 -281 -203)">
				<stop  offset="0" style="stop-color:#FFFFFF;stop-opacity:0"/>
				<stop  offset="1" style="stop-color:#000000"/>
			</linearGradient>
			<rect x="59.972" y="5.879" fill="url(#SVGID_3_)" width="69.563" height="1.896"/>
			<g>
				<path d="M60.919,7.101c0,0.151,0.123,0.274,0.274,0.274h67.119c0.151,0,0.274-0.123,0.274-0.274s-0.123-0.274-0.274-0.274
					H61.193C61.042,6.827,60.919,6.949,60.919,7.101C60.919,7.101,60.919,6.949,60.919,7.101z"/>
			</g>
		</g>
		<g>
			
				<linearGradient id="SVGID_4_" gradientUnits="userSpaceOnUse" x1="375.7539" y1="-213.4282" x2="375.7539" y2="-215.3242" gradientTransform="matrix(1 0 0 -1 -281 -203)">
				<stop  offset="0" style="stop-color:#FFFFFF;stop-opacity:0"/>
				<stop  offset="1" style="stop-color:#000000"/>
			</linearGradient>
			<rect x="59.972" y="10.428" fill="url(#SVGID_4_)" width="69.563" height="1.896"/>
			<g>
				<path d="M60.92,11.649c0,0.151,0.123,0.274,0.274,0.274h67.119c0.151,0,0.274-0.123,0.274-0.274s-0.123-0.274-0.274-0.274
					H61.194C61.042,11.375,60.92,11.498,60.92,11.649C60.92,11.649,60.92,11.498,60.92,11.649z"/>
			</g>
		</g>
		<g>
			
				<linearGradient id="SVGID_5_" gradientUnits="userSpaceOnUse" x1="375.7539" y1="-217.9761" x2="375.7539" y2="-219.8711" gradientTransform="matrix(1 0 0 -1 -281 -203)">
				<stop  offset="0" style="stop-color:#FFFFFF;stop-opacity:0"/>
				<stop  offset="1" style="stop-color:#000000"/>
			</linearGradient>
			<rect x="59.972" y="14.976" fill="url(#SVGID_5_)" width="69.563" height="1.895"/>
			<g>
				<path d="M60.919,16.197c0,0.151,0.123,0.274,0.274,0.274h67.119c0.151,0,0.274-0.123,0.274-0.274
					c0-0.151-0.123-0.273-0.274-0.273H61.193C61.042,15.924,60.919,16.046,60.919,16.197C60.919,16.197,60.919,16.046,60.919,16.197
					z"/>
			</g>
		</g>
	</g>
	<rect x="321.874" y="18.583" width="1.166" height="1.281"/>
	<rect x="178.044" y="3.226" width="135.333" height="11.75"/>
	
		<linearGradient id="SVGID_6_" gradientUnits="userSpaceOnUse" x1="460.2109" y1="-212.1011" x2="593.2109" y2="-212.1011" gradientTransform="matrix(1 0 0 -1 -281 -203)">
		<stop  offset="0" style="stop-color:#000000"/>
		<stop  offset="0" style="stop-color:#202021;stop-opacity:0.9926"/>
		<stop  offset="0" style="stop-color:#5C5C5F;stop-opacity:0.9523"/>
		<stop  offset="0" style="stop-color:#7D7F82;stop-opacity:0.9069"/>
		<stop  offset="0" style="stop-color:#9A9C9E;stop-opacity:0.8581"/>
		<stop  offset="0" style="stop-color:#B4B6B8;stop-opacity:0.805"/>
		<stop  offset="0" style="stop-color:#CACCCE;stop-opacity:0.7463"/>
		<stop  offset="0" style="stop-color:#DCDEDF;stop-opacity:0.68"/>
		<stop  offset="0" style="stop-color:#EBEBEC;stop-opacity:0.6026"/>
		<stop  offset="0" style="stop-color:#F5F5F5;stop-opacity:0.5069"/>
		<stop  offset="0" style="stop-color:#FCFCFC;stop-opacity:0.3726"/>
		<stop  offset="0" style="stop-color:#FFFFFF;stop-opacity:0"/>
		<stop  offset="0.0348" style="stop-color:#E3E4E5;stop-opacity:0.0348"/>
		<stop  offset="0.0984" style="stop-color:#BCBEC0;stop-opacity:0.0984"/>
		<stop  offset="0.1677" style="stop-color:#9A9C9F;stop-opacity:0.1677"/>
		<stop  offset="0.241" style="stop-color:#7E8083;stop-opacity:0.241"/>
		<stop  offset="0.3196" style="stop-color:#67686A;stop-opacity:0.3196"/>
		<stop  offset="0.405" style="stop-color:#515254;stop-opacity:0.405"/>
		<stop  offset="0.4998" style="stop-color:#3F3E40;stop-opacity:0.4998"/>
		<stop  offset="0.6093" style="stop-color:#232223;stop-opacity:0.6093"/>
		<stop  offset="0.7466" style="stop-color:#0A0A0A;stop-opacity:0.7466"/>
		<stop  offset="1" style="stop-color:#000000"/>
	</linearGradient>
	<rect x="179.211" y="4.101" fill="url(#SVGID_6_)" width="133" height="10"/>
	<rect x="9.128" y="20.83" width="17.833" height="1.26"/>
	<rect x="91.503" y="20.83" width="12.833" height="1.26"/>
	<rect x="150.298" y="20.83" width="25.955" height="1.26"/>
	<rect x="252.077" y="20.83" width="25.955" height="1.26"/>
	<path fill="none" stroke="#808285" stroke-miterlimit="10" d="M312.878,9.101"/>
	<path fill="none" stroke="#808285" stroke-miterlimit="10" d="M178.044,9.101"/>
	<rect x="35.628" y="20.83" width="2.261" height="2.927"/>
	<rect x="58.176" y="20.83" width="1.753" height="2.927"/>
	<rect x="40.307" y="-0.106" fill="#FFFFFF" width="15.451" height="23.696"/>
	<polygon points="89.445,52.386 89.445,60.86 86.628,60.86 86.628,67.193 89.445,67.193 89.445,68.744 106.572,68.744 
		106.572,70.603 89.445,70.603 89.445,81.045 86.628,81.045 86.628,87.378 89.445,87.378 89.445,93.962 106.572,93.962 
		106.572,95.82 89.445,95.82 89.445,103.835 86.628,103.835 86.628,110.168 89.445,110.168 89.445,135.993 99.196,135.993 
		99.196,141.757 102.416,141.757 102.416,143.616 99.196,143.616 99.196,151.295 103.238,151.295 103.238,153.154 99.196,153.154 
		99.196,157.604 97.545,157.604 97.545,160.945 115.882,160.945 115.882,52.386 	"/>
	<line fill="none" stroke="#000000" stroke-width="3" stroke-miterlimit="10" x1="86.628" y1="84.09" x2="-0.122" y2="84.09"/>
	<line fill="none" stroke="#000000" stroke-width="3" stroke-miterlimit="10" x1="86.628" y1="106.666" x2="-0.122" y2="106.666"/>
	<polyline fill="none" stroke="#000000" stroke-width="3" stroke-miterlimit="10" points="18.045,21.46 18.045,64.423 
		86.628,64.423 	"/>
	<rect x="8.128" y="104.34" width="3.625" height="4.5"/>
	<rect x="14.42" y="104.34" width="3.625" height="4.5"/>
	<rect x="63.545" y="104.34" width="3.625" height="4.5"/>
	<rect x="38.076" y="81.84" width="3.625" height="4.5"/>
	<rect x="11.753" y="81.84" width="3.625" height="4.5"/>
	<rect x="19.378" y="62.173" width="3.625" height="4.5"/>
	<g>
		<path d="M104.857,161.941v6.553h-1.244v-3.569c0-0.286,0.008-0.609,0.024-0.972l0.024-0.49l0.024-0.483h-0.039l-0.149,0.455
			l-0.145,0.454c-0.133,0.409-0.237,0.713-0.311,0.909l-1.44,3.695h-1.132l-1.455-3.667c-0.08-0.202-0.186-0.505-0.317-0.907
			l-0.148-0.456l-0.149-0.45h-0.038l0.024,0.475l0.023,0.479c0.02,0.371,0.029,0.69,0.029,0.955v3.571h-1.244v-6.552h2.026
			l1.171,3.035c0.08,0.209,0.186,0.513,0.317,0.904l0.144,0.456l0.149,0.451h0.044l0.139-0.451l0.144-0.451
			c0.119-0.38,0.221-0.681,0.308-0.902l1.152-3.042H104.857L104.857,161.941z"/>
		<path d="M110.225,161.941h1.243v4.361c0,0.91-0.176,1.514-0.526,1.808c-0.351,0.295-1.067,0.443-2.148,0.443
			c-1.142,0-1.891-0.141-2.247-0.42c-0.355-0.277-0.533-0.865-0.533-1.761v-4.432h1.242v4.432c0,0.482,0.087,0.788,0.26,0.918
			c0.173,0.131,0.578,0.194,1.219,0.194c0.656,0,1.068-0.064,1.236-0.197c0.167-0.13,0.251-0.45,0.251-0.964v-4.383H110.225z"/>
		<path d="M112.615,168.494v-6.553h3.23c0.804,0,1.357,0.14,1.662,0.419c0.304,0.278,0.456,0.781,0.456,1.512
			c0,0.663-0.076,1.116-0.229,1.359c-0.153,0.244-0.463,0.411-0.934,0.504v0.042c0.727,0.047,1.09,0.469,1.09,1.272v1.444h-1.243
			v-1.193c0-0.676-0.333-1.015-0.998-1.015h-1.79v2.209L112.615,168.494L112.615,168.494z M113.858,165.24h1.786
			c0.425,0,0.708-0.077,0.847-0.229s0.209-0.457,0.209-0.913c0-0.469-0.061-0.77-0.181-0.905c-0.12-0.137-0.384-0.204-0.79-0.204
			h-1.872V165.24L113.858,165.24z"/>
		<path d="M122.917,167.236h-2.829l-0.408,1.258h-1.315l2.18-6.553h1.867l2.212,6.553h-1.291L122.917,167.236z M122.628,166.321
			l-1.132-3.413l-1.113,3.413H122.628z"/>
		<path d="M125.191,168.494v-6.553h3.221c0.915,0,1.557,0.202,1.922,0.601c0.367,0.4,0.55,1.101,0.55,2.103
			c0,1.636-0.147,2.686-0.441,3.152c-0.294,0.466-0.959,0.697-1.993,0.697H125.191z M126.435,167.449h1.771
			c0.596,0,0.98-0.136,1.155-0.409c0.174-0.274,0.263-0.879,0.263-1.813c0-0.968-0.08-1.582-0.236-1.843
			c-0.156-0.263-0.525-0.395-1.104-0.395h-1.848V167.449L126.435,167.449z"/>
		<path d="M140.333,161.941v6.553h-2.108l-1.872-3.595c-0.093-0.18-0.238-0.493-0.437-0.941l-0.21-0.471l-0.207-0.47h-0.048
			l0.019,0.432l0.014,0.428l0.011,0.857v3.76h-1.244v-6.553h2.107l1.705,3.323c0.15,0.293,0.325,0.65,0.524,1.07l0.25,0.532
			l0.25,0.537h0.043l-0.015-0.422l-0.014-0.421l-0.009-0.846v-3.771h1.242V161.941z"/>
		<path d="M145.45,167.236h-2.827l-0.408,1.258h-1.315l2.18-6.553h1.867l2.212,6.553h-1.291L145.45,167.236z M145.161,166.321
			l-1.132-3.413l-1.113,3.413H145.161z"/>
		<path d="M147.726,168.494v-6.553h3.221c0.756,0,1.27,0.121,1.544,0.362c0.273,0.241,0.41,0.698,0.41,1.366
			c0,0.81-0.321,1.286-0.964,1.43v0.024c0.748,0.116,1.124,0.635,1.124,1.562c0,0.667-0.144,1.138-0.433,1.406
			c-0.288,0.27-0.79,0.402-1.507,0.402H147.726z M148.968,164.694h1.522c0.492,0,0.808-0.055,0.943-0.163
			c0.136-0.108,0.205-0.36,0.205-0.756c0-0.525-0.298-0.786-0.893-0.786h-1.777V164.694L148.968,164.694z M148.968,167.449h1.363
			l0.437-0.011c0.42,0,0.696-0.059,0.828-0.177s0.2-0.37,0.2-0.75c0-0.396-0.07-0.646-0.209-0.748
			c-0.139-0.103-0.482-0.154-1.029-0.154h-1.589V167.449z"/>
		<path d="M155.204,161.941v6.553h-1.243v-6.553H155.204z"/>
		<path d="M157.48,162.989v1.688h3.072v0.918h-3.072v1.854h3.269v1.046h-4.512v-6.551h4.483v1.045H157.48L157.48,162.989z"/>
		<path d="M165.872,161.941h1.315l-2.113,6.553h-1.911l-2.093-6.553h1.29l1.229,3.71c0.116,0.356,0.287,0.95,0.514,1.786h0.033
			l0.125-0.447c0.153-0.556,0.285-1.001,0.394-1.335L165.872,161.941z"/>
		<path d="M174.152,167.236h-2.828l-0.407,1.258h-1.315l2.179-6.553h1.868l2.212,6.553h-1.291L174.152,167.236z M173.864,166.321
			l-1.132-3.413l-1.115,3.413H173.864z"/>
		<path d="M176.428,168.494v-6.553h3.23c0.805,0,1.357,0.14,1.66,0.419c0.306,0.278,0.456,0.781,0.456,1.512
			c0,0.663-0.076,1.116-0.228,1.359c-0.153,0.244-0.464,0.411-0.935,0.504v0.042c0.728,0.047,1.09,0.469,1.09,1.272v1.444h-1.244
			v-1.193c0-0.676-0.332-1.015-0.998-1.015h-1.79v2.209L176.428,168.494L176.428,168.494z M177.67,165.24h1.786
			c0.426,0,0.709-0.077,0.847-0.229c0.14-0.151,0.21-0.457,0.21-0.913c0-0.469-0.061-0.77-0.18-0.905
			c-0.121-0.137-0.385-0.204-0.79-0.204h-1.87v2.251H177.67z"/>
		<path d="M185.375,163.057v5.438h-1.243v-5.438h-1.891v-1.112h5.093v1.112H185.375z"/>
	</g>
</g>
</svg>
