<?xml version="1.0" encoding="utf-8"?>
<!-- Generator: Adobe Illustrator 16.0.0, SVG Export Plug-In . SVG Version: 6.00 Build 0)  -->
<!DOCTYPE svg PUBLIC "-//W3C//DTD SVG 1.1//EN" "http://www.w3.org/Graphics/SVG/1.1/DTD/svg11.dtd">
<svg version="1.1" xmlns="http://www.w3.org/2000/svg" xmlns:xlink="http://www.w3.org/1999/xlink" x="0px" y="0px" width="339px"
	 height="167px" viewBox="0 0 339 167" enable-background="new 0 0 339 167" xml:space="preserve">
<g id="Layer_1">
</g>
<g id="Layer_2">
	<g>
		<rect x="95.416" y="19.183" fill="#414042" width="7" height="33.802"/>
		<path fill="none" stroke="#000000" stroke-miterlimit="10" d="M233.223,20.83c2.25,17.625,5.988,75.213-8.148,74.044"/>
		<path fill="none" stroke="#000000" stroke-miterlimit="10" d="M95.416,22.09c0,3.546-3.64,15.489-1.313,19.664
			c4.25,7.625,12.188-3.25,12.188,10.231"/>
		<rect x="96.916" y="28.129" width="4" height="23.856"/>
		<g>
			<g>
				<polyline points="126.91,50.374 126.91,52.725 89.458,52.725 89.458,50.374 				"/>
			</g>
			<g>
				<rect x="115.882" y="52.386" opacity="0.1" fill="#58595B" width="99.886" height="107.882"/>
				<polygon points="218.327,87.378 218.327,62.121 220.56,62.121 220.56,55.788 218.327,55.788 218.327,52.386 213.208,52.386 
					213.208,160.945 218.327,160.945 218.327,157.563 220.56,157.563 220.56,151.23 218.327,151.23 218.327,134.773 220.56,134.773 
					220.56,128.44 218.327,128.44 218.327,108.99 216.094,108.99 216.094,87.378 				"/>
				<g>
					<rect x="213.208" y="159.589" width="0.683" height="1.357"/>
				</g>
				<rect x="213.208" y="45.117" width="5.119" height="7.269"/>
			</g>
		</g>
		<g>
			<rect x="97.197" y="30.728" fill="#414042" width="3.375" height="0.901"/>
			<rect x="97.197" y="32.95" fill="#414042" width="3.375" height="0.901"/>
			<rect x="97.197" y="35.172" fill="#414042" width="3.375" height="0.901"/>
			<rect x="97.196" y="37.394" fill="#414042" width="3.375" height="0.902"/>
			<rect x="97.197" y="39.616" fill="#414042" width="3.375" height="0.901"/>
			<rect x="97.197" y="41.839" fill="#414042" width="3.375" height="0.901"/>
			<rect x="97.196" y="44.061" fill="#414042" width="3.375" height="0.902"/>
			<rect x="97.197" y="46.283" fill="#414042" width="3.375" height="0.901"/>
			<rect x="97.197" y="48.505" fill="#414042" width="3.375" height="0.901"/>
			<rect x="97.197" y="50.728" fill="#414042" width="3.375" height="0.901"/>
		</g>
		<path fill="none" stroke="#000000" stroke-miterlimit="10" d="M233.223,20.83c0.113,4.801,5.988,75.213-8.148,74.044
			c-9.426-0.78-1.083-21.477-8.999-21.977"/>
		<path fill="none" stroke="#000000" stroke-miterlimit="10" d="M225.075,94.874c-9.426-0.78,1.042-27.548-6.874-28.048"/>
		<path fill="none" stroke="#000000" stroke-miterlimit="10" d="M225.075,94.874c-9.426-0.78,4.25-35.034-6.874-35.034"/>
	</g>
	<path d="M322.545,18.279c0,1.409-0.065,2.551-2.875,2.551H-0.122c0-1.915,0-1.142,0-2.551V0.594c0-1.409,0,0.078,0-0.701l317.581,0
		h5.087V18.279z"/>
	<linearGradient id="SVGID_1_" gradientUnits="userSpaceOnUse" x1="-0.1221" y1="10.3618" x2="319.6709" y2="10.3618">
		<stop  offset="0" style="stop-color:#000000"/>
		<stop  offset="0" style="stop-color:#FFFFFF;stop-opacity:0"/>
		<stop  offset="0.0291" style="stop-color:#F4F4F5;stop-opacity:0.0291"/>
		<stop  offset="0.3083" style="stop-color:#ACAEB1;stop-opacity:0.3083"/>
		<stop  offset="0.5546" style="stop-color:#787A7C;stop-opacity:0.5546"/>
		<stop  offset="0.7587" style="stop-color:#505052;stop-opacity:0.7587"/>
		<stop  offset="0.9132" style="stop-color:#252526;stop-opacity:0.9132"/>
		<stop  offset="1" style="stop-color:#000000"/>
	</linearGradient>
	<rect x="-0.122" y="-0.106" fill="url(#SVGID_1_)" width="319.793" height="20.937"/>
	<g>
		<g>
			<linearGradient id="SVGID_2_" gradientUnits="userSpaceOnUse" x1="94.7529" y1="1.3311" x2="94.7529" y2="3.2261">
				<stop  offset="0" style="stop-color:#FFFFFF;stop-opacity:0"/>
				<stop  offset="1" style="stop-color:#000000"/>
			</linearGradient>
			<rect x="59.972" y="1.331" fill="url(#SVGID_2_)" width="69.563" height="1.895"/>
			<g>
				<path d="M60.919,2.552c0,0.151,0.123,0.274,0.274,0.274h67.119c0.151,0,0.274-0.123,0.274-0.274s-0.123-0.274-0.274-0.274
					H61.193C61.042,2.278,60.919,2.401,60.919,2.552C60.919,2.552,60.919,2.401,60.919,2.552z"/>
			</g>
		</g>
		<g>
			<linearGradient id="SVGID_3_" gradientUnits="userSpaceOnUse" x1="94.7529" y1="5.8789" x2="94.7529" y2="7.7744">
				<stop  offset="0" style="stop-color:#FFFFFF;stop-opacity:0"/>
				<stop  offset="1" style="stop-color:#000000"/>
			</linearGradient>
			<rect x="59.972" y="5.879" fill="url(#SVGID_3_)" width="69.563" height="1.896"/>
			<g>
				<path d="M60.919,7.101c0,0.151,0.123,0.274,0.274,0.274h67.119c0.151,0,0.274-0.123,0.274-0.274s-0.123-0.274-0.274-0.274
					H61.193C61.042,6.827,60.919,6.949,60.919,7.101C60.919,7.101,60.919,6.949,60.919,7.101z"/>
			</g>
		</g>
		<g>
			<linearGradient id="SVGID_4_" gradientUnits="userSpaceOnUse" x1="94.7529" y1="10.4277" x2="94.7529" y2="12.3232">
				<stop  offset="0" style="stop-color:#FFFFFF;stop-opacity:0"/>
				<stop  offset="1" style="stop-color:#000000"/>
			</linearGradient>
			<rect x="59.972" y="10.428" fill="url(#SVGID_4_)" width="69.563" height="1.896"/>
			<g>
				<path d="M60.92,11.649c0,0.151,0.123,0.274,0.274,0.274h67.119c0.151,0,0.274-0.123,0.274-0.274s-0.123-0.274-0.274-0.274
					H61.194C61.042,11.375,60.92,11.498,60.92,11.649C60.92,11.649,60.92,11.498,60.92,11.649z"/>
			</g>
		</g>
		<g>
			<linearGradient id="SVGID_5_" gradientUnits="userSpaceOnUse" x1="94.7529" y1="14.9761" x2="94.7529" y2="16.8711">
				<stop  offset="0" style="stop-color:#FFFFFF;stop-opacity:0"/>
				<stop  offset="1" style="stop-color:#000000"/>
			</linearGradient>
			<rect x="59.972" y="14.976" fill="url(#SVGID_5_)" width="69.563" height="1.895"/>
			<g>
				<path d="M60.919,16.197c0,0.151,0.123,0.274,0.274,0.274h67.119c0.151,0,0.274-0.123,0.274-0.274
					c0-0.151-0.123-0.273-0.274-0.273H61.193C61.042,15.924,60.919,16.046,60.919,16.197C60.919,16.197,60.919,16.046,60.919,16.197
					z"/>
			</g>
		</g>
	</g>
	<rect x="321.874" y="18.583" width="1.166" height="1.281"/>
	<rect x="178.044" y="3.226" width="135.333" height="11.75"/>
	<linearGradient id="SVGID_6_" gradientUnits="userSpaceOnUse" x1="179.2109" y1="9.1011" x2="312.2109" y2="9.1011">
		<stop  offset="0" style="stop-color:#000000"/>
		<stop  offset="0" style="stop-color:#202021;stop-opacity:0.9926"/>
		<stop  offset="0" style="stop-color:#5C5C5F;stop-opacity:0.9523"/>
		<stop  offset="0" style="stop-color:#7D7F82;stop-opacity:0.9069"/>
		<stop  offset="0" style="stop-color:#9A9C9E;stop-opacity:0.8581"/>
		<stop  offset="0" style="stop-color:#B4B6B8;stop-opacity:0.805"/>
		<stop  offset="0" style="stop-color:#CACCCE;stop-opacity:0.7463"/>
		<stop  offset="0" style="stop-color:#DCDEDF;stop-opacity:0.68"/>
		<stop  offset="0" style="stop-color:#EBEBEC;stop-opacity:0.6026"/>
		<stop  offset="0" style="stop-color:#F5F5F5;stop-opacity:0.5069"/>
		<stop  offset="0" style="stop-color:#FCFCFC;stop-opacity:0.3726"/>
		<stop  offset="0" style="stop-color:#FFFFFF;stop-opacity:0"/>
		<stop  offset="0.0348" style="stop-color:#E3E4E5;stop-opacity:0.0348"/>
		<stop  offset="0.0984" style="stop-color:#BCBEC0;stop-opacity:0.0984"/>
		<stop  offset="0.1677" style="stop-color:#9A9C9F;stop-opacity:0.1677"/>
		<stop  offset="0.241" style="stop-color:#7E8083;stop-opacity:0.241"/>
		<stop  offset="0.3196" style="stop-color:#67686A;stop-opacity:0.3196"/>
		<stop  offset="0.405" style="stop-color:#515254;stop-opacity:0.405"/>
		<stop  offset="0.4998" style="stop-color:#3F3E40;stop-opacity:0.4998"/>
		<stop  offset="0.6093" style="stop-color:#232223;stop-opacity:0.6093"/>
		<stop  offset="0.7466" style="stop-color:#0A0A0A;stop-opacity:0.7466"/>
		<stop  offset="1" style="stop-color:#000000"/>
	</linearGradient>
	<rect x="179.211" y="4.101" fill="url(#SVGID_6_)" width="133" height="10"/>
	<rect x="9.128" y="20.83" width="17.833" height="1.26"/>
	<rect x="91.503" y="20.83" width="12.833" height="1.26"/>
	<rect x="150.298" y="20.83" width="25.955" height="1.26"/>
	<rect x="252.077" y="20.83" width="25.955" height="1.26"/>
	<path fill="none" stroke="#808285" stroke-miterlimit="10" d="M312.878,9.101"/>
	<path fill="none" stroke="#808285" stroke-miterlimit="10" d="M178.044,9.101"/>
	<rect x="35.628" y="20.83" width="2.261" height="2.927"/>
	<rect x="58.176" y="20.83" width="1.753" height="2.927"/>
	<rect x="40.307" y="-0.106" fill="#FFFFFF" width="15.451" height="23.696"/>
	<polygon points="89.445,52.386 89.445,60.86 86.628,60.86 86.628,67.193 89.445,67.193 89.445,68.744 106.572,68.744 
		106.572,70.603 89.445,70.603 89.445,81.045 86.628,81.045 86.628,87.378 89.445,87.378 89.445,93.962 106.572,93.962 
		106.572,95.821 89.445,95.821 89.445,103.835 86.628,103.835 86.628,110.168 89.445,110.168 89.445,135.993 99.196,135.993 
		99.196,141.757 102.416,141.757 102.416,143.616 99.196,143.616 99.196,151.295 103.238,151.295 103.238,153.155 99.196,153.155 
		99.196,157.604 97.545,157.604 97.545,160.945 115.882,160.945 115.882,52.386 	"/>
	<line fill="none" stroke="#000000" stroke-width="3" stroke-miterlimit="10" x1="86.628" y1="84.09" x2="-0.122" y2="84.09"/>
	<line fill="none" stroke="#000000" stroke-width="3" stroke-miterlimit="10" x1="86.628" y1="106.666" x2="-0.122" y2="106.666"/>
	<polyline fill="none" stroke="#000000" stroke-width="3" stroke-miterlimit="10" points="18.045,21.46 18.045,64.423 
		86.628,64.423 	"/>
	<rect x="8.128" y="104.34" width="3.625" height="4.5"/>
	<rect x="14.42" y="104.34" width="3.625" height="4.5"/>
	<rect x="63.545" y="104.34" width="3.625" height="4.5"/>
	<rect x="38.076" y="81.84" width="3.625" height="4.5"/>
	<rect x="11.753" y="81.84" width="3.625" height="4.5"/>
	<rect x="19.378" y="62.173" width="3.625" height="4.5"/>
	<g>
		<path fill="#434343" d="M121.991,161.942v5.191h-0.985v-2.829c0-0.226,0.006-0.482,0.019-0.769l0.019-0.388l0.019-0.384h-0.031
			l-0.118,0.361l-0.114,0.361c-0.106,0.324-0.188,0.564-0.247,0.719l-1.141,2.928h-0.897l-1.152-2.906
			c-0.063-0.159-0.147-0.399-0.251-0.718l-0.118-0.361l-0.118-0.357h-0.03l0.019,0.376l0.019,0.38
			c0.016,0.294,0.023,0.547,0.023,0.757v2.829h-0.985v-5.191h1.605l0.928,2.404c0.063,0.167,0.147,0.407,0.251,0.718l0.114,0.361
			l0.118,0.357h0.035l0.11-0.357l0.114-0.357c0.094-0.302,0.175-0.54,0.244-0.715l0.913-2.411H121.991z"/>
		<path fill="#434343" d="M126.243,161.942h0.985v3.454c0,0.722-0.139,1.2-0.417,1.433c-0.278,0.233-0.845,0.35-1.702,0.35
			c-0.905,0-1.498-0.11-1.78-0.331c-0.281-0.22-0.422-0.686-0.422-1.396v-3.51h0.984v3.51c0,0.383,0.069,0.625,0.206,0.728
			c0.137,0.103,0.458,0.154,0.966,0.154c0.52,0,0.846-0.052,0.979-0.156c0.133-0.104,0.199-0.358,0.199-0.764V161.942z"/>
		<path fill="#434343" d="M128.137,167.133v-5.191h2.56c0.637,0,1.075,0.11,1.316,0.331c0.241,0.221,0.361,0.62,0.361,1.198
			c0,0.525-0.06,0.884-0.181,1.077s-0.367,0.326-0.74,0.399v0.034c0.576,0.036,0.864,0.371,0.864,1.008v1.144h-0.985v-0.946
			c0-0.535-0.264-0.803-0.791-0.803h-1.418v1.75H128.137z M129.122,164.555h1.415c0.337,0,0.561-0.061,0.671-0.181
			c0.11-0.12,0.166-0.362,0.166-0.724c0-0.37-0.048-0.609-0.143-0.717c-0.095-0.108-0.304-0.162-0.626-0.162h-1.483V164.555z"/>
		<path fill="#434343" d="M136.299,166.137h-2.241l-0.323,0.996h-1.042l1.727-5.191h1.479l1.753,5.191h-1.023L136.299,166.137z
			 M136.07,165.411l-0.897-2.704l-0.882,2.704H136.07z"/>
		<path fill="#434343" d="M138.101,167.133v-5.191h2.552c0.725,0,1.233,0.159,1.523,0.475c0.291,0.317,0.436,0.872,0.436,1.666
			c0,1.296-0.117,2.128-0.35,2.497c-0.233,0.369-0.76,0.553-1.579,0.553H138.101z M139.086,166.305h1.403
			c0.472,0,0.776-0.108,0.915-0.325c0.138-0.217,0.208-0.696,0.208-1.436c0-0.766-0.063-1.253-0.187-1.46
			c-0.124-0.208-0.416-0.313-0.875-0.313h-1.464V166.305z"/>
		<path fill="#434343" d="M150.097,161.942v5.191h-1.67l-1.483-2.848c-0.074-0.143-0.189-0.391-0.346-0.746l-0.167-0.373
			l-0.164-0.372h-0.038l0.015,0.342l0.011,0.339l0.008,0.68v2.978h-0.985v-5.191h1.669l1.351,2.632
			c0.119,0.233,0.257,0.516,0.415,0.848l0.198,0.422l0.198,0.426h0.034l-0.012-0.335l-0.011-0.334l-0.007-0.669v-2.989H150.097z"/>
		<path fill="#434343" d="M154.151,166.137h-2.24l-0.323,0.996h-1.042l1.727-5.191h1.479l1.753,5.191h-1.023L154.151,166.137z
			 M153.922,165.411l-0.897-2.704l-0.882,2.704H153.922z"/>
		<path fill="#434343" d="M155.954,167.133v-5.191h2.552c0.599,0,1.006,0.095,1.223,0.287c0.217,0.191,0.325,0.552,0.325,1.082
			c0,0.641-0.254,1.019-0.764,1.133v0.019c0.593,0.092,0.89,0.503,0.89,1.237c0,0.529-0.114,0.901-0.343,1.114
			c-0.228,0.213-0.626,0.319-1.194,0.319H155.954z M156.938,164.122h1.206c0.39,0,0.64-0.043,0.747-0.129
			c0.108-0.086,0.162-0.285,0.162-0.598c0-0.416-0.236-0.624-0.707-0.624h-1.408V164.122z M156.938,166.305h1.08l0.346-0.008
			c0.333,0,0.551-0.047,0.656-0.141c0.105-0.094,0.158-0.292,0.158-0.593c0-0.314-0.055-0.512-0.166-0.593
			c-0.11-0.082-0.382-0.122-0.815-0.122h-1.259V166.305z"/>
		<path fill="#434343" d="M161.879,161.942v5.191h-0.985v-5.191H161.879z"/>
		<path fill="#434343" d="M163.682,162.771v1.339h2.434v0.727h-2.434v1.468h2.59v0.829h-3.575v-5.191h3.552v0.829H163.682z"/>
		<path fill="#434343" d="M170.33,161.942h1.042l-1.674,5.191h-1.514l-1.658-5.191h1.022l0.974,2.939
			c0.092,0.282,0.227,0.753,0.407,1.415h0.026l0.099-0.354c0.122-0.441,0.226-0.794,0.312-1.058L170.33,161.942z"/>
		<path fill="#434343" d="M176.89,166.137h-2.24l-0.323,0.996h-1.042l1.727-5.191h1.479l1.753,5.191h-1.023L176.89,166.137z
			 M176.662,165.411l-0.897-2.704l-0.883,2.704H176.662z"/>
		<path fill="#434343" d="M178.693,167.133v-5.191h2.56c0.637,0,1.075,0.11,1.316,0.331c0.241,0.221,0.361,0.62,0.361,1.198
			c0,0.525-0.061,0.884-0.181,1.077c-0.121,0.193-0.367,0.326-0.74,0.399v0.034c0.576,0.036,0.863,0.371,0.863,1.008v1.144h-0.985
			v-0.946c0-0.535-0.264-0.803-0.791-0.803h-1.418v1.75H178.693z M179.678,164.555h1.415c0.337,0,0.561-0.061,0.671-0.181
			c0.11-0.12,0.166-0.362,0.166-0.724c0-0.37-0.048-0.609-0.143-0.717c-0.095-0.108-0.304-0.162-0.626-0.162h-1.482V164.555z"/>
		<path fill="#434343" d="M185.782,162.825v4.309h-0.985v-4.309h-1.498v-0.882h4.035v0.882H185.782z"/>
	</g>
</g>
</svg>
