<svg xmlns="http://www.w3.org/2000/svg" width="26" height="50" viewBox="63.263 119.5 26 50" enable-background="new 63.263 119.5 26 50"><path d="M85.46 124.26l-1.07 1.07-.5-.47 1.1-1.07-.53-.53-1.05 1.05-.47-.47L84 122.8l-.48-.47-1.02 1.02-.48-.47 1.03-1.03-2.35-2.35H63.26v34.17h26v-25.6l-3.8-3.8zm-13.3 28.43h-8.33v-.4h8.33v.4zm5.57-31.5h-12.2v-.62h12.2v.6zM88.6 151h-.46v-20.5h.46V151zM72.6 153.47v13.8h-1.05v2.23h1.88v-16.03zM77.77 162.67v2.07h-.3l-.02-2.07h-.24v2.07h-.3v-2.07h-.25v4.16h-.48v-13.36h-1.53v16.03h3.41v-6.83zM72.58 169.07h-.17c.1-2.08.57-2.72.9-3.18.22-.3.38-.52.4-1 0-.45-.3-1.32-.64-2.24-.44-1.26-.95-2.68-.9-3.62.06-.98.48-2.04.96-3.27.27-.7.58-1.47.86-2.32.37-1.16-1.07-2.08-1.08-2.1l.08-.14c.07.05 1.58 1.02 1.16 2.3-.28.86-.6 1.64-.86 2.33-.48 1.22-.9 2.27-.95 3.22-.05.9.45 2.3.9 3.55.34.98.64 1.82.63 2.3 0 .54-.2.8-.42 1.1-.34.46-.76 1.05-.86 3.07z"/><path fill="#fff" d="M82.5 136.6L76 145.2l-6.53-8.63z"/><g fill="#fff"><path d="M69.36 133.94v-5.33H71.8c.72 0 1.2.13 1.46.38s.38.74.38 1.46c0 .7-.13 1.2-.36 1.42s-.73.35-1.46.35l-.23.02h-1.2v1.72h-1zm1.02-2.58h1.15c.46 0 .75-.05.87-.16s.2-.35.2-.74c0-.45-.06-.73-.17-.84s-.37-.16-.8-.16h-1.25v1.9zM74.26 133.94v-5.33h2.62c.75 0 1.27.17 1.57.5s.44.9.44 1.7c0 1.34-.13 2.2-.37 2.57s-.78.57-1.62.57h-2.64zm1-.85h1.45c.5 0 .8-.12.95-.35s.2-.7.2-1.47c0-.8-.05-1.3-.18-1.5s-.42-.32-.9-.32h-1.5v3.63zM80.64 129.46v1.43h2.4v.85h-2.4v2.2h-1v-5.34h3.52v.86h-2.52z"/></g></svg>