<?xml version="1.0" encoding="utf-8"?>
<!-- Generator: Adobe Illustrator 16.0.0, SVG Export Plug-In . SVG Version: 6.00 Build 0)  -->
<!DOCTYPE svg PUBLIC "-//W3C//DTD SVG 1.1//EN" "http://www.w3.org/Graphics/SVG/1.1/DTD/svg11.dtd">
<svg version="1.1" id="Layer_1" xmlns="http://www.w3.org/2000/svg" xmlns:xlink="http://www.w3.org/1999/xlink" x="0px" y="0px"
	 width="26px" height="50px" viewBox="63.263 119.5 26 50" enable-background="new 63.263 119.5 26 50" xml:space="preserve">
<g>
	<path fill="#FFFFFF" d="M63.513,153.424V119.75h17.08l2.104,2.104l-1.024,1.025l0.825,0.825l1.024-1.025l0.12,0.12l-1.049,1.049
		l0.825,0.825l1.049-1.049l0.165,0.166l-1.071,1.072l0.825,0.825l1.071-1.072l3.556,3.556v25.253H63.513z M65.295,121.438h12.688
		v-1.104H65.295V121.438z"/>
	<path d="M80.49,120l1.854,1.854l-0.671,0.671l-0.354,0.354l0.354,0.354l0.472,0.472l0.119,0.12l-0.023,0.024l0.354,0.354
		l0.472,0.472l0.165,0.166l-0.022,0.023l0.354,0.354l0.472,0.472l0.354,0.354l0.354-0.354l0.718-0.718l3.306,3.306v24.9h-25V120
		H80.49 M65.045,121.688h0.5h12.188h0.5v-0.5v-0.604v-0.5h-0.5H65.545h-0.5v0.5v0.604V121.688 M80.697,119.5H63.263v34.174h26
		v-25.607l-3.806-3.806l-1.071,1.072l-0.472-0.472l1.071-1.072l-0.519-0.519l-1.049,1.049l-0.472-0.472l1.049-1.049l-0.474-0.473
		l-1.024,1.025l-0.472-0.472l1.024-1.025L80.697,119.5L80.697,119.5z M65.545,121.188v-0.604h12.188v0.604H65.545L65.545,121.188z"
		/>
</g>
<g>
	<g>
		<polygon points="72.59,153.474 72.59,167.267 71.554,167.267 71.554,169.5 72.59,169.5 73.014,169.5 73.44,169.5 73.44,153.474 		
			"/>
	</g>
	<g>
		<polygon points="77.767,162.669 77.767,164.741 77.455,164.741 77.455,162.669 77.208,162.669 77.208,164.741 76.895,164.741 
			76.895,162.669 76.655,162.669 76.655,166.829 76.173,166.829 76.173,162.669 76.173,162.669 76.173,153.474 74.642,153.474 
			74.642,169.5 75.407,169.5 76.173,169.5 78.044,169.5 78.044,162.669 		"/>
	</g>
	<g>
		<g>
			<path fill="#FFFFFF" d="M72.582,169.066l-0.17-0.009c0.099-2.072,0.56-2.705,0.896-3.167c0.217-0.299,0.374-0.515,0.384-1.005
				c0.009-0.438-0.3-1.309-0.628-2.229c-0.446-1.255-0.952-2.676-0.898-3.616c0.056-0.982,0.474-2.045,0.958-3.275
				c0.27-0.687,0.576-1.464,0.854-2.319c0,0,0.015,0.01,0,0l3.191,0.229c0.064,0.041-2.692-1.216-3.111,0.07
				c-0.28,0.86-0.506,1.397-0.777,2.087c-0.479,1.216-0.892,2.266-0.946,3.219c-0.051,0.905,0.448,2.309,0.889,3.547
				c0.348,0.978,0.648,1.822,0.639,2.293c-0.012,0.547-0.2,0.806-0.418,1.105C73.103,166.464,72.678,167.048,72.582,169.066z"/>
			<path d="M75.095,153.163c-0.357,0-0.677,0.079-0.876,0.3l2.948,0.211C77.089,153.646,75.978,153.163,75.095,153.163
				L75.095,153.163z M73.978,153.445L73.978,153.445L73.978,153.445L73.978,153.445L73.978,153.445
				c0.005,0.003,0.006,0.004,0.006,0.004l0,0l0,0C73.985,153.449,73.979,153.446,73.978,153.445L73.978,153.445L73.978,153.445
				L73.978,153.445L73.978,153.445c-0.278,0.855-0.584,1.633-0.854,2.319c-0.484,1.23-0.902,2.293-0.958,3.275
				c-0.053,0.94,0.452,2.361,0.898,3.616c0.328,0.921,0.637,1.791,0.628,2.229c-0.01,0.49-0.167,0.706-0.384,1.005
				c-0.336,0.462-0.797,1.095-0.896,3.167l0.17,0.009c0.097-2.019,0.521-2.603,0.863-3.071c0.218-0.3,0.407-0.559,0.418-1.105
				c0.01-0.471-0.291-1.315-0.639-2.293c-0.44-1.238-0.94-2.642-0.889-3.547c0.054-0.953,0.467-2.003,0.946-3.219
				c0.271-0.689,0.498-1.227,0.777-2.087c0.037-0.112,0.091-0.205,0.16-0.281L73.978,153.445L73.978,153.445z M77.167,153.674
				c0.002,0.001,0.003,0.001,0.004,0.001c0,0,0,0-0.001-0.001H77.167L77.167,153.674z"/>
		</g>
	</g>
</g>
<g>
	<polygon points="69.956,136.837 82.006,136.837 75.981,144.806 	"/>
	<path d="M81.503,137.087l-5.521,7.305l-5.523-7.305H81.503 M82.508,136.587H69.453l6.528,8.634L82.508,136.587L82.508,136.587z"/>
</g>
<g>
	<g>
		<path d="M69.615,133.688v-4.832h2.164c0.809,0,1.144,0.165,1.282,0.304c0.139,0.139,0.304,0.473,0.304,1.278
			c0,0.797-0.155,1.116-0.284,1.243c-0.13,0.128-0.458,0.28-1.278,0.28l-0.239,0.004h-1.437v1.723H69.615z M70.127,131.613h1.402
			c0.539,0,0.858-0.067,1.035-0.218c0.187-0.159,0.273-0.457,0.273-0.938c0-0.536-0.069-0.848-0.223-1.01
			c-0.158-0.166-0.461-0.24-0.984-0.24h-1.504V131.613z"/>
		<path d="M69.877,129.105v0.352v1.906v0.352v0.5v1.223h-0.012v-4.332H69.877 M72.79,129.269c0.047,0.025,0.077,0.049,0.094,0.067
			c0.069,0.07,0.231,0.316,0.231,1.102c0,0.818-0.174,1.03-0.209,1.064c-0.016,0.016-0.07,0.061-0.205,0.104
			c0.009-0.007,0.017-0.014,0.025-0.021c0.324-0.275,0.362-0.776,0.362-1.129c0-0.613-0.087-0.967-0.292-1.182
			C72.794,129.272,72.792,129.271,72.79,129.269 M71.779,128.605h-0.266h-2.148v5.332h1.012v-1.723h1.191l0.234-0.004
			c0.729,0,1.214-0.117,1.453-0.352s0.359-0.708,0.359-1.422c0-0.719-0.126-1.204-0.377-1.455S72.501,128.605,71.779,128.605
			L71.779,128.605z M70.377,131.363v-1.906h1.254c0.433,0,0.7,0.054,0.803,0.162s0.154,0.387,0.154,0.838
			c0,0.393-0.062,0.643-0.186,0.748s-0.415,0.158-0.873,0.158H70.377L70.377,131.363z"/>
	</g>
	<g>
		<path d="M74.51,133.688v-4.832h2.371c0.669,0,1.133,0.137,1.38,0.407c0.253,0.277,0.382,0.795,0.382,1.542
			c0,1.589-0.175,2.199-0.32,2.431c-0.189,0.3-0.664,0.452-1.41,0.452H74.51z M75.021,133.336h1.691c0.582,0,0.958-0.147,1.15-0.45
			c0.172-0.271,0.252-0.782,0.252-1.609c0-1.121-0.13-1.466-0.227-1.628c-0.179-0.297-0.543-0.442-1.113-0.442h-1.754V133.336z"/>
		<path d="M74.771,129.105v0.352v3.629v0.352H74.76v-4.332H74.771 M77.949,129.325c0.049,0.032,0.092,0.067,0.127,0.106
			c0.145,0.158,0.316,0.524,0.316,1.374c0,1.67-0.197,2.163-0.282,2.297c-0.06,0.095-0.176,0.171-0.34,0.227
			c0.124-0.083,0.226-0.186,0.304-0.309c0.201-0.317,0.291-0.854,0.291-1.743c0-1.169-0.141-1.553-0.263-1.757
			C78.059,129.448,78.008,129.383,77.949,129.325 M76.881,128.605H74.26v5.332h2.652c0.841,0,1.382-0.189,1.621-0.568
			s0.359-1.234,0.359-2.564c0-0.815-0.149-1.385-0.447-1.711S77.626,128.605,76.881,128.605L76.881,128.605z M75.271,133.086v-3.629
			h1.504c0.472,0,0.771,0.107,0.898,0.32s0.191,0.713,0.191,1.5c0,0.76-0.071,1.252-0.213,1.475s-0.455,0.334-0.939,0.334H75.271
			L75.271,133.086z"/>
	</g>
	<g>
		<polygon points="79.881,133.688 79.881,128.855 82.912,128.855 82.912,129.207 80.392,129.207 80.392,131.145 82.783,131.145 
			82.783,131.496 80.392,131.496 80.392,133.688 		"/>
		<path d="M80.142,129.105v0.352v1.438v0.352v0.5v1.691h-0.012v-4.332H80.142 M83.162,128.605h-3.531v5.332h1.012v-2.191h2.391
			v-0.852h-2.391v-1.438h2.52V128.605L83.162,128.605z"/>
	</g>
</g>
</svg>
