<?xml version="1.0" encoding="utf-8"?>
<!-- Generator: Adobe Illustrator 16.0.0, SVG Export Plug-In . SVG Version: 6.00 Build 0)  -->
<!DOCTYPE svg PUBLIC "-//W3C//DTD SVG 1.1//EN" "http://www.w3.org/Graphics/SVG/1.1/DTD/svg11.dtd">
<svg version="1.1" id="Layer_1" xmlns="http://www.w3.org/2000/svg" xmlns:xlink="http://www.w3.org/1999/xlink" x="0px" y="0px"
	 width="207px" height="22px" viewBox="0 0 207 22" enable-background="new 0 0 207 22" xml:space="preserve">
<g>
	<g>
		<polygon fill="#FFFFFF" points="0.5,21.5 0.5,0.5 197.73,0.5 197.73,3.267 201.711,3.267 201.711,4.607 197.73,4.607 
			197.73,15.361 206.5,15.361 206.5,16.701 197.73,16.701 197.73,21.5 		"/>
		<path d="M197.23,1v1.767v1h1h2.98v0.34h-2.98h-1v1v9.754v1h1H206v0.34h-7.77h-1v1V21H1V1H197.23 M198.23,0H0v22h198.23v-4.799H207
			v-2.34h-8.77V5.107h3.98v-2.34h-3.98V0L198.23,0z"/>
	</g>
	<g>
		<g>
			<path d="M42.757,4.481h5.106c1.904,0,2.701,0.399,3.034,0.734c0.333,0.335,0.729,1.138,0.729,3.054
				c0,1.898-0.373,2.664-0.685,2.973c-0.313,0.309-1.093,0.677-3.023,0.677l-0.554,0.011h-3.257v4.031l-1.35,0.001V4.481z
				 M44.106,10.937h3.176c1.214,0,1.962-0.156,2.352-0.491c0.414-0.355,0.606-1.032,0.606-2.13c0-1.23-0.152-1.941-0.495-2.304
				c-0.352-0.371-1.039-0.536-2.229-0.536h-3.412L44.106,10.937z"/>
			<path d="M43.605,4.981v0.995l0.001,4.461v1h0.001v0.993v3.031l-0.35,0.001V4.981H43.605 M47.863,4.981
				c1.824,0,2.461,0.368,2.678,0.586c0.176,0.177,0.585,0.796,0.585,2.702c0,1.884-0.375,2.458-0.536,2.616
				c-0.162,0.159-0.738,0.526-2.635,0.534c0.968-0.056,1.6-0.246,2.006-0.594c0.531-0.457,0.779-1.254,0.779-2.509
				c0-1.386-0.188-2.178-0.632-2.649C49.689,5.226,49.008,5.015,47.863,4.981 M47.863,3.981h-0.617h-4.989v12.481l2.35-0.001V12.43
				h2.767l0.544-0.011c1.692,0,2.817-0.272,3.374-0.821c0.556-0.549,0.834-1.659,0.834-3.329c0-1.682-0.292-2.818-0.875-3.406
				C50.667,4.275,49.538,3.981,47.863,3.981L47.863,3.981z M44.606,10.437l-0.001-4.461h2.912c1.004,0,1.626,0.127,1.865,0.379
				c0.238,0.253,0.358,0.907,0.358,1.961c0,0.92-0.144,1.504-0.431,1.751c-0.287,0.246-0.963,0.37-2.027,0.37H44.606L44.606,10.437z
				"/>
		</g>
		<g>
			<path d="M58.385,16.07c-2.605,0-3.608-0.51-3.99-0.937c-0.394-0.438-0.861-1.573-0.861-4.516c0-3.536,0.463-4.824,0.852-5.281
				c0.374-0.44,1.438-0.965,4.381-0.965c2.6,0,3.591,0.519,3.965,0.955c0.388,0.452,0.85,1.639,0.85,4.727
				c0,3.389-0.463,4.629-0.852,5.074C62.353,15.558,61.294,16.07,58.385,16.07z M58.584,5.402c-1.825,0-2.808,0.259-3.186,0.839
				c-0.237,0.365-0.48,1.186-0.48,4.516c0,2.546,0.313,3.24,0.586,3.56c0.424,0.501,1.391,0.725,3.133,0.725
				c1.692,0,2.626-0.255,3.03-0.828c0.245-0.347,0.527-1.119,0.527-4.033c0-2.908-0.257-3.654-0.508-4
				C61.297,5.642,60.34,5.402,58.584,5.402z"/>
			<path d="M58.766,4.872c2.631,0,3.385,0.546,3.586,0.78c0.219,0.255,0.729,1.196,0.729,4.401c0,3.531-0.509,4.495-0.728,4.745
				c-0.158,0.181-0.913,0.772-3.968,0.772c-2.644,0-3.41-0.538-3.62-0.773c-0.22-0.243-0.731-1.14-0.731-4.179
				c0-3.696,0.513-4.698,0.733-4.958C54.923,5.476,55.676,4.872,58.766,4.872 M58.637,15.541c1.871,0,2.932-0.32,3.438-1.038
				c0.322-0.455,0.62-1.294,0.62-4.323c0-2.873-0.241-3.794-0.603-4.294c-0.5-0.69-1.549-0.984-3.508-0.984
				c-2.04,0-3.118,0.319-3.605,1.066c-0.271,0.417-0.561,1.165-0.561,4.789c0,2.687,0.339,3.454,0.704,3.882
				C55.658,15.271,56.709,15.541,58.637,15.541 M58.766,3.872c-2.528,0-4.116,0.381-4.762,1.141
				c-0.647,0.762-0.971,2.63-0.971,5.605c0,2.499,0.329,4.116,0.989,4.849c0.659,0.737,2.113,1.104,4.363,1.104
				c2.497,0,4.071-0.371,4.721-1.114s0.975-2.545,0.975-5.403c0-2.615-0.324-4.299-0.97-5.052
				C62.464,4.248,61.016,3.872,58.766,3.872L58.766,3.872z M58.637,14.541c-1.523,0-2.441-0.182-2.752-0.549
				c-0.312-0.365-0.467-1.443-0.467-3.235c0-2.42,0.133-3.834,0.399-4.243c0.266-0.408,1.188-0.612,2.767-0.612
				c1.524,0,2.422,0.19,2.698,0.571c0.276,0.381,0.413,1.617,0.413,3.707c0,2.085-0.145,3.333-0.436,3.745
				C60.969,14.336,60.095,14.541,58.637,14.541L58.637,14.541z"/>
		</g>
		<g>
			<path d="M66.168,4.481h5.605c1.361,0,2.329,0.229,2.799,0.664c0.465,0.429,0.701,1.274,0.701,2.513
				c0,1.447-0.193,2.062-0.356,2.323c-0.21,0.339-0.694,0.585-1.438,0.734l-0.402,0.08v0.88l0.469,0.111
				c1.1,0.068,1.59,0.661,1.59,1.923v2.253h-1.349v-1.775c0-1.567-0.848-2.431-2.387-2.431h-3.883v4.206l-1.349,0.001V4.481z
				 M67.518,10.763h3.875c0.961,0,1.605-0.196,1.971-0.599c0.358-0.394,0.525-1.054,0.525-2.077c0-1.038-0.147-1.69-0.463-2.053
				c-0.335-0.382-0.929-0.559-1.869-0.559h-4.038L67.518,10.763z"/>
			<path d="M67.019,4.981v0.994l-0.001,4.288v0.992h-0.001v1v3.206l-0.349,0.001V4.981H67.019 M71.873,4.981
				c1.565,0.013,2.15,0.336,2.36,0.53c0.348,0.321,0.54,1.083,0.54,2.146c0,1.492-0.215,1.953-0.281,2.059
				c-0.039,0.063-0.149,0.188-0.442,0.313c0.23-0.472,0.339-1.105,0.339-1.942c0-1.182-0.181-1.917-0.589-2.384
				C73.311,5.145,72.522,5.009,71.873,4.981 M72.577,11.139v0.065v0.082v0.155c-0.291-0.103-0.614-0.164-0.968-0.182
				C71.97,11.249,72.292,11.208,72.577,11.139 M73.754,12.308c0.488,0.071,0.882,0.321,0.882,1.4v1.753h-0.349v-1.275
				C74.287,13.424,74.101,12.789,73.754,12.308 M71.773,3.981h-6.105v12.481l2.349-0.001v-4.206H71.4
				c1.258,0,1.887,0.644,1.887,1.931v2.275h2.349v-2.753c0-1.528-0.686-2.337-2.059-2.422v-0.082
				c0.889-0.177,1.477-0.497,1.765-0.96c0.287-0.462,0.431-1.325,0.431-2.587c0-1.39-0.287-2.35-0.862-2.88
				C74.336,4.246,73.291,3.981,71.773,3.981L71.773,3.981z M68.018,10.263l0.001-4.288h3.538c0.768,0,1.265,0.129,1.492,0.388
				c0.227,0.26,0.34,0.834,0.34,1.724c0,0.871-0.132,1.452-0.395,1.741c-0.263,0.29-0.797,0.435-1.601,0.435H68.018L68.018,10.263z"
				/>
		</g>
		<g>
			<polygon points="80.727,15.962 80.727,5.603 77.153,5.603 77.153,4.481 85.777,4.481 85.777,5.603 82.076,5.603 82.076,15.962 
							"/>
			<path d="M85.277,4.981v0.122h-2.701h-1v1v9.359h-0.349V6.103v-1h-1h-2.574V4.981H85.277 M86.277,3.981h-9.624v2.122h3.574v10.359
				h2.349V6.103h3.701V3.981L86.277,3.981z"/>
		</g>
		<g>
			<polygon points="87.966,15.961 87.966,4.481 95.166,4.481 95.166,5.475 89.315,5.475 89.315,9.839 94.866,9.839 94.866,10.832 
				89.315,10.832 89.315,15.961 			"/>
			<path d="M88.815,4.981v0.994v3.364v0.993v1v4.129h-0.349V4.981H88.815 M95.666,3.981h-8.2v12.48h2.349v-5.129h5.551V9.339h-5.551
				V5.975h5.851V3.981L95.666,3.981z"/>
		</g>
		<g>
			<path d="M101.861,16.07c-2.605,0-3.608-0.51-3.99-0.937c-0.394-0.438-0.862-1.574-0.862-4.516c0-3.537,0.463-4.824,0.851-5.281
				c0.375-0.44,1.44-0.965,4.382-0.965c2.599,0,3.591,0.52,3.966,0.955c0.387,0.45,0.849,1.636,0.849,4.726
				c0,3.39-0.463,4.63-0.851,5.074C105.829,15.558,104.77,16.07,101.861,16.07z M102.061,5.402c-1.824,0-2.806,0.259-3.186,0.838
				c-0.238,0.366-0.48,1.187-0.48,4.517c0,2.545,0.313,3.239,0.586,3.56c0.426,0.501,1.393,0.725,3.134,0.725
				c1.69,0,2.624-0.255,3.029-0.827c0.246-0.348,0.528-1.12,0.528-4.034c0-2.922-0.271-3.672-0.507-4
				C104.772,5.641,103.815,5.402,102.061,5.402z"/>
			<path d="M102.242,4.872c2.631,0,3.385,0.546,3.587,0.781c0.219,0.255,0.728,1.193,0.728,4.4c0,3.532-0.509,4.495-0.728,4.745
				c-0.158,0.181-0.913,0.772-3.968,0.772c-2.644,0-3.41-0.538-3.62-0.773c-0.22-0.244-0.732-1.14-0.732-4.179
				c0-3.696,0.512-4.698,0.731-4.957C98.398,5.477,99.153,4.872,102.242,4.872 M102.115,15.541c1.869,0,2.929-0.32,3.438-1.038
				c0.322-0.455,0.62-1.294,0.62-4.323c0-3.039-0.289-3.858-0.604-4.296c-0.502-0.688-1.551-0.982-3.507-0.982
				c-2.038,0-3.116,0.318-3.605,1.067c-0.271,0.417-0.561,1.165-0.561,4.788c0,2.686,0.339,3.453,0.705,3.883
				C99.137,15.271,100.188,15.541,102.115,15.541 M102.242,3.872c-2.528,0-4.115,0.381-4.763,1.141
				c-0.647,0.762-0.97,2.63-0.97,5.605c0,2.499,0.329,4.116,0.989,4.849c0.659,0.737,2.113,1.104,4.363,1.104
				c2.497,0,4.071-0.371,4.721-1.114s0.975-2.545,0.975-5.403c0-2.615-0.322-4.299-0.97-5.052S104.492,3.872,102.242,3.872
				L102.242,3.872z M102.115,14.541c-1.524,0-2.441-0.182-2.753-0.549c-0.311-0.365-0.467-1.443-0.467-3.235
				c0-2.42,0.133-3.834,0.399-4.243c0.267-0.408,1.188-0.612,2.767-0.612c1.523,0,2.421,0.19,2.7,0.571
				c0.274,0.381,0.412,1.617,0.412,3.707c0,2.085-0.146,3.333-0.437,3.745S103.573,14.541,102.115,14.541L102.115,14.541z"/>
		</g>
		<g>
			<polygon points="109.645,15.962 109.645,4.481 110.994,4.481 110.994,14.84 116.799,14.84 116.799,15.962 			"/>
			<path d="M110.494,4.981v9.359v1h1h4.805v0.122h-6.154V4.981H110.494 M111.494,3.981h-2.35v12.481h8.154V14.34h-5.805V3.981
				L111.494,3.981z"/>
		</g>
		<g>
			<rect x="118.986" y="4.481" width="1.351" height="11.48"/>
			<path d="M119.837,4.981v10.48h-0.351V4.981H119.837 M120.837,3.981h-2.351v12.48h2.351V3.981L120.837,3.981z"/>
		</g>
		<g>
			<path d="M127.795,16.07c-2.607,0-3.609-0.509-3.99-0.937c-0.394-0.437-0.861-1.573-0.861-4.516c0-3.539,0.464-4.825,0.853-5.281
				c0.374-0.441,1.438-0.965,4.38-0.965c2.599,0,3.592,0.52,3.967,0.955c0.388,0.451,0.85,1.638,0.85,4.726
				c0,3.39-0.464,4.63-0.853,5.073C131.763,15.558,130.704,16.07,127.795,16.07z M127.994,5.402c-1.823,0-2.806,0.258-3.186,0.838
				c-0.237,0.363-0.48,1.183-0.48,4.517c0,2.544,0.313,3.238,0.586,3.56c0.427,0.501,1.394,0.725,3.135,0.725
				c1.69,0,2.624-0.255,3.029-0.827c0.246-0.349,0.527-1.121,0.527-4.034c0-2.922-0.271-3.672-0.507-4
				C130.71,5.642,129.752,5.402,127.994,5.402z"/>
			<path d="M128.176,4.872c2.631,0,3.386,0.546,3.587,0.78c0.22,0.255,0.729,1.196,0.729,4.401c0,3.533-0.509,4.494-0.729,4.745
				c-0.158,0.182-0.912,0.772-3.968,0.772c-2.645,0-3.411-0.538-3.62-0.773c-0.22-0.243-0.731-1.139-0.731-4.179
				c0-3.698,0.513-4.698,0.734-4.958C124.334,5.476,125.087,4.872,128.176,4.872 M128.049,15.541c1.869,0,2.929-0.32,3.438-1.04
				c0.321-0.455,0.618-1.294,0.618-4.321c0-3.039-0.289-3.858-0.602-4.292c-0.499-0.691-1.549-0.986-3.51-0.986
				c-2.037,0-3.115,0.318-3.604,1.064c-0.271,0.415-0.562,1.162-0.562,4.791c0,2.684,0.339,3.452,0.705,3.884
				C125.07,15.271,126.122,15.541,128.049,15.541 M128.176,3.872c-2.529,0-4.115,0.381-4.761,1.141
				c-0.649,0.762-0.972,2.63-0.972,5.605c0,2.499,0.328,4.116,0.988,4.849c0.658,0.737,2.113,1.104,4.363,1.104
				c2.496,0,4.071-0.371,4.721-1.114c0.652-0.743,0.977-2.545,0.977-5.403c0-2.615-0.324-4.299-0.971-5.052
				C131.873,4.248,130.425,3.872,128.176,3.872L128.176,3.872z M128.049,14.541c-1.525,0-2.441-0.182-2.754-0.549
				c-0.311-0.365-0.467-1.443-0.467-3.235c0-2.42,0.131-3.834,0.398-4.243c0.268-0.408,1.189-0.612,2.768-0.612
				c1.523,0,2.424,0.19,2.699,0.571c0.274,0.381,0.412,1.617,0.412,3.707c0,2.085-0.146,3.333-0.436,3.745
				C130.379,14.336,129.506,14.541,128.049,14.541L128.049,14.541z"/>
		</g>
	</g>
</g>
</svg>
