<svg xmlns="http://www.w3.org/2000/svg" width="207" height="22"><path d="M207 14.86h-8.77V5.1h3.98V2.78h-3.97V0H0v22h198.23v-4.8H207z"/><g fill="#fff"><path d="M42.26 16.46V3.98h5.6c1.68 0 2.8.3 3.4.88.57.6.87 1.73.87 3.4 0 1.68-.28 2.8-.84 3.34-.57.55-1.7.82-3.38.82H44.6v4.04h-2.34zm2.35-6.02h2.68c1.07 0 1.74-.13 2.03-.37.3-.25.44-.83.44-1.75 0-1.06-.12-1.7-.36-1.96s-.86-.38-1.86-.38H44.6v4.46zM58.77 3.87c2.25 0 3.7.38 4.34 1.13.66.75.98 2.44.98 5.05 0 2.86-.32 4.66-.97 5.4s-2.22 1.12-4.7 1.12c-2.26 0-3.72-.37-4.38-1.1-.66-.74-1-2.35-1-4.85 0-2.98.34-4.84.98-5.6.65-.77 2.24-1.15 4.77-1.15zm-.2 2.03c-1.56 0-2.5.2-2.75.6-.27.42-.4 1.84-.4 4.26 0 1.8.15 2.87.46 3.23.32.36 1.23.54 2.76.54 1.45 0 2.33-.2 2.62-.6.3-.43.44-1.67.44-3.76 0-2.1-.14-3.33-.42-3.7s-1.17-.58-2.7-.58zM65.67 16.46V3.98h6.1c1.52 0 2.57.27 3.14.8.6.53.87 1.5.87 2.88 0 1.26-.14 2.12-.43 2.58-.3.47-.87.8-1.76.96v.1c1.37.07 2.06.88 2.06 2.4v2.76H73.3V14.2c0-1.3-.64-1.94-1.9-1.94h-3.38v4.2h-2.35zm2.35-6.2h3.37c.8 0 1.33-.14 1.6-.43.26-.3.4-.87.4-1.74 0-.9-.12-1.48-.35-1.74-.23-.26-.73-.4-1.5-.4h-3.53v4.3zM82.58 6.1v10.36h-2.35V6.1h-3.58V3.98h9.63V6.1h-3.7zM89.81 5.97v3.37h5.57v2H89.8v5.12h-2.33V3.98h8.2v2H89.8zM102.24 3.87c2.25 0 3.7.38 4.35 1.13.63.75.96 2.44.96 5.05 0 2.86-.33 4.66-.98 5.4s-2.22 1.12-4.72 1.12c-2.25 0-3.7-.37-4.36-1.1-.66-.74-1-2.35-1-4.85 0-2.98.33-4.84.98-5.6.65-.77 2.23-1.15 4.76-1.15zm-.18 2.03c-1.58 0-2.5.2-2.77.6-.27.42-.4 1.84-.4 4.26 0 1.8.15 2.87.46 3.23.3.36 1.23.54 2.76.54 1.45 0 2.33-.2 2.62-.6.3-.43.43-1.67.43-3.76 0-2.1-.13-3.33-.4-3.7-.3-.4-1.2-.58-2.7-.58zM111.5 3.98v10.36h5.8v2.12h-8.15V3.98h2.34zM120.84 3.98v12.48h-2.35V3.98h2.34zM128.18 3.87c2.24 0 3.7.38 4.34 1.13.65.75.97 2.44.97 5.05 0 2.86-.33 4.66-.98 5.4s-2.23 1.12-4.73 1.12c-2.26 0-3.7-.37-4.37-1.1-.66-.74-1-2.35-1-4.85 0-2.98.34-4.84.98-5.6.66-.77 2.25-1.15 4.78-1.15zm-.2 2.03c-1.56 0-2.5.2-2.75.6-.27.42-.4 1.84-.4 4.26 0 1.8.15 2.87.47 3.23.3.36 1.22.54 2.75.54 1.46 0 2.33-.2 2.62-.6.3-.43.44-1.67.44-3.76 0-2.1-.13-3.33-.4-3.7s-1.18-.58-2.7-.58z"/></g></svg>