<svg xmlns="http://www.w3.org/2000/svg" width="164" height="22"><path d="M164 5.5V3.16h-8.38V0H0v22h155.62v-4.37h6.35V15.3h-6.35V5.5H164zM5.02 15.3H3.16V6.7h1.86v8.63z"/><g fill="#fff"><path d="M42.22 16.46V3.98h6.1c1.5 0 2.56.27 3.13.8.57.53.86 1.5.86 2.88 0 1.26-.13 2.12-.42 2.6-.3.45-.87.77-1.76.95v.1c1.37.07 2.05.88 2.05 2.4v2.76h-2.34V14.2c0-1.3-.63-1.94-1.9-1.94h-3.37v4.2h-2.34zm2.34-6.2h3.38c.8 0 1.33-.14 1.6-.43.26-.3.4-.87.4-1.74 0-.9-.12-1.47-.35-1.73-.24-.26-.73-.4-1.5-.4h-3.54v4.3zM56.28 5.98v3.2h5.8v1.76h-5.8v3.53h6.17v2h-8.52V3.96h8.47v2h-6.12zM73.38 7.62h-2.3c0-.1 0-.2 0-.25-.07-.7-.22-1.14-.47-1.32s-.85-.27-1.8-.27c-1.1 0-1.83.1-2.17.3-.34.2-.5.65-.5 1.3 0 .8.13 1.27.4 1.43.3.17 1.2.3 2.76.38 1.84.1 3.03.37 3.57.8.54.42.8 1.3.8 2.65 0 1.66-.3 2.73-.94 3.22-.64.48-2.03.72-4.2.72-1.94 0-3.23-.23-3.87-.7-.64-.48-.96-1.45-.96-2.9v-.46h2.28v.28c0 .87.16 1.4.46 1.6.3.2 1.13.3 2.48.3 1.05 0 1.72-.12 2-.35s.44-.74.44-1.56c0-.6-.1-1-.33-1.2-.22-.2-.7-.32-1.43-.36l-1.3-.07c-1.95-.12-3.2-.4-3.74-.83-.55-.43-.82-1.36-.82-2.78 0-1.46.33-2.43.98-2.92.66-.48 1.97-.72 3.93-.72 1.86 0 3.12.22 3.76.66.66.45.98 1.32.98 2.6v.48zM83.27 3.98h2.35v8.3c0 1.74-.34 2.9-1 3.45-.66.56-2 .84-4.05.84-2.16 0-3.57-.26-4.24-.8-.67-.52-1-1.64-1-3.35V3.98h2.34v8.44c0 .92.16 1.5.5 1.75.3.25 1.08.37 2.3.37 1.23 0 2-.12 2.32-.37.3-.25.47-.86.47-1.84V3.98zM102.24 3.98v12.48H99.9v-6.8c0-.54 0-1.16.04-1.85l.05-.92.03-.92h-.07l-.28.87-.27.87c-.25.78-.44 1.35-.58 1.72l-2.72 7.04h-2.14l-2.74-6.98c-.16-.4-.36-.96-.6-1.73l-.28-.87-.28-.86h-.08l.05.9.04.92c.04.7.06 1.32.06 1.82v6.8h-2.35V3.98h3.82l2.22 5.78c.15.4.35.98.6 1.73l.27.86.27.86h.08l.26-.86.28-.86c.23-.73.42-1.3.58-1.72l2.18-5.8h3.9zM106.52 5.98v3.2h5.8v1.76h-5.8v3.53h6.17v2h-8.53V3.96h8.47v2h-6.12z"/></g></svg>