<?xml version="1.0" encoding="utf-8"?>
<!-- Generator: Adobe Illustrator 16.0.0, SVG Export Plug-In . SVG Version: 6.00 Build 0)  -->
<!DOCTYPE svg PUBLIC "-//W3C//DTD SVG 1.1//EN" "http://www.w3.org/Graphics/SVG/1.1/DTD/svg11.dtd">
<svg version="1.1" id="Layer_1" xmlns="http://www.w3.org/2000/svg" xmlns:xlink="http://www.w3.org/1999/xlink" x="0px" y="0px"
	 width="164px" height="22px" viewBox="0 0 164 22" enable-background="new 0 0 164 22" xml:space="preserve">
<g>
	<g>
		<path fill="#FFFFFF" d="M0.5,21.5v-21h154.621v3.157h8.379v1.34h-8.379v10.796h6.35v1.341h-6.35V21.5H0.5z M2.657,15.813h2.861
			V6.181H2.657V15.813z"/>
		<path d="M154.621,1v2.157v1h1H163v0.34h-7.379h-1v1v9.796v1h1h5.35v0.341h-5.35h-1v1V21H1V1H154.621 M2.157,16.313h1h1.861h1v-1
			V6.681v-1h-1H3.157h-1v1v8.631V16.313 M155.621,0H0v22h155.621v-4.366h6.35v-2.341h-6.35V5.497H164v-2.34h-8.379V0L155.621,0z
			 M3.157,15.313V6.681h1.861v8.631H3.157L3.157,15.313z"/>
	</g>
	<g>
		<g>
			<path d="M42.716,4.483h5.599c1.36,0,2.327,0.229,2.795,0.663c0.465,0.43,0.701,1.275,0.701,2.514
				c0,1.446-0.193,2.062-0.355,2.324c-0.209,0.338-0.692,0.584-1.436,0.733l-0.402,0.08v0.88l0.469,0.111
				c1.098,0.068,1.587,0.661,1.587,1.923v2.253h-1.347v-1.775c0-1.567-0.847-2.431-2.385-2.431h-3.88v4.206l-1.347,0.001V4.483z
				 M44.063,10.765h3.872c0.959,0,1.604-0.196,1.969-0.599c0.358-0.394,0.525-1.054,0.525-2.077c0-1.037-0.147-1.689-0.463-2.052
				c-0.334-0.382-0.928-0.56-1.868-0.56h-4.034L44.063,10.765z"/>
			<path d="M43.564,4.983v0.994l-0.001,4.288v1l0,0v0.992v3.206l-0.347,0.001V4.983H43.564 M48.413,4.983
				c1.565,0.013,2.148,0.335,2.358,0.53c0.348,0.322,0.54,1.083,0.54,2.146c0,1.492-0.214,1.954-0.28,2.06
				c-0.04,0.063-0.149,0.188-0.441,0.312c0.23-0.472,0.339-1.105,0.339-1.942c0-1.18-0.181-1.915-0.588-2.382
				C49.852,5.147,49.063,5.011,48.413,4.983 M49.118,11.141v0.065v0.082v0.155c-0.29-0.103-0.613-0.164-0.967-0.181
				C48.512,11.25,48.834,11.21,49.118,11.141 M50.295,12.31c0.486,0.072,0.879,0.322,0.879,1.4v1.753h-0.347v-1.275
				C50.828,13.426,50.642,12.791,50.295,12.31 M48.315,3.983h-6.099v12.481l2.347-0.001v-4.206h3.38
				c1.257,0,1.885,0.644,1.885,1.931v2.275h2.347V13.71c0-1.528-0.685-2.337-2.057-2.422v-0.082c0.888-0.177,1.476-0.497,1.763-0.96
				c0.286-0.462,0.43-1.325,0.43-2.587c0-1.39-0.287-2.35-0.861-2.88C50.877,4.248,49.831,3.983,48.315,3.983L48.315,3.983z
				 M44.563,10.265l0.001-4.288h3.534c0.768,0,1.264,0.129,1.491,0.388c0.226,0.26,0.34,0.834,0.34,1.724
				c0,0.871-0.132,1.452-0.395,1.741c-0.263,0.29-0.796,0.435-1.599,0.435H44.563L44.563,10.265z"/>
		</g>
		<g>
			<polygon points="54.433,15.964 54.433,4.483 61.897,4.483 61.897,5.477 55.78,5.477 55.78,9.695 61.58,9.695 61.58,10.442 
				55.78,10.442 55.78,14.971 61.951,14.971 61.951,15.964 			"/>
			<path d="M55.28,4.983v0.994v3.218v0.747v1v3.529v0.993h-0.347V4.983H55.28 M62.397,3.983h-8.464v12.481h8.518v-1.993H56.28
				v-3.529h5.8V9.195h-5.8V5.977h6.117V3.983L62.397,3.983z"/>
		</g>
		<g>
			<path d="M68.533,16.076c-2.276,0-3.2-0.334-3.574-0.615c-0.496-0.369-0.75-1.192-0.756-2.445h1.287
				c0.028,0.931,0.246,1.505,0.677,1.785c0.27,0.175,0.825,0.374,2.748,0.374c1.211,0,1.926-0.138,2.32-0.445
				c0.428-0.334,0.627-0.955,0.627-1.956c0-0.761-0.163-1.275-0.498-1.574c-0.313-0.281-0.863-0.437-1.73-0.487L68.34,10.63
				c-2.418-0.143-3.213-0.509-3.472-0.715c-0.286-0.228-0.627-0.828-0.627-2.396c0-1.283,0.263-2.128,0.78-2.511
				c0.389-0.287,1.334-0.629,3.63-0.629c2.177,0,3.093,0.315,3.479,0.579c0.495,0.341,0.749,1.071,0.752,2.167l-1.337-0.001
				c-0.086-0.768-0.295-1.234-0.649-1.485c-0.354-0.25-0.997-0.362-2.083-0.362c-1.232,0-2.007,0.122-2.438,0.383
				c-0.5,0.304-0.752,0.887-0.752,1.736c0,0.631,0.069,1.51,0.669,1.852c0.254,0.145,0.807,0.311,2.975,0.431
				c2.154,0.122,2.98,0.442,3.293,0.688c0.407,0.321,0.622,1.105,0.622,2.268c0,1.852-0.411,2.554-0.755,2.816
				C72.051,15.735,71.072,16.076,68.533,16.076z"/>
			<path d="M66.663,4.997c-0.213,0.064-0.395,0.142-0.548,0.235c-0.453,0.275-0.993,0.874-0.993,2.163
				c0,0.756,0.096,1.815,0.92,2.285c0.313,0.179,0.817,0.365,3.196,0.497c2.272,0.128,2.88,0.478,3.012,0.582
				c0.101,0.08,0.431,0.451,0.431,1.875c0,1.849-0.428,2.319-0.559,2.419c-0.092,0.07-0.373,0.231-1.1,0.356
				c0.203-0.077,0.375-0.171,0.52-0.285c0.734-0.574,0.819-1.616,0.819-2.351c0-0.911-0.218-1.548-0.663-1.945
				c-0.409-0.367-1.037-0.557-2.032-0.615l-1.3-0.082c-2.492-0.147-3.093-0.532-3.187-0.607c-0.073-0.059-0.439-0.429-0.439-2.006
				c0-1.084,0.205-1.833,0.577-2.108C65.456,5.308,65.813,5.12,66.663,4.997 M70.808,5.029c0.629,0.111,0.917,0.256,1.038,0.339
				c0.329,0.227,0.465,0.741,0.514,1.255h-0.382c-0.105-0.518-0.321-1.059-0.793-1.394C71.075,5.152,70.951,5.086,70.808,5.029
				 M65.024,13.516c0.075,0.646,0.289,1.326,0.874,1.706c0.106,0.069,0.235,0.137,0.415,0.197c-0.651-0.116-0.938-0.271-1.056-0.359
				c-0.292-0.218-0.477-0.754-0.535-1.544H65.024 M68.652,3.878c-1.963,0-3.272,0.243-3.928,0.727
				c-0.655,0.485-0.983,1.456-0.983,2.913c0,1.426,0.272,2.355,0.816,2.788c0.543,0.432,1.793,0.707,3.751,0.823l1.296,0.082
				c0.731,0.043,1.206,0.163,1.427,0.361c0.221,0.197,0.331,0.597,0.331,1.201c0,0.816-0.145,1.336-0.435,1.563
				c-0.29,0.227-0.961,0.339-2.012,0.339c-1.348,0-2.173-0.098-2.475-0.293c-0.302-0.196-0.453-0.729-0.453-1.6l-0.009-0.267h-2.284
				l0.009,0.457c0,1.451,0.318,2.413,0.956,2.889c0.637,0.478,1.929,0.715,3.874,0.715c2.163,0,3.561-0.244,4.196-0.729
				c0.635-0.484,0.952-1.556,0.952-3.214c0-1.348-0.271-2.234-0.812-2.661c-0.541-0.426-1.732-0.691-3.575-0.795
				c-1.559-0.086-2.477-0.207-2.755-0.366c-0.278-0.158-0.417-0.631-0.417-1.417c0-0.665,0.171-1.101,0.512-1.308
				c0.341-0.207,1.067-0.311,2.179-0.311c0.942,0,1.54,0.09,1.794,0.27c0.254,0.18,0.408,0.621,0.462,1.321
				c0,0.055,0.006,0.14,0.018,0.256h2.293v0.002h0.003V7.151c0-1.292-0.324-2.161-0.97-2.606
				C71.766,4.101,70.512,3.878,68.652,3.878L68.652,3.878z"/>
		</g>
		<g>
			<path d="M80.568,16.073c-2.53,0-3.534-0.374-3.93-0.688c-0.535-0.423-0.817-1.447-0.817-2.964V4.483h1.347v7.938
				c0,1.112,0.218,1.795,0.688,2.15c0.432,0.326,1.235,0.471,2.604,0.471c1.407,0,2.222-0.148,2.644-0.481
				c0.455-0.361,0.667-1.07,0.667-2.23V4.483h1.347v7.802c0,1.554-0.282,2.613-0.815,3.065
				C83.912,15.681,82.948,16.073,80.568,16.073z"/>
			<path d="M84.616,4.983v7.302c0,1.934-0.447,2.521-0.639,2.684c-0.214,0.182-0.976,0.604-3.41,0.604
				c-2.606,0-3.4-0.405-3.621-0.58c-0.188-0.149-0.626-0.697-0.626-2.571V4.983h0.347v7.438c0,0.807,0.092,1.948,0.888,2.551
				c0.531,0.399,1.399,0.57,2.903,0.57c1.548,0,2.431-0.177,2.954-0.59c0.584-0.464,0.856-1.297,0.856-2.622V4.983H84.616
				 M85.616,3.983H83.27v8.347c0,0.977-0.162,1.588-0.478,1.838c-0.316,0.25-1.095,0.374-2.333,0.374
				c-1.208,0-1.975-0.123-2.302-0.369c-0.326-0.247-0.489-0.831-0.489-1.752V3.983h-2.347v8.439c0,1.707,0.336,2.826,1.006,3.355
				c0.671,0.531,2.084,0.796,4.241,0.796c2.042,0,3.394-0.28,4.056-0.841c0.661-0.561,0.992-1.711,0.992-3.447V3.983L85.616,3.983z
				 M83.27,3.983h-0.002H83.27L83.27,3.983z"/>
		</g>
		<g>
			<path d="M94.301,15.964l-2.622-6.668c-0.146-0.375-0.346-0.942-0.586-1.697l-0.675-2.076h-0.889l-0.046,0.525l0.091,1.819
				c0.035,0.698,0.054,1.297,0.054,1.794v6.303h-1.349V4.483h2.98l2.09,5.457c0.146,0.394,0.345,0.965,0.591,1.708l0.268,0.858
				l0.396,1.21h0.731l0.188-0.354l0.264-0.858l0.271-0.854c0.222-0.714,0.411-1.276,0.57-1.69l2.055-5.477h3.06v11.48h-1.347V9.661
				c0-0.535,0.014-1.144,0.044-1.825l0.117-2.377h-0.889l-0.186,0.346l-0.281,0.868L98.93,7.547
				c-0.25,0.764-0.441,1.333-0.579,1.701l-2.594,6.716H94.301z"/>
			<path d="M101.243,4.983v10.48h-0.347V9.661c0-0.553,0.015-1.16,0.044-1.799l0.045-0.931l0.046-0.923l0.051-1.026H101.243
				 M99.224,4.983l-0.216,0.668L98.723,6.53l-0.266,0.855c-0.272,0.834-0.45,1.354-0.571,1.678l-2.472,6.4h-0.772l-2.496-6.348
				c-0.111-0.287-0.302-0.81-0.578-1.673l-0.281-0.87l-0.28-0.86l-0.226-0.69h-0.726h-0.072h-1.051l0.052,1.049l0.045,0.906
				l0.046,0.915c0.036,0.693,0.054,1.288,0.054,1.768v5.803h-0.349V4.983h2.137l1.963,5.126c0.146,0.395,0.344,0.96,0.581,1.679
				l0.275,0.881l0.281,0.858l0.226,0.688h0.725h0.08h0.739l0.217-0.706l0.261-0.851l0.273-0.864
				c0.217-0.699,0.404-1.256,0.562-1.664l1.932-5.148H99.224 M102.243,3.983h-3.906L96.162,9.78
				c-0.162,0.421-0.355,0.994-0.58,1.719l-0.271,0.858l-0.264,0.858h-0.08l-0.281-0.858l-0.271-0.867
				c-0.248-0.75-0.449-1.327-0.599-1.729l-2.213-5.778h-3.824v12.481h2.349V9.661c0-0.505-0.019-1.112-0.055-1.819l-0.046-0.914
				l-0.045-0.905h0.072l0.28,0.86l0.281,0.868c0.245,0.768,0.448,1.344,0.598,1.728l2.746,6.985h2.14l2.719-7.04
				c0.14-0.372,0.334-0.948,0.589-1.728l0.271-0.869l0.281-0.868h0.073l-0.046,0.923l-0.045,0.932
				c-0.031,0.689-0.045,1.305-0.045,1.847v6.802h2.347V3.983L102.243,3.983z"/>
		</g>
		<g>
			<polygon points="104.673,15.964 104.673,4.483 112.137,4.483 112.137,5.477 106.02,5.477 106.02,9.695 111.82,9.695 
				111.82,10.442 106.02,10.442 106.02,14.971 112.191,14.971 112.191,15.964 			"/>
			<path d="M105.52,4.983v0.994v3.218v0.747v1v3.529v0.993h-0.347V4.983H105.52 M112.637,3.983h-8.464v12.481h8.519v-1.993h-6.172
				v-3.529h5.801V9.195h-5.801V5.977h6.117V3.983L112.637,3.983z"/>
		</g>
	</g>
</g>
</svg>
