<?xml version="1.0" encoding="utf-8"?>
<!-- Generator: Adobe Illustrator 16.0.0, SVG Export Plug-In . SVG Version: 6.00 Build 0)  -->
<!DOCTYPE svg PUBLIC "-//W3C//DTD SVG 1.1//EN" "http://www.w3.org/Graphics/SVG/1.1/DTD/svg11.dtd">
<svg version="1.1" id="Layer_1" xmlns="http://www.w3.org/2000/svg" xmlns:xlink="http://www.w3.org/1999/xlink" x="0px" y="0px"
	 width="110.667px" height="501px" viewBox="-9.667 0 110.667 501" enable-background="new -9.667 0 110.667 501"
	 xml:space="preserve">
<path fill="none" stroke="#000000" stroke-miterlimit="10" d="M1.667,407.5c-1.512,0-5.804-0.608-4.229,4.469
	c3.344,10.781-6.249,72.749-2.354,77.115c2.75,3.083,4.038-1.442,4.917-1.459"/>
<path fill="none" stroke="#000000" stroke-miterlimit="10" d="M0,421.5c-1.123,0-2.063,1.563-1.375,6.375
	C0.747,442.725-15.63,479.534-4.408,482c2.845,0.625,3.347-3.147,4.408-3.167"/>
<path d="M101,411.242v-1.36h-3.782v-1.941H45.857v2.074h-6.982v-2.074h-26.72v-3.687H0v3.687v2.137v1.917h2.073v6.984H0v5.095h3.127
	v6.986H0v63.194h2.763V501h1.455v-6.746h6.959v-75.131h86.041v-3.42h2.714v-1.164h-2.714v-3.297H101z M17.75,409.938h-5.563v-1.25
	h5.563V409.938z M24.438,409.938h-5.563v-1.25h5.563V409.938z M31.125,409.938h-5.563v-1.25h5.563V409.938z M37.813,409.938H32.25
	v-1.25h5.563V409.938z"/>
<rect x="-0.51" y="477.938" width="2.333" height="2.25"/>
<rect x="-0.354" y="486.5" width="2.333" height="2.25"/>
<rect x="-0.354" y="420.375" width="2.333" height="2.25"/>
<rect x="-0.667" y="406.353" width="2.333" height="2.25"/>
</svg>
