<?xml version="1.0" encoding="utf-8"?>
<!-- Generator: Adobe Illustrator 16.0.0, SVG Export Plug-In . SVG Version: 6.00 Build 0)  -->
<!DOCTYPE svg PUBLIC "-//W3C//DTD SVG 1.1//EN" "http://www.w3.org/Graphics/SVG/1.1/DTD/svg11.dtd">
<svg version="1.1" id="Layer_1" xmlns="http://www.w3.org/2000/svg" xmlns:xlink="http://www.w3.org/1999/xlink" x="0px" y="0px"
	 width="32px" height="414.128px" viewBox="0 0 32 414.128" enable-background="new 0 0 32 414.128" xml:space="preserve">
<path d="M14.602,0h-1.159h-2.345v2.342C2.512,9.146-0.605,20.542,0.786,39.191c1.052,14.087,5.5,24.234,10.312,32.41v61.028
	c-1.005,1.199-2.045,2.419-3.171,3.687c-14.219,16.039-6.9,27.444,3.171,37.942v55.253h2.345v181.713H6.26v3.246h7.183h4.689h7.183
	v-3.246h-7.183V229.511h2.345v-4.982c5.02-1.58,12.082-4.416,11.488-23.118c-0.225-7.123-5.35-13.241-11.488-19.449v-60.011
	c10.973-17.413,6.998-27.135,0-38.006V0h-2.345h-2.345 M30.793,201.45c0.549,17.336-5.672,20.325-10.316,21.828v-39.626
	C26.066,189.393,30.592,195.069,30.793,201.45z M20.477,119.762V86.145C26.566,95.951,29.438,104.774,20.477,119.762z M1.957,39.101
	C0.396,18.206,5.078,8.91,11.098,3.827v65.449C6.693,61.469,2.926,52.088,1.957,39.101z M8.798,137.116
	c0.798-0.901,1.561-1.783,2.3-2.65v38.066C1.877,162.667-4.31,151.899,8.798,137.116z"/>
<rect x="11.313" y="377.439" width="9.375" height="10.25"/>
<rect x="11.313" y="401.314" width="9.375" height="10.25"/>
<polyline fill="none" stroke="#000000" stroke-miterlimit="10" points="16,396.897 9.5,396.897 9.5,411.224 "/>
<polyline fill="none" stroke="#000000" stroke-miterlimit="10" points="16,404.314 23.208,404.314 23.208,411.224 "/>
<g>
	<rect x="11.917" y="377.981" fill="#FFFFFF" width="1.333" height="1.25"/>
	<rect x="11.916" y="380.599" fill="#FFFFFF" width="1.334" height="1.25"/>
	<rect x="11.917" y="383.217" fill="#FFFFFF" width="1.333" height="1.25"/>
	<rect x="11.917" y="385.835" fill="#FFFFFF" width="1.333" height="1.25"/>
</g>
<path d="M11.313,390.064v10.25h9.375v-10.25H11.313z M20.167,399.742h-1.333v-1.25h1.333V399.742z M20.167,397.124h-1.333v-1.25
	h1.333V397.124z M20.167,394.505h-1.334v-1.25h1.334V394.505z M20.167,391.887h-1.333v-1.25h1.333V391.887z"/>
</svg>
