<?xml version="1.0" encoding="utf-8"?>
<!-- Generator: Adobe Illustrator 16.0.0, SVG Export Plug-In . SVG Version: 6.00 Build 0)  -->
<!DOCTYPE svg PUBLIC "-//W3C//DTD SVG 1.1//EN" "http://www.w3.org/Graphics/SVG/1.1/DTD/svg11.dtd">
<svg version="1.1" id="Layer_1" xmlns="http://www.w3.org/2000/svg" xmlns:xlink="http://www.w3.org/1999/xlink" x="0px" y="0px"
	 width="101px" height="501px" viewBox="0 0 101 501" enable-background="new 0 0 101 501" xml:space="preserve">
<g>
	<polygon points="101,411.242 101,409.882 97.218,409.882 97.218,407.94 45.857,407.94 45.857,410.015 38.875,410.015 
		38.875,407.94 12.155,407.94 12.155,404.254 0,404.254 0,407.94 0,410.077 0,411.994 2.073,411.994 2.073,418.979 0,418.979 
		0,424.073 3.127,424.073 3.127,431.06 0,431.06 0,494.254 2.763,494.254 2.763,501 4.218,501 4.218,494.254 11.177,494.254 
		11.177,419.123 97.218,419.123 97.218,415.703 99.932,415.703 99.932,414.539 97.218,414.539 97.218,411.242 	"/>
</g>
</svg>
