<?xml version="1.0" encoding="utf-8"?>
<!-- Generator: Adobe Illustrator 16.0.0, SVG Export Plug-In . SVG Version: 6.00 Build 0)  -->
<!DOCTYPE svg PUBLIC "-//W3C//DTD SVG 1.1//EN" "http://www.w3.org/Graphics/SVG/1.1/DTD/svg11.dtd">
<svg version="1.1" id="Layer_1" xmlns="http://www.w3.org/2000/svg" xmlns:xlink="http://www.w3.org/1999/xlink" x="0px" y="0px"
	 width="96px" height="30px" viewBox="0 0 96 30" enable-background="new 0 0 96 30" xml:space="preserve">
<g>
	<polygon points="87.478,14.457 87.478,7.049 92.273,7.049 92.273,4.761 87.478,4.761 87.478,0 0,0 0,21.507 7.556,21.507 
		7.556,27.77 9.88,27.77 9.88,21.507 14.301,21.507 14.301,30 16.625,30 16.625,21.507 76.629,21.507 76.629,25.424 78.955,25.424 
		78.955,21.507 87.478,21.507 87.478,16.745 96,16.745 96,14.457 	"/>
	<g>
		<path fill="#FFFFFF" d="M31.559,5.608h1.866l-2.996,9.15h-2.712l-2.969-9.15h1.832l1.744,5.182
			c0.163,0.496,0.406,1.327,0.729,2.494h0.048l0.177-0.624c0.218-0.778,0.404-1.399,0.559-1.864L31.559,5.608z"/>
		<path fill="#FFFFFF" d="M35.959,5.608v9.15h-1.765v-9.15H35.959z"/>
		<path fill="#FFFFFF" d="M37.607,14.759v-9.15h4.569c1.298,0,2.208,0.279,2.728,0.838c0.521,0.559,0.78,1.537,0.78,2.936
			c0,2.284-0.209,3.75-0.627,4.401c-0.417,0.65-1.36,0.976-2.827,0.976H37.607z M39.371,13.297h2.513
			c0.845,0,1.39-0.191,1.638-0.573c0.247-0.382,0.371-1.226,0.371-2.53c0-1.35-0.111-2.208-0.334-2.575
			c-0.223-0.366-0.744-0.549-1.566-0.549h-2.621V13.297z"/>
		<path fill="#FFFFFF" d="M48.551,7.07v2.359h4.358v1.281h-4.358v2.587h4.638v1.461h-6.402v-9.15h6.361V7.07H48.551z"/>
		<path fill="#FFFFFF" d="M58.364,5.528c1.69,0,2.777,0.276,3.264,0.828c0.485,0.552,0.729,1.786,0.729,3.704
			c0,2.096-0.244,3.417-0.732,3.962c-0.488,0.545-1.669,0.817-3.545,0.817c-1.689,0-2.781-0.269-3.275-0.808
			c-0.495-0.538-0.742-1.724-0.742-3.556c0-2.181,0.242-3.55,0.729-4.109C55.275,5.807,56.467,5.528,58.364,5.528z M58.229,7.016
			c-1.185,0-1.877,0.15-2.077,0.449c-0.199,0.299-0.3,1.336-0.3,3.11c0,1.314,0.117,2.105,0.352,2.373
			c0.233,0.268,0.922,0.402,2.066,0.402c1.094,0,1.75-0.15,1.969-0.452c0.218-0.302,0.327-1.216,0.327-2.745
			c0-1.533-0.104-2.439-0.31-2.718C60.049,7.156,59.373,7.016,58.229,7.016z"/>
	</g>
</g>
</svg>
