<?xml version="1.0" encoding="utf-8"?>
<!-- Generator: Adobe Illustrator 16.0.0, SVG Export Plug-In . SVG Version: 6.00 Build 0)  -->
<!DOCTYPE svg PUBLIC "-//W3C//DTD SVG 1.1//EN" "http://www.w3.org/Graphics/SVG/1.1/DTD/svg11.dtd">
<svg version="1.1" id="Layer_1" xmlns="http://www.w3.org/2000/svg" xmlns:xlink="http://www.w3.org/1999/xlink" x="0px" y="0px"
	 width="114px" height="221px" viewBox="0 -89.667 114 221" enable-background="new 0 -89.667 114 221" xml:space="preserve">
<polyline fill="none" stroke="#000000" stroke-width="3" stroke-miterlimit="10" points="5.833,-90 5.833,111.875 22,111.875 "/>
<path d="M11-43.417v-2.167H1.25v23.75H11V-24H9.5v-1.75H11v-1.783H9.5v-1.75H11v-1.783H9.5v-1.75H11V-34.6H9.5v-1.751H11v-1.783H9.5
	v-1.75H11v-1.783H9.5v-1.75H11z M2.795-22.625H1.791v-22.188h1.004V-22.625z"/>
<path d="M8.583,51.082v-1.75H11v-1.783H8.583v-1.75H11v-1.783H8.583v-1.75H11v-1.783H8.583v-1.75H11v-1.783H8.584v-1.75H11v-1.783
	H8.583v-1.75H11v-2H1.25v23.75H11v-2.334H8.583z M2.75,51.729H1.747v-21H2.75V51.729z"/>
<path d="M11,72.25v-2.334H1.25v23.75H11v-2H8.583v-1.75H11v-1.783H8.584v-1.75H11V84.6H8.583v-1.75H11v-1.783H8.583v-1.75H11v-1.783
	H8.583v-1.75H11V74H8.583v-1.75H11z M2.75,92.604H1.747v-21H2.75V92.604z"/>
<path d="M1.25-76.625v2.166h1.5v1.75h-1.5v1.783h1.5v1.75h-1.5v1.783h1.5v1.751h-1.5v1.783h1.5v1.75h-1.5v1.783h1.5v1.75h-1.5v1.783
	h1.5v1.75h-1.5v2.167H11v-23.75H1.25z M9.063-53.688c-0.46,0-0.833-0.373-0.833-0.834c0-0.46,0.373-0.833,0.833-0.833
	s0.833,0.373,0.833,0.833C9.896-54.061,9.523-53.688,9.063-53.688z"/>
<line fill="none" stroke="#000000" stroke-width="2" stroke-miterlimit="10" x1="5.833" y1="-13.875" x2="10.125" y2="-13.875"/>
<line fill="none" stroke="#000000" stroke-width="2" stroke-miterlimit="10" x1="5.833" y1="-1.5" x2="10.125" y2="-1.5"/>
<path d="M1.25-90v2.875h14.875V-90H1.25z M14.734-87.563c-0.553,0-1-0.448-1-1s0.447-1,1-1s1,0.448,1,1S15.287-87.563,14.734-87.563
	z"/>
<path fill="none" stroke="#000000" stroke-width="0.5" stroke-miterlimit="10" d="M2.5-88.563C1.25-70.25,10.813-53.5,7.75-46.063
	c-3.138,7.62-0.235,22.47,0.229,26.813C11,9,3.25,1.755,3.75,12.755c0.5,11,19.125,14.12,7.25,49.12
	c-8.666,25.542-8.619,40-7.625,42.875c2.717,7.856,7,7.125,12.75,7.125"/>
<g>
	<polygon fill="#FFFFFF" points="32.801,131.166 32.801,122.666 27.381,122.666 27.381,128.936 26.061,128.936 26.061,122.666 
		18.5,122.666 18.5,102.166 104.98,102.166 104.98,106.926 109.779,106.926 109.779,108.227 104.98,108.227 104.98,116.628 
		113.5,116.618 113.5,117.916 104.98,117.916 104.98,122.686 96.451,122.686 96.451,126.586 95.121,126.586 95.121,122.666 
		34.121,122.666 34.121,131.166 	"/>
	<path d="M104.48,102.666v3.76v1h1h3.799v0.301h-3.799h-1v1v7.4v1.001l1.001-0.001l7.519-0.009v0.298h-7.52h-1v1v3.77h-7.529h-1v1
		v2.9h-0.33v-2.92v-1h-1h-60h-1v1v7.5h-0.32v-7.5v-1h-1h-4.42h-1v1v5.27h-0.32v-5.27v-1h-1H19v-19.5H104.48 M105.48,101.666H18v21.5
		h7.561v6.27h2.32v-6.27h4.42v8.5h2.32v-8.5h60v3.92h2.33v-3.9h8.529v-4.77H114v-2.299l-8.52,0.01v-7.4h4.799v-2.301h-4.799V101.666
		L105.48,101.666z"/>
</g>
<g>
	<path d="M49.561,107.267h1.87l-3,9.159h-2.7l-2.99-9.159h1.83l1.74,5.2c0.17,0.5,0.4,1.32,0.73,2.48h0.049l0.181-0.621
		c0.22-0.779,0.399-1.4,0.56-1.859l1.721-5.2H49.561z M53.961,107.267v9.159h-1.76v-9.159H53.961z M55.601,116.426v-9.159h4.58
		c1.3,0,2.2,0.3,2.72,0.851c0.53,0.559,0.78,1.529,0.78,2.93c0,2.299-0.2,3.75-0.62,4.4c-0.42,0.648-1.359,0.979-2.83,0.979H55.601z
		 M57.371,114.967h2.5c0.859,0,1.399-0.201,1.649-0.58c0.25-0.381,0.37-1.221,0.37-2.531c0-1.359-0.12-2.199-0.34-2.579
		c-0.221-0.37-0.75-0.55-1.57-0.55h-2.63v6.23L57.371,114.967z M66.551,108.736v2.36h4.359v1.28h-4.35v2.6h4.641v1.459h-6.4v-9.169
		h6.35v1.47H66.551z M76.359,107.197c1.701,0,2.781,0.27,3.271,0.829c0.479,0.55,0.729,1.78,0.729,3.7c0,2.1-0.25,3.42-0.738,3.959
		c-0.48,0.551-1.66,0.82-3.541,0.82c-1.699,0-2.779-0.27-3.27-0.799c-0.5-0.551-0.74-1.73-0.74-3.561c0-2.199,0.25-3.55,0.73-4.1
		C73.279,107.477,74.471,107.197,76.359,107.197z M76.23,108.697c-1.201,0-1.881,0.139-2.08,0.43c-0.199,0.299-0.301,1.34-0.301,3.1
		c0,1.33,0.121,2.119,0.352,2.4c0.238,0.26,0.93,0.398,2.068,0.398c1.102,0,1.75-0.158,1.971-0.459s0.33-1.221,0.33-2.75
		s-0.1-2.439-0.301-2.72C78.051,108.826,77.371,108.696,76.23,108.697L76.23,108.697z"/>
</g>
</svg>
