<?xml version="1.0" encoding="utf-8"?>
<!-- Generator: Adobe Illustrator 16.0.0, SVG Export Plug-In . SVG Version: 6.00 Build 0)  -->
<!DOCTYPE svg PUBLIC "-//W3C//DTD SVG 1.1//EN" "http://www.w3.org/Graphics/SVG/1.1/DTD/svg11.dtd">
<svg version="1.1" id="Layer_1" xmlns="http://www.w3.org/2000/svg" xmlns:xlink="http://www.w3.org/1999/xlink" x="0px" y="0px"
	 width="96px" height="30px" viewBox="0 0 96 30" enable-background="new 0 0 96 30" xml:space="preserve">
<g>
	<g>
		<polygon fill="#FFFFFF" points="14.801,29.5 14.801,21.007 9.38,21.007 9.38,27.27 8.056,27.27 8.056,21.007 0.5,21.007 0.5,0.5 
			86.979,0.5 86.979,5.261 91.773,5.261 91.773,6.549 86.979,6.549 86.979,14.957 95.5,14.957 95.5,16.245 86.979,16.245 
			86.979,21.007 78.455,21.007 78.455,24.924 77.129,24.924 77.129,21.007 16.125,21.007 16.125,29.5 		"/>
		<path d="M86.479,1v3.761v1h1h3.795v0.288h-3.795h-1v1v7.408v1h1H95v0.288h-7.521h-1v1v3.762h-7.523h-1v1v2.917h-0.326v-2.917v-1
			h-1H16.625h-1v1V29h-0.324v-7.493v-1h-1H9.88h-1v1v5.263H8.556v-5.263v-1h-1H1V1H86.479 M87.479,0H0v21.507h7.556v6.263H9.88
			v-6.263h4.421V30h2.324v-8.493h60.004v3.917h2.326v-3.917h8.523v-4.762H96v-2.288h-8.521V7.049h4.795V4.761h-4.795V0L87.479,0z"/>
	</g>
	<g>
		<g>
			<path d="M28.08,14.258l-2.644-8.15h0.785l1.629,4.842c0.16,0.488,0.401,1.312,0.721,2.468l0.102,0.367h0.758l0.151-0.364
				l0.177-0.624c0.216-0.77,0.399-1.383,0.553-1.842l1.608-4.846h0.815l-2.668,8.15H28.08z"/>
			<path d="M33.425,5.608h-1.866l-1.722,5.188c-0.155,0.465-0.341,1.086-0.559,1.864l-0.177,0.624h-0.048
				c-0.323-1.167-0.566-1.998-0.729-2.494L26.58,5.608h-1.832l2.969,9.15h2.712L33.425,5.608L33.425,5.608z"/>
		</g>
		<g>
			<rect x="34.694" y="6.108" width="0.765" height="8.15"/>
			<polygon points="35.959,5.608 34.194,5.608 34.194,14.758 35.959,14.758 35.959,5.608 			"/>
		</g>
		<g>
			<path d="M38.107,14.259v-8.15h4.069c1.148,0,1.943,0.229,2.362,0.679c0.429,0.46,0.646,1.333,0.646,2.595
				c0,2.709-0.298,3.742-0.548,4.131c-0.313,0.488-1.145,0.746-2.406,0.746l0,0L38.107,14.259z M38.871,13.797h3.013
				c1.035,0,1.708-0.262,2.058-0.8c0.308-0.478,0.452-1.368,0.452-2.803c0-1.941-0.232-2.548-0.407-2.834
				c-0.324-0.531-0.976-0.79-1.993-0.79h-3.121L38.871,13.797z"/>
			<path d="M42.176,5.609h-4.569v9.15l4.623,0.001c1.467,0,2.41-0.326,2.827-0.976c0.418-0.651,0.627-2.117,0.627-4.401
				c0-1.399-0.259-2.377-0.78-2.936C44.384,5.888,43.474,5.609,42.176,5.609L42.176,5.609z M39.371,13.297l0.001-6.227h2.621
				c0.822,0,1.343,0.183,1.566,0.549c0.223,0.367,0.334,1.225,0.334,2.575c0,1.304-0.124,2.148-0.371,2.53
				c-0.248,0.382-0.793,0.573-1.638,0.573H39.371L39.371,13.297z"/>
		</g>
		<g>
			<polygon points="47.288,14.258 47.288,6.108 52.648,6.108 52.648,6.57 48.051,6.57 48.051,9.929 52.409,9.929 52.409,10.21 
				48.051,10.21 48.051,13.797 52.689,13.797 52.689,14.258 			"/>
			<polygon points="53.148,5.608 46.788,5.608 46.788,14.758 53.189,14.758 53.189,13.297 48.551,13.297 48.551,10.71 52.909,10.71 
				52.909,9.429 48.551,9.429 48.551,7.07 53.148,7.07 53.148,5.608 			"/>
		</g>
		<g>
			<path d="M58.08,14.339c-1.913,0-2.637-0.351-2.907-0.646c-0.228-0.249-0.61-0.997-0.61-3.218c0-2.685,0.38-3.521,0.606-3.78
				c0.216-0.25,0.917-0.667,3.194-0.667c1.907,0,2.624,0.358,2.89,0.659c0.226,0.256,0.604,1.036,0.604,3.373
				c0,2.57-0.379,3.376-0.604,3.628C61.035,13.931,60.333,14.339,58.08,14.339z M58.229,6.516c-1.434,0-2.179,0.201-2.492,0.671
				c-0.19,0.288-0.385,0.915-0.385,3.388c0,1.904,0.242,2.436,0.479,2.704c0.343,0.394,1.096,0.571,2.439,0.571
				c1.311,0,2.043-0.203,2.374-0.657c0.21-0.291,0.423-0.877,0.423-3.04c0-2.172-0.207-2.744-0.409-3.016
				C60.334,6.702,59.607,6.516,58.229,6.516z"/>
			<path d="M58.363,5.528c-1.896,0-3.088,0.279-3.571,0.838c-0.487,0.559-0.729,1.928-0.729,4.109c0,1.832,0.248,3.018,0.742,3.556
				c0.494,0.539,1.586,0.808,3.275,0.808c1.876,0,3.057-0.272,3.545-0.817s0.732-1.866,0.732-3.962c0-1.918-0.244-3.152-0.729-3.704
				C61.141,5.804,60.055,5.528,58.363,5.528L58.363,5.528z M58.27,13.35c-1.143,0-1.832-0.134-2.064-0.402
				c-0.236-0.268-0.354-1.059-0.354-2.373c0-1.774,0.103-2.811,0.301-3.11c0.199-0.299,0.892-0.449,2.076-0.449
				c1.145,0,1.82,0.14,2.027,0.419s0.311,1.185,0.311,2.718c0,1.529-0.108,2.443-0.326,2.745C60.02,13.2,59.365,13.35,58.27,13.35
				L58.27,13.35z"/>
		</g>
	</g>
</g>
</svg>
