<?xml version="1.0" encoding="utf-8"?>
<!-- Generator: Adobe Illustrator 16.0.0, SVG Export Plug-In . SVG Version: 6.00 Build 0)  -->
<!DOCTYPE svg PUBLIC "-//W3C//DTD SVG 1.1//EN" "http://www.w3.org/Graphics/SVG/1.1/DTD/svg11.dtd">
<svg version="1.1" id="Layer_1" xmlns="http://www.w3.org/2000/svg" xmlns:xlink="http://www.w3.org/1999/xlink" x="0px" y="0px"
	 width="81px" height="229px" viewBox="-51.625 -89.667 81 229" enable-background="new -51.625 -89.667 81 229"
	 xml:space="preserve">
<polyline fill="none" stroke="#000000" stroke-width="4" stroke-miterlimit="10" points="23.5,-90 23.5,119.333 6.333,119.333 "/>
<rect x="14.75" y="48.667" width="7.167" height="11.999"/>
<circle fill="#FFFFFF" cx="15.916" cy="49.938" r="0.531"/>
<polygon points="16.5,86.334 16.5,87.375 18.167,87.375 18.167,88.438 16.5,88.438 16.5,94 18.167,94 18.167,95.063 16.5,95.063 
	16.5,98.333 23.667,98.333 23.667,86.334 "/>
<path fill="none" stroke="#000000" stroke-width="0.5" stroke-miterlimit="10" d="M19.667-84c0,0-1.253,5.791-0.251,11.25
	C21.833-59.583,30.333-59,26.667-40.833c-1.246,6.173,4.078,39.01-3.709,44.25c-6.563,4.417,3.519,10.893,3.438,20.333
	c-0.063,7.313-13.456,7.418-6.125,18c12.125,17.5,9.843,42.346,5.938,57.25c-1.231,4.699,3.563,18.325-1.625,18.313"/>
<line fill="none" stroke="#000000" stroke-width="0.5" stroke-miterlimit="10" x1="24.521" y1="-38.813" x2="27.125" y2="-38.813"/>
<line fill="none" stroke="#000000" stroke-width="0.5" stroke-miterlimit="10" x1="24.521" y1="-4.188" x2="27.125" y2="-4.188"/>
<rect x="18.333" y="-78.281" width="1.328" height="0.719"/>
<rect x="25.058" y="116.484" width="0.719" height="1.078"/>
<path d="M10.083-90v11.999h17.5V-90H10.083z M11.427-89.406c0.293,0,0.531,0.238,0.531,0.531s-0.238,0.531-0.531,0.531
	s-0.531-0.238-0.531-0.531S11.134-89.406,11.427-89.406z M16.333-78.875h-5.5v-2.25h5.5V-78.875z"/>
<path d="M11.958-46.875v1.167h1.479v0.688h-1.479v1.042h1.479v0.688h-1.479v1.042h1.479v0.688h-1.479v1.042h1.479v0.688h-1.479
	v1.041h1.479v0.688h-1.479v1.042h1.479v0.688h-1.479v1.042h1.479v0.688h-1.479v1.041h1.479v0.688h-1.479v1.042h1.479v0.688h-1.479
	v1.042h1.479v0.688h-1.479v1.01h1.479v0.688h-1.479v1.042h1.479v0.687h-1.479v1.042h1.479v0.688h-1.479v1.042h1.479v0.688h-1.479
	v1.042h1.479v0.688h-1.479v1.041h1.479v0.688h-1.479v1.042h1.479v0.688h-1.479v1.042h1.479v0.688h-1.479v1.041h1.479v0.688h-1.479
	v1.042h1.479v0.688h-1.479v9.073h11v-43.75H11.958z M19.271-4.188h-3.625V-6.5h3.625V-4.188z M19.271-9.5h-3.625v-36.25h3.625V-9.5z
	"/>
<path d="M10.083,107.476h-62v22.12h26.15v9.88h2.3v-9.88H4.612v5.44h2.301v-5.44h3.17V107.476z"/>
<g>
	<path fill="#FFFFFF" d="M-22.157,113.245l-2.47,9.4h-2.6l-1.28-4.82c-0.12-0.439-0.26-1.02-0.4-1.75l-0.14-0.58h-0.06l-0.14,0.601
		l-0.13,0.569c-0.1,0.381-0.2,0.771-0.3,1.16l-1.32,4.82h-2.56l-2.4-9.4h1.8l1.32,5.15c0.07,0.33,0.17,0.8,0.3,1.37l0.14,0.7
		l0.13,0.68h0.06c0.08-0.3,0.13-0.529,0.17-0.7l0.16-0.67c0.08-0.35,0.2-0.8,0.36-1.36l1.42-5.17h2.05l1.38,5.17
		c0.1,0.44,0.23,0.9,0.34,1.371l0.16,0.699l0.16,0.68h0.09l0.14-0.699l0.14-0.68c0.12-0.551,0.23-1,0.32-1.381l1.37-5.149h1.8
		L-22.157,113.245z M-19.767,114.745v2.431h4.32v1.3h-4.32v2.67h4.6v1.5h-6.35v-9.4h6.3v1.5H-19.767z M-13.867,122.655v-9.399h4.54
		c1.051,0,1.78,0.159,2.16,0.5c0.4,0.35,0.58,1,0.58,1.97c0,1.16-0.45,1.85-1.359,2.05v0.04c1.059,0.16,1.6,0.9,1.6,2.24
		c0,0.96-0.221,1.63-0.62,2.02c-0.4,0.4-1.12,0.58-2.13,0.58h-4.78H-13.867z M-12.106,117.195h2.149c0.7,0,1.14-0.079,1.33-0.239
		c0.2-0.15,0.28-0.5,0.28-1.08c0-0.75-0.42-1.131-1.25-1.131h-2.5v2.45H-12.106z M-12.106,121.155h1.93l0.6-0.02
		c0.6,0,1-0.08,1.18-0.25c0.181-0.17,0.301-0.52,0.301-1.07c0-0.57-0.1-0.93-0.301-1.07c-0.199-0.149-0.699-0.229-1.459-0.229
		h-2.261v2.649L-12.106,121.155z"/>
</g>
</svg>
