<?xml version="1.0" encoding="utf-8"?>
<!-- Generator: Adobe Illustrator 16.0.0, SVG Export Plug-In . SVG Version: 6.00 Build 0)  -->
<!DOCTYPE svg PUBLIC "-//W3C//DTD SVG 1.1//EN" "http://www.w3.org/Graphics/SVG/1.1/DTD/svg11.dtd">
<svg version="1.1" id="Layer_1" xmlns="http://www.w3.org/2000/svg" xmlns:xlink="http://www.w3.org/1999/xlink" x="0px" y="0px"
	 width="62px" height="32px" viewBox="0 0 62 32" enable-background="new 0 0 62 32" xml:space="preserve">
<g>
	<g>
		<polygon fill="#FFFFFF" points="26.65,31.5 26.65,21.617 0.5,21.617 0.5,0.5 61.5,0.5 61.5,21.617 58.342,21.617 58.342,27.063 
			57.034,27.063 57.034,21.617 27.958,21.617 27.958,31.5 		"/>
		<path d="M61,1v20.117h-2.158h-1v1v4.445h-0.308v-4.445v-1h-1H28.458h-1v1V31H27.15v-8.883v-1h-1H1V1H61 M62,0H0v22.117h26.15V32
			h2.308v-9.883h28.076v5.445h2.308v-5.445H62V0L62,0z"/>
	</g>
	<g>
		<g>
			<path d="M25.086,14.677l-1.185-4.454c-0.116-0.432-0.251-1.008-0.407-1.729l-0.217-0.973h-0.798l-0.15,0.387l-0.136,0.585
				l-0.129,0.585c-0.091,0.375-0.189,0.759-0.298,1.145l-1.218,4.454h-1.792l-2.139-8.41h0.754l1.235,4.789
				c0.078,0.32,0.179,0.771,0.299,1.349l0.143,0.689l0.213,1.088h0.807l0.152-0.384l0.325-1.373
				c0.084-0.354,0.202-0.806,0.353-1.356l1.32-4.802h1.289l1.288,4.799c0.116,0.437,0.229,0.89,0.342,1.36l0.407,1.756h0.8
				l0.139-0.395l0.292-1.382c0.114-0.546,0.22-0.998,0.312-1.356l1.266-4.781l0.759,0l-2.205,8.409H25.086z"/>
			<path d="M23.123,6.767l0.068,0.254h-0.314h-0.061h-0.288l0.07-0.254H23.123 M29.759,5.767l-1.792,0.001l-1.365,5.156
				c-0.094,0.364-0.201,0.823-0.318,1.379l-0.143,0.689l-0.148,0.69h-0.054l-0.162-0.69l-0.155-0.683
				c-0.114-0.474-0.228-0.931-0.345-1.372l-1.387-5.17h-2.054l-1.421,5.17c-0.153,0.557-0.272,1.014-0.357,1.372l-0.163,0.683
				c-0.036,0.156-0.09,0.386-0.162,0.69h-0.061l-0.135-0.69l-0.143-0.689c-0.121-0.584-0.224-1.041-0.304-1.372l-1.332-5.164h-1.785
				l2.393,9.41h2.563l1.318-4.819c0.11-0.391,0.21-0.781,0.305-1.172l0.128-0.58l0.136-0.585h0.061L23.006,8.6
				c0.158,0.73,0.295,1.314,0.412,1.751l1.284,4.826h2.59L29.759,5.767L29.759,5.767z"/>
		</g>
		<g>
			<polygon points="30.896,14.677 30.896,6.267 36.209,6.267 36.209,6.77 31.646,6.77 31.646,10.197 35.973,10.197 35.973,10.514 
				31.646,10.514 31.646,14.175 36.25,14.175 36.25,14.677 			"/>
			<polygon points="36.709,5.767 30.396,5.767 30.396,15.177 36.75,15.177 36.75,13.675 32.146,13.675 32.146,11.014 36.473,11.014 
				36.473,9.697 32.146,9.697 32.146,7.27 36.709,7.27 36.709,5.767 			"/>
		</g>
		<g>
			<path d="M38.555,14.678V6.267h4.035c1.222,0,1.677,0.246,1.839,0.392c0.188,0.17,0.413,0.584,0.413,1.589
				c0,1.193-0.519,1.464-0.971,1.568l-0.296,0.067c0.007-0.005,0.013-0.01,0.02-0.016c0.319-0.258,0.47-0.726,0.47-1.468
				c0-1.036-0.641-1.63-1.758-1.63h-3.002v3.447h2.645c0.747,0,1.229-0.084,1.533-0.269v0.748c-0.316-0.111-0.773-0.161-1.44-0.161
				h-2.737v3.641h2.42l0.627-0.014c0.724,0,1.201-0.122,1.49-0.384c0.304-0.276,0.444-0.735,0.444-1.447
				c0-0.754-0.157-1.224-0.494-1.476c-0.039-0.029-0.081-0.056-0.127-0.08l0.24,0.058c0.539,0.084,1.159,0.36,1.159,1.746
				c0,0.802-0.156,1.376-0.453,1.66c-0.302,0.288-0.916,0.44-1.776,0.44H38.555z"/>
			<path d="M42.59,5.767h-4.535v9.41h0.002v0.001h4.778c1.011,0,1.718-0.193,2.122-0.579c0.404-0.387,0.607-1.06,0.607-2.021
				c0-1.327-0.525-2.074-1.582-2.24v-0.035c0.906-0.207,1.359-0.892,1.359-2.055c0-0.96-0.193-1.613-0.578-1.961
				C44.378,5.94,43.652,5.767,42.59,5.767L42.59,5.767z M39.805,9.717V7.27h2.502c0.838,0,1.258,0.376,1.258,1.13
				c0,0.566-0.097,0.927-0.289,1.083c-0.188,0.156-0.633,0.234-1.326,0.234H39.805L39.805,9.717z M39.805,13.675v-2.641h2.237
				c0.771,0,1.254,0.074,1.45,0.221c0.195,0.146,0.294,0.505,0.294,1.075c0,0.548-0.093,0.906-0.28,1.076
				c-0.188,0.17-0.574,0.255-1.166,0.255l-0.615,0.014H39.805L39.805,13.675z"/>
		</g>
	</g>
</g>
</svg>
