<?xml version="1.0" encoding="utf-8"?>
<!-- Generator: Adobe Illustrator 16.0.0, SVG Export Plug-In . SVG Version: 6.00 Build 0)  -->
<!DOCTYPE svg PUBLIC "-//W3C//DTD SVG 1.1//EN" "http://www.w3.org/Graphics/SVG/1.1/DTD/svg11.dtd">
<svg version="1.1" id="Layer_1" xmlns="http://www.w3.org/2000/svg" xmlns:xlink="http://www.w3.org/1999/xlink" x="0px" y="0px"
	 width="62px" height="32px" viewBox="0 0 62 32" enable-background="new 0 0 62 32" xml:space="preserve">
<g>
	<polygon points="62,0 0,0 0,22.117 26.15,22.117 26.15,32 28.458,32 28.458,22.117 56.534,22.117 56.534,27.563 58.842,27.563 
		58.842,22.117 62,22.117 	"/>
	<g>
		<path fill="#FFFFFF" d="M29.759,5.767l-2.467,9.41h-2.59l-1.284-4.826c-0.117-0.437-0.254-1.021-0.412-1.751l-0.129-0.579h-0.061
			l-0.136,0.585l-0.128,0.58c-0.095,0.391-0.195,0.781-0.305,1.172l-1.318,4.819h-2.563l-2.393-9.41h1.785l1.332,5.164
			c0.08,0.331,0.183,0.788,0.304,1.372l0.143,0.689l0.135,0.69h0.061c0.072-0.304,0.126-0.534,0.162-0.69l0.163-0.683
			c0.085-0.358,0.204-0.815,0.357-1.372l1.421-5.17h2.054l1.387,5.17c0.117,0.441,0.231,0.898,0.345,1.372l0.155,0.683l0.162,0.69
			h0.054l0.148-0.69l0.143-0.689c0.117-0.556,0.224-1.015,0.318-1.379l1.365-5.156H29.759z"/>
		<path fill="#FFFFFF" d="M32.146,7.27v2.427h4.326v1.317h-4.326v2.661h4.604v1.502h-6.354v-9.41h6.313V7.27H32.146z"/>
		<path fill="#FFFFFF" d="M38.054,15.177v-9.41h4.536c1.063,0,1.788,0.173,2.174,0.52c0.385,0.348,0.578,1.001,0.578,1.961
			c0,1.163-0.453,1.848-1.359,2.055v0.035c1.055,0.166,1.582,0.913,1.582,2.24c0,0.961-0.203,1.634-0.609,2.021
			c-0.404,0.386-1.112,0.579-2.122,0.579H38.054z M39.805,9.717h2.143c0.694,0,1.138-0.078,1.328-0.234
			c0.192-0.156,0.288-0.517,0.288-1.083c0-0.754-0.42-1.13-1.258-1.13h-2.501V9.717z M39.805,13.675h1.92l0.615-0.014
			c0.591,0,0.979-0.085,1.166-0.255s0.28-0.528,0.28-1.076c0-0.57-0.098-0.929-0.294-1.075c-0.196-0.147-0.679-0.221-1.45-0.221
			h-2.237V13.675z"/>
	</g>
</g>
</svg>
