<?xml version="1.0" encoding="utf-8"?>
<!-- Generator: Adobe Illustrator 16.0.0, SVG Export Plug-In . SVG Version: 6.00 Build 0)  -->
<!DOCTYPE svg PUBLIC "-//W3C//DTD SVG 1.1//EN" "http://www.w3.org/Graphics/SVG/1.1/DTD/svg11.dtd">
<svg version="1.1" id="Layer_1" xmlns="http://www.w3.org/2000/svg" xmlns:xlink="http://www.w3.org/1999/xlink" x="0px" y="0px"
	 width="175px" height="22px" viewBox="0 0 175 22" enable-background="new 0 0 175 22" xml:space="preserve">
<g>
	<path d="M175,16.324h-8.251V8.083h6.223V5.741h-6.223V0H0v22h166.749v-3.336H175V16.324z M5.616,15.543H3.532V6.911h2.083V15.543z"
		/>
	<path fill="#FFFFFF" d="M42.206,16.463V3.982h6.08c1.425,0,2.396,0.23,2.913,0.69c0.516,0.46,0.774,1.327,0.774,2.601
		c0,1.542-0.607,2.451-1.821,2.725v0.045c1.414,0.22,2.12,1.21,2.12,2.972c0,1.274-0.272,2.167-0.815,2.68
		c-0.544,0.512-1.492,0.768-2.845,0.768H42.206z M44.552,9.222h2.873c0.93,0,1.523-0.104,1.78-0.311
		c0.257-0.208,0.385-0.686,0.385-1.436c0-1-0.562-1.499-1.685-1.499h-3.353V9.222z M44.552,14.469h2.573l0.824-0.018
		c0.792,0,1.313-0.113,1.563-0.338c0.25-0.226,0.376-0.701,0.376-1.427c0-0.756-0.132-1.231-0.395-1.426
		c-0.262-0.195-0.911-0.292-1.943-0.292h-2.999V14.469z"/>
	<path fill="#FFFFFF" d="M56.321,3.982v12.48h-2.347V3.982H56.321z"/>
	<path fill="#FFFFFF" d="M63.65,3.873c2.247,0,3.693,0.376,4.34,1.129c0.646,0.753,0.969,2.437,0.969,5.052
		c0,2.858-0.325,4.659-0.974,5.403c-0.649,0.744-2.221,1.115-4.715,1.115c-2.247,0-3.7-0.367-4.358-1.102
		c-0.659-0.734-0.987-2.352-0.987-4.85c0-2.975,0.323-4.843,0.969-5.605C59.541,4.254,61.126,3.873,63.65,3.873z M63.469,5.903
		c-1.577,0-2.498,0.204-2.764,0.612c-0.265,0.409-0.398,1.823-0.398,4.243c0,1.791,0.156,2.871,0.467,3.236s1.228,0.549,2.75,0.549
		c1.456,0,2.328-0.206,2.618-0.617c0.29-0.412,0.435-1.66,0.435-3.745c0-2.09-0.137-3.326-0.412-3.707
		C65.889,6.093,64.991,5.903,63.469,5.903z"/>
	<path fill="#FFFFFF" d="M75.41,9.825h5.445l0.036,2.478c0,1.805-0.337,2.967-1.01,3.488c-0.673,0.521-2.176,0.781-4.507,0.781
		c-2.138,0-3.554-0.348-4.249-1.043c-0.694-0.694-1.042-2.111-1.042-4.25c0-2.731,0.139-4.456,0.417-5.175
		c0.344-0.878,0.867-1.469,1.567-1.774c0.701-0.305,1.89-0.457,3.57-0.457c2.198,0,3.618,0.236,4.258,0.708s0.96,1.519,0.96,3.14
		h-2.374c-0.042-0.816-0.219-1.324-0.529-1.522c-0.312-0.198-1.092-0.297-2.342-0.297c-1.359,0-2.221,0.17-2.586,0.512
		c-0.366,0.342-0.548,1.143-0.548,2.405l-0.009,1.252l0.019,1.6c0,1.237,0.181,2.025,0.543,2.363s1.202,0.508,2.519,0.508
		c1.281,0,2.094-0.144,2.441-0.43c0.348-0.287,0.521-0.963,0.521-2.03l0.009-0.512H75.41V9.825z"/>
	<path fill="#FFFFFF" d="M82.54,16.463V3.982h6.098c1.516,0,2.561,0.265,3.134,0.796c0.573,0.53,0.86,1.49,0.86,2.88
		c0,1.262-0.143,2.125-0.43,2.587c-0.287,0.463-0.875,0.783-1.762,0.96v0.082c1.371,0.085,2.057,0.894,2.057,2.423v2.752h-2.348
		v-2.277c0-1.285-0.627-1.929-1.884-1.929h-3.379v4.206H82.54z M84.886,10.264h3.371c0.803,0,1.336-0.145,1.599-0.435
		c0.263-0.289,0.395-0.87,0.395-1.741c0-0.89-0.114-1.464-0.341-1.724c-0.227-0.259-0.723-0.388-1.49-0.388h-3.533V10.264z"/>
	<path fill="#FFFFFF" d="M101.981,14.067h-5.336l-0.77,2.396h-2.482l4.113-12.48h3.523l4.177,12.48h-2.437L101.981,14.067z
		 M101.438,12.321l-2.139-6.5l-2.102,6.5H101.438z"/>
	<path fill="#FFFFFF" d="M106.276,16.463V3.982h4.982h0.616c1.673,0,2.802,0.294,3.384,0.882c0.583,0.588,0.875,1.724,0.875,3.406
		c0,1.67-0.278,2.78-0.834,3.328c-0.556,0.548-1.68,0.823-3.37,0.823l-0.544,0.009h-2.764v4.032H106.276z M108.622,10.438h2.674
		c1.063,0,1.737-0.124,2.024-0.37c0.286-0.247,0.431-0.831,0.431-1.751c0-1.054-0.119-1.708-0.357-1.961
		c-0.239-0.252-0.86-0.379-1.863-0.379h-2.908V10.438z"/>
	<path fill="#FFFFFF" d="M128.12,3.982v12.48h-2.348v-5.395h-5.798v5.395h-2.347V3.982h2.347v5.093h5.798V3.982H128.12z"/>
	<path fill="#FFFFFF" d="M140.54,3.982l-4.584,7.717v4.764h-2.347v-4.764l-4.458-7.717h2.719l1.866,3.292
		c0.103,0.183,0.278,0.521,0.526,1.015l0.262,0.503l0.254,0.503h0.063l0.263-0.503l0.263-0.503c0.224-0.451,0.401-0.79,0.534-1.015
		l1.885-3.292H140.54z"/>
</g>
</svg>
