<?xml version="1.0" encoding="utf-8"?>
<!-- Generator: Adobe Illustrator 16.0.0, SVG Export Plug-In . SVG Version: 6.00 Build 0)  -->
<!DOCTYPE svg PUBLIC "-//W3C//DTD SVG 1.1//EN" "http://www.w3.org/Graphics/SVG/1.1/DTD/svg11.dtd">
<svg version="1.1" id="Layer_1" xmlns="http://www.w3.org/2000/svg" xmlns:xlink="http://www.w3.org/1999/xlink" x="0px" y="0px"
	 width="31px" height="523px" viewBox="0 0 31 523" enable-background="new 0 0 31 523" xml:space="preserve">
<path d="M1.242,523c-0.731-9.906,3.638-23.385,9.176-35.816V523h2.34h4.679h2.339v-54.26c1.556-2.73,3.046-5.223,4.379-7.318
	c12.754-20.078,5.575-47.611-4.379-74.238V258.255h-2.339V3.521h7.166V0h-7.166h-4.679H5.593v3.521h7.164v254.733h-2.34v26.673
	c-0.646,1.971-1.323,3.971-2.018,6.004c-5.803,17.004-12.381,36.275-4.863,57.676c2.006,5.709,4.37,11.711,6.881,17.994v117.736
	C4.359,497.504-0.661,512.225,0.071,523 M4.625,348.137c-7.354-20.936-0.86-39.961,4.87-56.748c0.311-0.916,0.617-1.814,0.922-2.717
	v74.725C8.312,358.096,6.337,353.012,4.625,348.137z M19.775,466.326v-75.717c9.248,25.377,15.379,51.24,3.422,70.068
	C22.141,462.34,20.98,464.258,19.775,466.326z"/>
</svg>
