<?xml version="1.0" encoding="utf-8"?>
<!-- Generator: Adobe Illustrator 16.0.0, SVG Export Plug-In . SVG Version: 6.00 Build 0)  -->
<!DOCTYPE svg PUBLIC "-//W3C//DTD SVG 1.1//EN" "http://www.w3.org/Graphics/SVG/1.1/DTD/svg11.dtd">
<svg version="1.1" id="Layer_1" xmlns="http://www.w3.org/2000/svg" xmlns:xlink="http://www.w3.org/1999/xlink" x="0px" y="0px"
	 width="12px" height="25.781px" viewBox="0 0 12 25.781" enable-background="new 0 0 12 25.781" xml:space="preserve">
<path d="M10.84,0c-0.338,0.643-0.75,1.296-1.201,1.967V0.008H8.445 M8.164,0.008H7.669v0.939C7.04,2.099,6.317,3.323,5.577,4.576
	c-3.643,6.16-7.772,13.142-4.218,16.804c0.677,0.697,1.514,1.051,2.444,1.051c0.563,0,1.161-0.131,1.779-0.393
	c0.778-0.33,1.496-0.837,2.086-1.43v5.173h1.97V2.409C10.202,1.584,10.717,0.785,11.121,0 M7.669,19.048
	c-0.923-0.145-1.673-0.461-2.193-0.995c-1.194-1.226-1.162-3.278-1.002-4.931c0.298-3.027,1.691-5.573,3.195-7.847V19.048z
	 M5.486,21.81c-0.889,0.377-2.586,0.801-3.95-0.604c-3.421-3.525,0.656-10.42,4.252-16.503c0.675-1.139,1.31-2.222,1.881-3.246
	v3.375c-1.598,2.375-3.125,5.044-3.44,8.266c-0.165,1.706-0.194,3.83,1.071,5.128c0.571,0.586,1.363,0.953,2.369,1.101v0.9
	C7.065,20.885,6.312,21.459,5.486,21.81z"/>
</svg>
