<?xml version="1.0" encoding="utf-8"?>
<!-- Generator: Adobe Illustrator 16.0.0, SVG Export Plug-In . SVG Version: 6.00 Build 0)  -->
<!DOCTYPE svg PUBLIC "-//W3C//DTD SVG 1.1//EN" "http://www.w3.org/Graphics/SVG/1.1/DTD/svg11.dtd">
<svg version="1.1" id="Layer_1" xmlns="http://www.w3.org/2000/svg" xmlns:xlink="http://www.w3.org/1999/xlink" x="0px" y="0px"
	 width="128px" height="28px" viewBox="0 0 128 28" enable-background="new 0 0 128 28" xml:space="preserve">
<g>
	<polygon points="128,15.213 120.624,15.213 120.624,9.341 125.396,9.341 125.396,7.013 120.624,7.013 120.624,0 0,0 0,21.887 
		108.967,21.887 108.967,28 111.281,28 111.281,21.887 120.624,21.887 120.624,17.543 128,17.543 	"/>
	<g>
		<path fill="#FFFFFF" d="M33.105,15.02V5.708h4.55c1.292,0,2.197,0.284,2.715,0.853s0.776,1.564,0.776,2.988
			c0,2.324-0.208,3.817-0.623,4.479c-0.416,0.663-1.354,0.993-2.813,0.993H33.105z M34.861,13.532h2.502
			c0.84,0,1.385-0.194,1.631-0.583c0.246-0.389,0.369-1.247,0.369-2.575c0-1.374-0.11-2.247-0.332-2.62
			c-0.221-0.373-0.741-0.559-1.559-0.559h-2.611V13.532z"/>
		<path fill="#FFFFFF" d="M44.001,7.195v2.401h4.341v1.303h-4.341v2.633h4.617v1.487h-6.373V5.708h6.333v1.487H44.001z"/>
		<path fill="#FFFFFF" d="M56.795,8.422H55.08c-0.009-0.086-0.014-0.15-0.014-0.19C55.025,7.709,54.91,7.38,54.72,7.246
			c-0.188-0.134-0.636-0.201-1.342-0.201c-0.832,0-1.375,0.077-1.631,0.232c-0.255,0.155-0.383,0.48-0.383,0.976
			c0,0.587,0.104,0.939,0.313,1.058c0.208,0.118,0.895,0.209,2.062,0.273c1.378,0.077,2.27,0.275,2.674,0.593
			c0.404,0.318,0.606,0.98,0.606,1.985c0,1.237-0.237,2.036-0.712,2.397s-1.521,0.543-3.139,0.543c-1.455,0-2.421-0.178-2.898-0.532
			s-0.716-1.074-0.716-2.156l-0.007-0.341h1.71l0.005,0.198c0,0.65,0.113,1.048,0.34,1.193c0.227,0.146,0.843,0.219,1.852,0.219
			c0.786,0,1.288-0.084,1.505-0.252s0.326-0.557,0.326-1.167c0-0.451-0.084-0.75-0.248-0.897c-0.165-0.147-0.521-0.238-1.069-0.27
			l-0.968-0.062c-1.465-0.086-2.401-0.291-2.809-0.614c-0.406-0.323-0.609-1.017-0.609-2.081c0-1.087,0.246-1.812,0.736-2.173
			s1.47-0.542,2.938-0.542c1.393,0,2.33,0.167,2.813,0.498c0.484,0.332,0.726,0.98,0.726,1.944V8.422z"/>
		<path fill="#FFFFFF" d="M59.996,5.708v9.312H58.24V5.708H59.996z"/>
		<path fill="#FFFFFF" d="M65.277,10.066h4.074l0.027,1.849c0,1.346-0.251,2.213-0.756,2.602c-0.504,0.389-1.628,0.584-3.373,0.584
			c-1.6,0-2.66-0.26-3.179-0.778c-0.521-0.518-0.78-1.576-0.78-3.172c0-2.038,0.104-3.325,0.312-3.861
			c0.259-0.655,0.649-1.096,1.172-1.323c0.525-0.228,1.416-0.341,2.673-0.341c1.645,0,2.707,0.177,3.187,0.529
			c0.479,0.353,0.718,1.133,0.718,2.344h-1.775c-0.032-0.61-0.164-0.988-0.396-1.137c-0.233-0.147-0.816-0.221-1.753-0.221
			c-1.018,0-1.662,0.127-1.937,0.382c-0.273,0.255-0.41,0.853-0.41,1.794l-0.006,0.935l0.014,1.194c0,0.923,0.135,1.511,0.406,1.763
			s0.899,0.378,1.885,0.378c0.959,0,1.567-0.106,1.828-0.32c0.26-0.214,0.389-0.718,0.389-1.514l0.008-0.382h-2.326V10.066z"/>
		<path fill="#FFFFFF" d="M79.204,5.708v9.312h-2.976l-2.645-5.11c-0.132-0.254-0.337-0.7-0.617-1.337l-0.299-0.669l-0.291-0.668
			h-0.068l0.027,0.614l0.021,0.607l0.014,1.221v5.342h-1.756V5.708h2.976l2.407,4.721c0.213,0.418,0.459,0.925,0.739,1.521
			l0.353,0.757l0.353,0.764h0.061l-0.02-0.6l-0.021-0.6l-0.014-1.201V5.708H79.204z"/>
		<path fill="#FFFFFF" d="M87.7,8.422h-1.716c-0.01-0.086-0.014-0.15-0.014-0.19c-0.04-0.523-0.155-0.852-0.346-0.986
			c-0.189-0.134-0.637-0.201-1.342-0.201c-0.832,0-1.376,0.077-1.632,0.232c-0.255,0.155-0.383,0.48-0.383,0.976
			c0,0.587,0.104,0.939,0.313,1.058c0.207,0.118,0.895,0.209,2.06,0.273c1.379,0.077,2.271,0.275,2.676,0.593
			c0.404,0.318,0.606,0.98,0.606,1.985c0,1.237-0.237,2.036-0.712,2.397s-1.521,0.543-3.139,0.543c-1.457,0-2.422-0.178-2.899-0.532
			c-0.477-0.354-0.716-1.074-0.716-2.156l-0.006-0.341h1.708l0.007,0.198c0,0.65,0.113,1.048,0.339,1.193
			c0.227,0.146,0.844,0.219,1.852,0.219c0.786,0,1.288-0.084,1.505-0.252c0.218-0.168,0.326-0.557,0.326-1.167
			c0-0.451-0.083-0.75-0.248-0.897c-0.166-0.147-0.521-0.238-1.068-0.27l-0.969-0.062c-1.465-0.086-2.401-0.291-2.808-0.614
			c-0.406-0.323-0.61-1.017-0.61-2.081c0-1.087,0.246-1.812,0.736-2.173s1.47-0.542,2.939-0.542c1.392,0,2.329,0.167,2.813,0.498
			c0.483,0.332,0.726,0.98,0.726,1.944V8.422z"/>
	</g>
</g>
</svg>
