<?xml version="1.0" encoding="utf-8"?>
<!-- Generator: Adobe Illustrator 16.0.0, SVG Export Plug-In . SVG Version: 6.00 Build 0)  -->
<!DOCTYPE svg PUBLIC "-//W3C//DTD SVG 1.1//EN" "http://www.w3.org/Graphics/SVG/1.1/DTD/svg11.dtd">
<svg version="1.1" id="Layer_1" xmlns="http://www.w3.org/2000/svg" xmlns:xlink="http://www.w3.org/1999/xlink" x="0px" y="0px"
	 width="23px" height="35px" viewBox="0 0 23 35" enable-background="new 0 0 23 35" xml:space="preserve">
<path d="M6.227,29.406v-6.342c1.482-1.824,2.547-3.854,1.994-6.215c-0.497-2.123-1.042-2.881-1.742-3.107
	c0.01-0.015,0.021-0.03,0.032-0.045c2.287-3.19,3.353-10.802,1.677-13.758L7.964,0.061C9.562,2.879,8.54,10.432,6.301,13.554
	c-0.025,0.034-0.05,0.07-0.075,0.104V0H4.185v13.762c-0.852-0.062-1.847-0.482-3.028-2.13C0.281,10.409,0.042,9.15,0.448,7.891
	c1.43-4.438,10.346-7.623,10.435-7.655L10.797,0C10.425,0.131,1.673,3.257,0.205,7.814c-0.431,1.339-0.181,2.672,0.744,3.962
	c1.258,1.755,2.323,2.185,3.236,2.238v2.65c-1.23,1.993-2.261,4.203-2.518,6.756c-0.124,1.233-0.166,2.681,0.298,3.886
	C0.17,29.42-0.777,31.531,1.62,33.938C2.321,34.643,3.188,35,4.152,35c0.584,0,1.204-0.133,1.845-0.396
	c1.527-0.633,2.822-1.898,3.421-3.191H23v-2.006H6.227z M6.227,14.096c0.033-0.046,0.066-0.093,0.099-0.139
	c0.628,0.176,1.155,0.848,1.647,2.947c0.509,2.179-0.387,4.037-1.746,5.762V14.096z M1.922,23.445
	c0.235-2.351,1.147-4.414,2.263-6.287v7.783c-0.133,0.138-0.266,0.274-0.399,0.411c-0.567,0.582-1.125,1.158-1.629,1.733
	C1.764,25.951,1.805,24.604,1.922,23.445z M4.185,25.305v3.854c-0.477-0.182-0.904-0.412-1.228-0.736
	c-0.309-0.309-0.538-0.668-0.706-1.062c0.52-0.6,1.108-1.208,1.719-1.835C4.042,25.453,4.113,25.379,4.185,25.305z M5.897,34.371
	c-0.923,0.383-2.68,0.811-4.095-0.608c-2.228-2.236-1.432-4.172,0.271-6.196c0.174,0.377,0.399,0.729,0.703,1.031
	c0.375,0.376,0.851,0.656,1.41,0.854v1.961h4.943C8.528,32.61,7.304,33.789,5.897,34.371z"/>
</svg>
