<?xml version="1.0" encoding="utf-8"?>
<!-- Generator: Adobe Illustrator 16.0.0, SVG Export Plug-In . SVG Version: 6.00 Build 0)  -->
<!DOCTYPE svg PUBLIC "-//W3C//DTD SVG 1.1//EN" "http://www.w3.org/Graphics/SVG/1.1/DTD/svg11.dtd">
<svg version="1.1" id="Layer_1" xmlns="http://www.w3.org/2000/svg" xmlns:xlink="http://www.w3.org/1999/xlink" x="0px" y="0px"
	 width="207px" height="22px" viewBox="0 0 207 22" enable-background="new 0 0 207 22" xml:space="preserve">
<g>
	<polygon points="207,14.861 198.23,14.861 198.23,5.107 202.211,5.107 202.211,2.767 198.23,2.767 198.23,0 0,0 0,22 198.23,22 
		198.23,17.201 207,17.201 	"/>
	<g>
		<path fill="#FFFFFF" d="M42.257,16.462V3.981h4.989h0.617c1.675,0,2.804,0.294,3.388,0.882c0.583,0.588,0.875,1.724,0.875,3.406
			c0,1.67-0.278,2.78-0.834,3.328c-0.557,0.549-1.682,0.822-3.374,0.822l-0.544,0.01h-2.767v4.032H42.257z M44.606,10.437h2.676
			c1.064,0,1.74-0.124,2.027-0.37c0.287-0.247,0.431-0.831,0.431-1.751c0-1.054-0.12-1.708-0.358-1.961
			c-0.239-0.252-0.861-0.379-1.865-0.379h-2.912V10.437z"/>
		<path fill="#FFFFFF" d="M58.766,3.872c2.25,0,3.698,0.376,4.345,1.129c0.646,0.753,0.97,2.437,0.97,5.052
			c0,2.858-0.325,4.66-0.975,5.403s-2.224,1.115-4.721,1.115c-2.25,0-3.704-0.367-4.363-1.103c-0.66-0.733-0.989-2.35-0.989-4.849
			c0-2.975,0.324-4.843,0.971-5.605C54.65,4.253,56.238,3.872,58.766,3.872z M58.584,5.902c-1.579,0-2.501,0.204-2.767,0.612
			c-0.266,0.409-0.399,1.823-0.399,4.243c0,1.792,0.155,2.87,0.467,3.235c0.311,0.367,1.229,0.549,2.752,0.549
			c1.458,0,2.332-0.205,2.622-0.616c0.291-0.411,0.436-1.659,0.436-3.745c0-2.09-0.137-3.326-0.413-3.707S60.108,5.902,58.584,5.902
			z"/>
		<path fill="#FFFFFF" d="M65.668,16.462V3.981h6.105c1.518,0,2.563,0.265,3.138,0.796c0.575,0.53,0.862,1.49,0.862,2.88
			c0,1.262-0.144,2.125-0.431,2.587c-0.288,0.463-0.876,0.783-1.765,0.96v0.082c1.373,0.085,2.059,0.893,2.059,2.422v2.753h-2.349
			v-2.276c0-1.287-0.629-1.93-1.887-1.93h-3.383v4.206H65.668z M68.018,10.263h3.375c0.804,0,1.338-0.145,1.601-0.435
			c0.263-0.289,0.395-0.87,0.395-1.741c0-0.89-0.113-1.464-0.34-1.724c-0.227-0.259-0.724-0.388-1.492-0.388h-3.538V10.263z"/>
		<path fill="#FFFFFF" d="M82.576,6.103v10.359h-2.349V6.103h-3.574V3.981h9.624v2.122H82.576z"/>
		<path fill="#FFFFFF" d="M89.815,5.975v3.364h5.551v1.993h-5.551v5.129h-2.349V3.981h8.2v1.994H89.815z"/>
		<path fill="#FFFFFF" d="M102.242,3.872c2.25,0,3.698,0.376,4.345,1.129c0.647,0.753,0.97,2.437,0.97,5.052
			c0,2.858-0.324,4.66-0.975,5.403s-2.225,1.115-4.721,1.115c-2.25,0-3.704-0.367-4.363-1.103c-0.66-0.733-0.989-2.35-0.989-4.849
			c0-2.975,0.323-4.843,0.97-5.605C98.127,4.253,99.714,3.872,102.242,3.872z M102.061,5.902c-1.579,0-2.5,0.204-2.767,0.612
			c-0.266,0.409-0.399,1.823-0.399,4.243c0,1.792,0.156,2.87,0.467,3.235c0.312,0.367,1.229,0.549,2.753,0.549
			c1.458,0,2.331-0.205,2.622-0.616c0.29-0.411,0.436-1.659,0.436-3.745c0-2.09-0.138-3.326-0.412-3.707
			C104.483,6.092,103.584,5.902,102.061,5.902z"/>
		<path fill="#FFFFFF" d="M111.494,3.981V14.34h5.805v2.122h-8.154V3.981H111.494z"/>
		<path fill="#FFFFFF" d="M120.837,3.981v12.48h-2.35V3.981H120.837z"/>
		<path fill="#FFFFFF" d="M128.176,3.872c2.249,0,3.697,0.376,4.345,1.129c0.647,0.753,0.97,2.437,0.97,5.052
			c0,2.858-0.324,4.66-0.975,5.403s-2.225,1.115-4.721,1.115c-2.25,0-3.705-0.367-4.363-1.103c-0.66-0.733-0.988-2.35-0.988-4.849
			c0-2.975,0.322-4.843,0.97-5.605C124.061,4.253,125.647,3.872,128.176,3.872z M127.994,5.902c-1.578,0-2.5,0.204-2.768,0.612
			c-0.266,0.409-0.398,1.823-0.398,4.243c0,1.792,0.156,2.87,0.467,3.235c0.312,0.367,1.229,0.549,2.754,0.549
			c1.457,0,2.33-0.205,2.621-0.616c0.29-0.411,0.436-1.659,0.436-3.745c0-2.09-0.138-3.326-0.413-3.707S129.518,5.902,127.994,5.902
			z"/>
	</g>
</g>
</svg>
