<?xml version="1.0" encoding="utf-8"?>
<!-- Generator: Adobe Illustrator 16.0.0, SVG Export Plug-In . SVG Version: 6.00 Build 0)  -->
<!DOCTYPE svg PUBLIC "-//W3C//DTD SVG 1.1//EN" "http://www.w3.org/Graphics/SVG/1.1/DTD/svg11.dtd">
<svg version="1.1" id="Layer_1" xmlns="http://www.w3.org/2000/svg" xmlns:xlink="http://www.w3.org/1999/xlink" x="0px" y="0px"
	 width="164px" height="22px" viewBox="0 0 164 22" enable-background="new 0 0 164 22" xml:space="preserve">
<g>
	<path d="M164,5.497v-2.34h-8.379V0H0v22h155.621v-4.366h6.35v-2.341h-6.35V5.497H164z M5.018,15.313H3.157V6.681h1.861V15.313z"/>
	<g>
		<path fill="#FFFFFF" d="M42.216,16.464V3.983h6.099c1.516,0,2.562,0.265,3.135,0.796c0.574,0.53,0.861,1.49,0.861,2.88
			c0,1.262-0.144,2.125-0.43,2.587c-0.287,0.463-0.875,0.783-1.763,0.96v0.082c1.372,0.085,2.057,0.893,2.057,2.422v2.753h-2.347
			v-2.276c0-1.287-0.628-1.93-1.885-1.93h-3.38v4.206H42.216z M44.563,10.265h3.372c0.803,0,1.336-0.145,1.599-0.435
			c0.263-0.289,0.395-0.87,0.395-1.741c0-0.89-0.114-1.464-0.34-1.724c-0.227-0.259-0.723-0.388-1.491-0.388h-3.534V10.265z"/>
		<path fill="#FFFFFF" d="M56.28,5.977v3.218h5.8v1.747h-5.8v3.529h6.171v1.993h-8.518V3.983h8.464v1.994H56.28z"/>
		<path fill="#FFFFFF" d="M73.38,7.623h-2.293c-0.012-0.116-0.018-0.201-0.018-0.256c-0.054-0.7-0.208-1.141-0.462-1.321
			s-0.852-0.27-1.794-0.27c-1.112,0-1.838,0.104-2.179,0.311c-0.341,0.207-0.512,0.643-0.512,1.308c0,0.786,0.139,1.259,0.417,1.417
			c0.278,0.159,1.196,0.28,2.755,0.366c1.843,0.104,3.034,0.369,3.575,0.795c0.541,0.427,0.812,1.313,0.812,2.661
			c0,1.658-0.317,2.729-0.952,3.214c-0.635,0.484-2.033,0.727-4.196,0.727c-1.945,0-3.237-0.237-3.874-0.713
			c-0.638-0.476-0.956-1.438-0.956-2.89l-0.009-0.457h2.284l0.009,0.266c0,0.871,0.151,1.404,0.453,1.6
			c0.302,0.195,1.127,0.293,2.475,0.293c1.051,0,1.722-0.113,2.012-0.339s0.435-0.746,0.435-1.563c0-0.604-0.11-1.004-0.331-1.202
			c-0.221-0.198-0.696-0.318-1.427-0.361l-1.296-0.082c-1.958-0.116-3.208-0.391-3.751-0.823c-0.544-0.433-0.816-1.362-0.816-2.788
			c0-1.457,0.328-2.428,0.983-2.913c0.656-0.484,1.965-0.727,3.928-0.727c1.86,0,3.114,0.223,3.761,0.667
			c0.646,0.445,0.97,1.314,0.97,2.606V7.623z"/>
		<path fill="#FFFFFF" d="M83.268,3.983h2.347v8.302c0,1.737-0.331,2.887-0.992,3.447c-0.662,0.561-2.014,0.841-4.056,0.841
			c-2.157,0-3.57-0.265-4.241-0.796c-0.67-0.529-1.006-1.648-1.006-3.355V3.983h2.347v8.438c0,0.921,0.163,1.505,0.489,1.752
			c0.327,0.246,1.094,0.369,2.302,0.369c1.238,0,2.017-0.124,2.333-0.374c0.317-0.25,0.477-0.862,0.477-1.838V3.983z"/>
		<path fill="#FFFFFF" d="M102.243,3.983v12.48h-2.347V9.661c0-0.542,0.014-1.158,0.045-1.847l0.045-0.932l0.046-0.923h-0.073
			l-0.281,0.868l-0.271,0.869c-0.254,0.78-0.449,1.356-0.588,1.728l-2.72,7.04h-2.138l-2.746-6.985
			c-0.151-0.384-0.351-0.96-0.598-1.728l-0.281-0.868l-0.281-0.86h-0.072l0.045,0.905l0.045,0.914
			c0.037,0.707,0.055,1.314,0.055,1.819v6.803h-2.348V3.983h3.824l2.212,5.778c0.151,0.402,0.351,0.979,0.599,1.729l0.271,0.868
			l0.281,0.859h0.08l0.264-0.859l0.271-0.859c0.224-0.725,0.418-1.298,0.58-1.719l2.175-5.797H102.243z"/>
		<path fill="#FFFFFF" d="M106.52,5.977v3.218h5.801v1.747h-5.801v3.529h6.172v1.993h-8.519V3.983h8.464v1.994H106.52z"/>
	</g>
</g>
</svg>
