<?xml version="1.0" encoding="utf-8"?>
<!-- Generator: Adobe Illustrator 16.0.0, SVG Export Plug-In . SVG Version: 6.00 Build 0)  -->
<!DOCTYPE svg PUBLIC "-//W3C//DTD SVG 1.1//EN" "http://www.w3.org/Graphics/SVG/1.1/DTD/svg11.dtd">
<svg version="1.1" id="Layer_1" xmlns="http://www.w3.org/2000/svg" xmlns:xlink="http://www.w3.org/1999/xlink" x="0px" y="0px"
	 width="32px" height="414.128px" viewBox="0 0 32 414.128" enable-background="new 0 0 32 414.128" xml:space="preserve">
<path d="M14.602,0h-1.159h-2.345v2.342C2.512,9.146-0.605,20.542,0.786,39.191c1.052,14.087,5.5,24.234,10.312,32.41v61.028
	c-1.005,1.199-2.045,2.419-3.171,3.687c-14.219,16.039-6.9,27.444,3.171,37.942v55.253h2.345v181.714H6.26v3.245h7.183h4.689h7.183
	v-3.245h-7.183V229.511h2.345v-4.982c5.018-1.58,12.082-4.416,11.488-23.118c-0.225-7.123-5.35-13.241-11.488-19.449v-60.011
	c10.971-17.413,6.998-27.135,0-38.006V0h-2.345h-2.345 M30.793,201.45c0.549,17.336-5.672,20.325-10.316,21.828v-39.626
	C26.067,189.393,30.592,195.069,30.793,201.45z M20.477,119.762V86.145C26.566,95.951,29.438,104.774,20.477,119.762z M1.957,39.101
	C0.396,18.206,5.078,8.91,11.098,3.827v65.449C6.693,61.469,2.926,52.088,1.957,39.101z M8.798,137.116
	c0.798-0.901,1.561-1.783,2.3-2.65v38.066C1.877,162.667-4.31,151.899,8.798,137.116z"/>
</svg>
