<?xml version="1.0" encoding="utf-8"?>
<!-- Generator: Adobe Illustrator 16.0.0, SVG Export Plug-In . SVG Version: 6.00 Build 0)  -->
<!DOCTYPE svg PUBLIC "-//W3C//DTD SVG 1.1//EN" "http://www.w3.org/Graphics/SVG/1.1/DTD/svg11.dtd">
<svg version="1.1" id="Layer_1" xmlns="http://www.w3.org/2000/svg" xmlns:xlink="http://www.w3.org/1999/xlink" x="0px" y="0px"
	 width="24px" height="39px" viewBox="0 0 24 39" enable-background="new 0 0 24 39" xml:space="preserve">
<path d="M23.519,13.53c2.066-7.719-3.184-13.601-3.237-13.646l-0.162,0.194c0.053,0.044,5.179,5.828,3.154,13.386
	c-0.69,2.579-2.134,3.691-3.646,4.404c-0.316-0.44-0.645-0.877-0.981-1.31V0h-2.023v14.056c-2.872-3.485-4.252-10.687-3.748-14.037
	l-0.251-0.037c-0.521,3.473,0.913,10.729,3.834,14.271c0.056,0.066,0.11,0.134,0.165,0.201v4.674
	c-0.714,0.369-1.32,0.839-1.692,1.584c-1.216,2.437-0.062,4.567,1.692,6.581v5.645H0v2.018h13.565
	c0.479,1.445,1.875,2.938,3.559,3.646C17.758,38.867,18.374,39,18.953,39c0.956,0,1.815-0.36,2.51-1.068
	c1.907-1.944,1.525-3.735,0.264-5.51c1.36-1.828,1.427-4.76,1.205-6.998c-0.262-2.646-1.531-5.055-3.152-7.346
	C21.328,17.344,22.806,16.192,23.519,13.53z M19.394,17.976c-0.249,0.11-0.499,0.213-0.747,0.31v-1.313
	C18.901,17.304,19.15,17.639,19.394,17.976z M15.158,20.824c0.324-0.649,0.839-1.072,1.465-1.411v7.49
	C15.038,25.021,14.053,23.039,15.158,20.824z M18.646,29.408c0.027,0.027,0.057,0.056,0.084,0.084
	c0.994,0.988,1.965,1.959,2.675,2.93c-0.077,0.094-0.141,0.199-0.226,0.286c-0.647,0.657-1.498,1.026-2.533,1.11V29.408z
	 M21.282,37.754c-1.403,1.432-3.146,0.998-4.061,0.614c-1.563-0.657-2.9-2.065-3.388-3.413h4.813v-0.897
	c1.101-0.088,2.018-0.468,2.713-1.173c0.075-0.076,0.13-0.17,0.198-0.25C22.708,34.301,23.03,35.973,21.282,37.754z M22.681,25.448
	c0.214,2.168,0.159,4.998-1.11,6.765c-0.721-0.963-1.678-1.922-2.661-2.9c-0.088-0.087-0.175-0.175-0.263-0.262V18.557
	c0.297-0.115,0.599-0.237,0.897-0.372C21.158,20.458,22.423,22.843,22.681,25.448z"/>
</svg>
