<svg xmlns="http://www.w3.org/2000/svg" width="14" height="14" viewBox="-2 -2 14 14" enable-background="new -2 -2 14 14"><path fill="#D19552" d="M5-1.64C1.33-1.64-1.64 1.33-1.64 5S1.33 11.64 5 11.64 11.64 8.66 11.64 5 8.66-1.64 5-1.64zm2.12 11.6l-.66.54L2.8 7.67 6 5l-3.3-2.56L6.17-.5l.7.53-2.85 2.4 3.3 2.56-3.16 2.65 2.95 2.3z"/><path d="M5 12c-3.86 0-7-3.14-7-7s3.14-7 7-7 7 3.14 7 7-3.14 7-7 7zM5-1.28C1.54-1.28-1.28 1.54-1.28 5c0 3.46 2.82 6.28 6.28 6.28 3.46 0 6.28-2.82 6.28-6.28S8.46-1.28 5-1.28zm1.47 12.25L2.24 7.7 5.4 5 2.1 2.45 6.17-.97l1.27 1L4.6 2.4l3.3 2.57-3.16 2.67 2.95 2.3-1.23 1.03zM3.4 7.67l3.05 2.37.1-.08-2.96-2.3L6.74 5l-3.3-2.57L6.3.03l-.1-.07-2.95 2.47L6.55 5 3.4 7.66z"/></svg>