<svg xmlns="http://www.w3.org/2000/svg" width="14" height="14" viewBox="-2 -2 14 14" enable-background="new -2 -2 14 14"><path d="M5 11.9c-3.86 0-7-3.1-7-6.9 0-3.8 3.14-6.9 7-6.9s7 3.1 7 6.9c0 3.8-3.14 6.9-7 6.9zM5-1.18C1.54-1.17-1.28 1.6-1.28 5S1.54 11.17 5 11.17c3.46 0 6.28-2.77 6.28-6.17S8.46-1.17 5-1.17z"/><path fill="#BBC128" d="M5-1.64C1.33-1.64-1.64 1.33-1.64 5c0 3.67 2.98 6.64 6.64 6.64 3.67 0 6.64-2.98 6.64-6.64 0-3.67-2.97-6.64-6.64-6.64zM8.84 8.8c-.78.78-1.9 1.2-3.1 1.2-.48 0-.97-.06-1.46-.2C2.32 9.27.92 8.15.36 6.67-.16 5.3.1 3.77 1.1 2.23 3.25-1.1 7.4.3 7.44.3l-.3.87C7.03 1.12 3.64 0 1.86 2.72 1.03 4 .8 5.26 1.22 6.35c.46 1.2 1.67 2.13 3.32 2.58 1.4.4 2.82.1 3.68-.77.78-.8 1-1.93.6-3.3-.3-1.14-.96-1.82-1.9-1.95-1.14-.16-2.53.5-3.17 1.52-.3.47-.54 1.2 0 1.98.56.84 1.36.8 1.78.7.76-.2 1.4-.8 1.47-1.34.03-.33-.18-.6-.64-.83l.4-.82c1.1.55 1.18 1.33 1.14 1.76-.1.92-1 1.83-2.14 2.1-1.12.28-2.12-.1-2.77-1.06-.6-.9-.6-2 0-2.97C3.8 2.63 5.55 1.8 7.04 2c1.3.2 2.25 1.12 2.66 2.6.45 1.7.15 3.18-.86 4.2z"/><path d="M5 11.82c-3.76 0-6.82-3.06-6.82-6.82 0-3.76 3.06-6.82 6.82-6.82 3.76 0 6.82 3.06 6.82 6.82 0 3.76-3.06 6.82-6.82 6.82zM5-1.46c-3.56 0-6.46 2.9-6.46 6.46s2.9 6.46 6.46 6.46 6.46-2.9 6.46-6.46S8.56-1.46 5-1.46zm.73 11.64c-.5 0-1-.07-1.5-.2C2.22 9.42.8 8.28.2 6.74-.36 5.3-.1 3.7.93 2.14 2.18.23 4.06-.17 5.4-.17c1.17 0 2.07.28 2.1.3L7.7.2l-.4 1.2-.18-.06c-.08-.03-.78-.26-1.7-.26-1.03 0-2.45.3-3.4 1.74-.8 1.23-1 2.43-.62 3.47.43 1.12 1.6 2.02 3.2 2.46.38.1.77.15 1.16.15.93 0 1.76-.3 2.33-.87.73-.73.93-1.82.57-3.13-.3-1.06-.9-1.7-1.77-1.8-1.07-.17-2.4.48-3 1.42-.38.6-.38 1.2 0 1.77.38.56.96.77 1.6.6.67-.16 1.27-.7 1.32-1.16.02-.24-.17-.46-.55-.65L6.1 5l.54-1.13.17.08C8 4.53 8.1 5.4 8.05 5.87c-.1 1-1.08 1.98-2.28 2.27C4.6 8.44 3.5 8 2.8 7c-.64-.97-.64-2.13 0-3.16.77-1.2 2.3-2.05 3.74-2.05.18 0 .35 0 .52.03 1.37.2 2.37 1.17 2.8 2.73.5 1.75.17 3.3-.9 4.37-.8.8-1.95 1.25-3.23 1.25zM5.4.18c-1.26 0-3 .38-4.15 2.14C.28 3.82.03 5.3.53 6.62c.54 1.42 1.9 2.5 3.8 3 .47.14.94.2 1.4.2 1.18 0 2.24-.4 2.98-1.15.97-.96 1.26-2.4.8-4-.38-1.42-1.27-2.3-2.5-2.48-.15-.03-.3-.04-.46-.04-1.32 0-2.73.77-3.42 1.88-.58.9-.58 1.9 0 2.76.6.9 1.52 1.25 2.57 1 1.04-.27 1.9-1.1 2-1.96.03-.35-.04-1-.9-1.48l-.23.5c.52.3.6.66.58.92-.07.63-.77 1.28-1.6 1.48-.16.04-.33.07-.5.07-.42 0-1.02-.15-1.5-.83-.56-.86-.3-1.66.03-2.17.67-1.07 2.1-1.78 3.35-1.6 1 .15 1.72.87 2.06 2.07.4 1.45.16 2.66-.68 3.5-.63.63-1.55.98-2.6.98-.4 0-.83-.06-1.25-.17-1.7-.46-2.96-1.44-3.43-2.68-.44-1.15-.2-2.46.66-3.8C2.73 1.05 4.28.73 5.4.73c.73 0 1.35.14 1.64.22l.18-.5c-.3-.1-1-.25-1.8-.25z"/></svg>