<?xml version="1.0" encoding="utf-8"?>
<!-- Generator: Adobe Illustrator 16.0.0, SVG Export Plug-In . SVG Version: 6.00 Build 0)  -->
<!DOCTYPE svg PUBLIC "-//W3C//DTD SVG 1.1//EN" "http://www.w3.org/Graphics/SVG/1.1/DTD/svg11.dtd">
<svg version="1.1" id="Layer_2" xmlns="http://www.w3.org/2000/svg" xmlns:xlink="http://www.w3.org/1999/xlink" x="0px" y="0px"
	 width="20px" height="20px" viewBox="0 0 20 20" enable-background="new 0 0 20 20" xml:space="preserve">
<ellipse fill="none" stroke="#000000" stroke-miterlimit="10" cx="10" cy="10" rx="9.156" ry="9.01"/>
<path fill="#A61B19" stroke="#000000" stroke-width="0.5" stroke-miterlimit="10" d="M10,0.844c-5.057,0-9.156,4.1-9.156,9.156
	s4.1,9.156,9.156,9.156s9.156-4.1,9.156-9.156S15.057,0.844,10,0.844z M15.292,15.243c-1.074,1.078-2.617,1.656-4.281,1.656
	c-0.655,0-1.329-0.09-2-0.273c-2.712-0.74-4.634-2.272-5.41-4.315c-0.721-1.897-0.372-4.02,1.011-6.138
	c2.983-4.568,8.713-2.664,8.771-2.645L12.978,4.71c-0.196-0.066-4.873-1.601-7.319,2.146c-1.155,1.77-1.462,3.502-0.889,5.011
	c0.621,1.636,2.287,2.931,4.57,3.555c1.944,0.53,3.887,0.123,5.066-1.06c1.085-1.089,1.38-2.669,0.853-4.57
	c-0.433-1.562-1.345-2.488-2.638-2.679C11.051,6.88,9.134,7.798,8.25,9.199c-0.409,0.648-0.745,1.646-0.022,2.722
	c0.788,1.173,1.892,1.104,2.479,0.958c1.03-0.256,1.932-1.075,2.01-1.827c0.048-0.456-0.249-0.844-0.883-1.152l0.547-1.124
	c1.517,0.736,1.641,1.824,1.579,2.406c-0.133,1.274-1.401,2.525-2.951,2.911c-1.541,0.377-2.932-0.155-3.818-1.475
	c-0.844-1.256-0.843-2.746,0.002-4.086c1.145-1.816,3.558-2.964,5.609-2.656c1.794,0.264,3.094,1.536,3.661,3.582
	C17.108,11.782,16.692,13.838,15.292,15.243z"/>
</svg>
