<?xml version="1.0" encoding="utf-8"?>
<!-- Generator: Adobe Illustrator 16.0.0, SVG Export Plug-In . SVG Version: 6.00 Build 0)  -->
<!DOCTYPE svg PUBLIC "-//W3C//DTD SVG 1.1//EN" "http://www.w3.org/Graphics/SVG/1.1/DTD/svg11.dtd">
<svg version="1.1" id="Layer_2" xmlns="http://www.w3.org/2000/svg" xmlns:xlink="http://www.w3.org/1999/xlink" x="0px" y="0px"
	 width="20px" height="20px" viewBox="0 0 20 20" enable-background="new 0 0 20 20" xml:space="preserve">
<ellipse fill="none" stroke="#000000" stroke-miterlimit="10" cx="10" cy="10" rx="9.156" ry="9.01"/>
<path fill="#F9A145" stroke="#000000" stroke-width="0.5" stroke-miterlimit="10" d="M10,0.844c-5.057,0-9.156,4.1-9.156,9.156
	c0,5.057,4.1,9.156,9.156,9.156c5.057,0,9.156-4.1,9.156-9.156C19.156,4.944,15.057,0.844,10,0.844z M15.292,15.243
	c-1.074,1.077-2.617,1.655-4.281,1.655c-0.655,0-1.329-0.09-2-0.272c-2.712-0.74-4.634-2.272-5.41-4.315
	c-0.721-1.896-0.372-4.02,1.011-6.138c2.983-4.568,8.713-2.664,8.771-2.645L12.979,4.71c-0.196-0.066-4.874-1.601-7.319,2.146
	c-1.155,1.77-1.462,3.502-0.889,5.011c0.621,1.636,2.287,2.931,4.57,3.555c1.944,0.53,3.887,0.123,5.066-1.061
	c1.085-1.088,1.38-2.668,0.853-4.569c-0.433-1.562-1.345-2.488-2.638-2.679C11.051,6.88,9.134,7.798,8.25,9.199
	c-0.409,0.648-0.745,1.646-0.022,2.722c0.788,1.173,1.892,1.104,2.479,0.958c1.029-0.256,1.932-1.074,2.01-1.827
	c0.049-0.456-0.249-0.844-0.883-1.152l0.547-1.124c1.518,0.736,1.641,1.824,1.579,2.406c-0.133,1.274-1.401,2.525-2.951,2.911
	c-1.541,0.378-2.932-0.155-3.818-1.475c-0.844-1.257-0.843-2.746,0.002-4.086c1.145-1.816,3.558-2.964,5.609-2.656
	c1.794,0.264,3.095,1.536,3.661,3.582C17.107,11.782,16.691,13.838,15.292,15.243z"/>
</svg>
