<?xml version="1.0" encoding="utf-8"?>
<!-- Generator: Adobe Illustrator 16.0.0, SVG Export Plug-In . SVG Version: 6.00 Build 0)  -->
<!DOCTYPE svg PUBLIC "-//W3C//DTD SVG 1.1//EN" "http://www.w3.org/Graphics/SVG/1.1/DTD/svg11.dtd">
<svg version="1.1" id="Layer_1" xmlns="http://www.w3.org/2000/svg" xmlns:xlink="http://www.w3.org/1999/xlink" x="0px" y="0px"
	 width="217.392px" height="22.008px" viewBox="0 0 217.392 22.008" enable-background="new 0 0 217.392 22.008"
	 xml:space="preserve">
<g>
	<linearGradient id="SVGID_1_" gradientUnits="userSpaceOnUse" x1="5.5161" y1="0.5039" x2="5.5161" y2="21.5049">
		<stop  offset="0" style="stop-color:#FAF5BB"/>
		<stop  offset="1" style="stop-color:#E2E71F"/>
	</linearGradient>
	<path fill="url(#SVGID_1_)" d="M0,21.504v-21h11.032v3.08H3.92v5.292h6.552v3.08H3.92v6.468h7.112v3.08H0z"/>
	<linearGradient id="SVGID_2_" gradientUnits="userSpaceOnUse" x1="19.9917" y1="0.5039" x2="19.9917" y2="21.5049">
		<stop  offset="0" style="stop-color:#FAF5BB"/>
		<stop  offset="1" style="stop-color:#E2E71F"/>
	</linearGradient>
	<path fill="url(#SVGID_2_)" d="M12.46,21.504l5.012-21h5.292l4.76,21h-4.2l-1.036-5.32h-4.592l-1.036,5.32H12.46z M18.312,13.104
		h3.36L20.608,7.14c-0.196-0.98-0.28-1.932-0.392-2.912c-0.028-0.476-0.084-0.952-0.14-1.4H20.02c-0.056,0.448-0.112,0.924-0.14,1.4
		c-0.112,0.98-0.196,1.932-0.392,2.912L18.312,13.104z"/>
	<linearGradient id="SVGID_3_" gradientUnits="userSpaceOnUse" x1="36.6382" y1="0.5039" x2="36.6382" y2="21.5049">
		<stop  offset="0" style="stop-color:#FAF5BB"/>
		<stop  offset="1" style="stop-color:#E2E71F"/>
	</linearGradient>
	<path fill="url(#SVGID_3_)" d="M33.544,12.46v9.044h-3.92v-21h7.42c3.388,0,5.964,1.176,5.964,5.04c0,2.296-0.588,4.704-3.22,5.068
		v0.056c2.324,0.308,3.024,1.792,3.024,3.808c0,0.868-0.112,6.021,0.84,6.636v0.393H39.34c-0.476-1.345-0.392-3.92-0.42-5.32
		c-0.028-1.288,0-3.052-1.344-3.444c-1.064-0.308-2.212-0.28-3.332-0.28H33.544z M33.544,9.38h3.08
		c1.288-0.084,2.296-0.924,2.296-3.024c0-2.352-0.98-2.744-2.464-2.772h-2.912V9.38z"/>
	<linearGradient id="SVGID_4_" gradientUnits="userSpaceOnUse" x1="51.394" y1="0.5039" x2="51.394" y2="21.5049">
		<stop  offset="0" style="stop-color:#FAF5BB"/>
		<stop  offset="1" style="stop-color:#E2E71F"/>
	</linearGradient>
	<path fill="url(#SVGID_4_)" d="M44.856,0.504h13.076v3.08h-4.564v17.92h-3.92V3.584h-4.592V0.504z"/>
	<linearGradient id="SVGID_5_" gradientUnits="userSpaceOnUse" x1="66.9478" y1="0.5039" x2="66.9478" y2="21.5049">
		<stop  offset="0" style="stop-color:#FAF5BB"/>
		<stop  offset="1" style="stop-color:#E2E71F"/>
	</linearGradient>
	<path fill="url(#SVGID_5_)" d="M60.284,21.504v-21h3.92V8.82h5.488V0.504h3.92v21h-3.92V11.9h-5.488v9.604H60.284z"/>
	<linearGradient id="SVGID_6_" gradientUnits="userSpaceOnUse" x1="83.272" y1="0.5039" x2="83.272" y2="21.5049">
		<stop  offset="0" style="stop-color:#E89E6C"/>
		<stop  offset="1" style="stop-color:#EF7622"/>
	</linearGradient>
	<path fill="url(#SVGID_6_)" d="M75.74,21.504l5.012-21h5.292l4.76,21h-4.2l-1.036-5.32h-4.592l-1.036,5.32H75.74z M81.592,13.104
		h3.36L83.888,7.14c-0.196-0.98-0.28-1.932-0.392-2.912c-0.028-0.476-0.084-0.952-0.14-1.4H83.3c-0.056,0.448-0.112,0.924-0.14,1.4
		c-0.112,0.98-0.196,1.932-0.392,2.912L81.592,13.104z"/>
	<linearGradient id="SVGID_7_" gradientUnits="userSpaceOnUse" x1="98.5596" y1="0.5039" x2="98.5596" y2="21.5049">
		<stop  offset="0" style="stop-color:#E89E6C"/>
		<stop  offset="1" style="stop-color:#EF7622"/>
	</linearGradient>
	<path fill="url(#SVGID_7_)" d="M92.959,21.504v-21h3.92v17.92h7.28v3.08H92.959z"/>
	<linearGradient id="SVGID_8_" gradientUnits="userSpaceOnUse" x1="112.3643" y1="0.5039" x2="112.3643" y2="21.5049">
		<stop  offset="0" style="stop-color:#E89E6C"/>
		<stop  offset="1" style="stop-color:#EF7622"/>
	</linearGradient>
	<path fill="url(#SVGID_8_)" d="M106.848,21.504v-21h11.032v3.08h-7.111v5.292h6.551v3.08h-6.551v6.468h7.111v3.08H106.848z"/>
	<linearGradient id="SVGID_9_" gradientUnits="userSpaceOnUse" x1="127.918" y1="0.5039" x2="127.918" y2="21.5049">
		<stop  offset="0" style="stop-color:#E89E6C"/>
		<stop  offset="1" style="stop-color:#EF7622"/>
	</linearGradient>
	<path fill="url(#SVGID_9_)" d="M124.823,12.46v9.044h-3.92v-21h7.42c3.389,0,5.965,1.176,5.965,5.04
		c0,2.296-0.588,4.704-3.221,5.068v0.056c2.324,0.308,3.025,1.792,3.025,3.808c0,0.868-0.113,6.021,0.84,6.636v0.393h-4.313
		c-0.477-1.345-0.393-3.92-0.42-5.32c-0.027-1.288,0-3.052-1.344-3.444c-1.064-0.308-2.213-0.28-3.332-0.28H124.823z M124.823,9.38
		h3.08c1.289-0.084,2.297-0.924,2.297-3.024c0-2.352-0.98-2.744-2.465-2.772h-2.912V9.38z"/>
	<linearGradient id="SVGID_10_" gradientUnits="userSpaceOnUse" x1="142.6738" y1="0.5039" x2="142.6738" y2="21.5049">
		<stop  offset="0" style="stop-color:#E89E6C"/>
		<stop  offset="1" style="stop-color:#EF7622"/>
	</linearGradient>
	<path fill="url(#SVGID_10_)" d="M136.136,0.504h13.076v3.08h-4.564v17.92h-3.92V3.584h-4.592V0.504z"/>
	<linearGradient id="SVGID_11_" gradientUnits="userSpaceOnUse" x1="157.458" y1="0" x2="157.458" y2="22.0088">
		<stop  offset="0" style="stop-color:#E89E6C"/>
		<stop  offset="1" style="stop-color:#EF7622"/>
	</linearGradient>
	<path fill="url(#SVGID_11_)" d="M159.571,6.888c0.029-1.876-0.141-3.724-2.295-3.724c-1.316,0-2.156,0.532-2.156,1.96
		c0,1.596,1.008,2.212,2.24,2.996c1.287,0.812,3.668,2.38,4.76,3.444c1.344,1.316,1.764,2.576,1.764,4.396
		c0,3.977-2.633,6.049-6.469,6.049c-4.703,0-6.383-2.633-6.383-6.385v-1.54h3.92v1.232c-0.084,2.044,0.531,3.528,2.463,3.528
		c1.652,0,2.438-0.868,2.438-2.465c0-1.231-0.561-2.071-1.568-2.771c-2.045-1.596-4.592-2.744-6.189-4.844
		c-0.643-0.952-1.008-2.1-1.008-3.22c0-3.584,2.018-5.544,6.16-5.544c6.244,0,6.076,4.816,6.105,6.888H159.571z"/>
	<linearGradient id="SVGID_12_" gradientUnits="userSpaceOnUse" x1="176.1338" y1="0.5039" x2="176.1338" y2="21.5049">
		<stop  offset="0" style="stop-color:#FCF9F7"/>
		<stop  offset="0.3686" style="stop-color:#F9F7F5"/>
		<stop  offset="0.6038" style="stop-color:#F0EEEC"/>
		<stop  offset="0.8017" style="stop-color:#E2E0DE"/>
		<stop  offset="0.978" style="stop-color:#CDCBCB"/>
		<stop  offset="1" style="stop-color:#CAC8C8"/>
	</linearGradient>
	<path fill="url(#SVGID_12_)" d="M171.024,21.504h-3.92v-21h6.244l2.1,9.744c0.336,1.596,0.561,3.22,0.729,4.844h0.055
		c0.197-2.072,0.336-3.472,0.617-4.844l2.1-9.744h6.215v21h-3.92v-6.608c0-4.172,0.084-8.344,0.336-12.516h-0.055l-4.201,19.125
		h-2.379L170.827,2.38h-0.139c0.252,4.172,0.336,8.344,0.336,12.516V21.504z"/>
	<linearGradient id="SVGID_13_" gradientUnits="userSpaceOnUse" x1="194.7969" y1="0.5039" x2="194.7969" y2="21.5049">
		<stop  offset="0" style="stop-color:#FCF9F7"/>
		<stop  offset="0.3686" style="stop-color:#F9F7F5"/>
		<stop  offset="0.6038" style="stop-color:#F0EEEC"/>
		<stop  offset="0.8017" style="stop-color:#E2E0DE"/>
		<stop  offset="0.978" style="stop-color:#CDCBCB"/>
		<stop  offset="1" style="stop-color:#CAC8C8"/>
	</linearGradient>
	<path fill="url(#SVGID_13_)" d="M187.265,21.504l5.012-21h5.291l4.762,21h-4.201l-1.035-5.32h-4.592l-1.037,5.32H187.265z
		 M193.116,13.104h3.359l-1.063-5.964c-0.197-0.98-0.281-1.932-0.393-2.912c-0.029-0.476-0.084-0.952-0.141-1.4h-0.057
		c-0.055,0.448-0.111,0.924-0.139,1.4c-0.113,0.98-0.197,1.932-0.393,2.912L193.116,13.104z"/>
	<linearGradient id="SVGID_14_" gradientUnits="userSpaceOnUse" x1="210.9385" y1="0.5039" x2="210.9385" y2="21.5049">
		<stop  offset="0" style="stop-color:#FCF9F7"/>
		<stop  offset="0.3686" style="stop-color:#F9F7F5"/>
		<stop  offset="0.6038" style="stop-color:#F0EEEC"/>
		<stop  offset="0.8017" style="stop-color:#E2E0DE"/>
		<stop  offset="0.978" style="stop-color:#CDCBCB"/>
		<stop  offset="1" style="stop-color:#CAC8C8"/>
	</linearGradient>
	<path fill="url(#SVGID_14_)" d="M204.485,21.504v-21h8.008c3.752,0,4.898,3.024,4.898,5.964c0,1.792-0.475,3.808-1.959,4.984
		c-1.232,0.98-2.885,1.288-4.396,1.26h-2.631v8.792H204.485z M208.405,9.632h2.1c1.707,0,2.855-0.728,2.855-3.276
		c0-2.408-0.951-2.772-3.164-2.772h-1.791V9.632z"/>
</g>
</svg>
