<svg xmlns="http://www.w3.org/2000/svg" width="217.392" height="22.008"><linearGradient id="a" x1="5.516" x2="5.516" y1=".504" y2="21.505" gradientUnits="userSpaceOnUse"><stop offset="0" stop-color="#FAF5BB"/><stop offset="1" stop-color="#E2E71F"/></linearGradient><path fill="url(#a)" d="M0 21.5V.5h11.03v3.08h-7.1v5.3h6.54v3.08H3.92v6.46h7.1v3.08H0z"/><linearGradient id="b" x1="19.992" x2="19.992" y1=".504" y2="21.505" gradientUnits="userSpaceOnUse"><stop offset="0" stop-color="#FAF5BB"/><stop offset="1" stop-color="#E2E71F"/></linearGradient><path fill="url(#b)" d="M12.46 21.5l5-21h5.3l4.76 21h-4.2l-1.03-5.32h-4.6l-1.04 5.32h-4.2zm5.85-8.4h3.37L20.6 7.14c-.2-.98-.27-1.93-.38-2.9-.03-.5-.1-.96-.14-1.4h-.06c-.06.44-.1.9-.14 1.4-.1.97-.2 1.92-.4 2.9l-1.17 5.96z"/><linearGradient id="c" x1="36.638" x2="36.638" y1=".504" y2="21.505" gradientUnits="userSpaceOnUse"><stop offset="0" stop-color="#FAF5BB"/><stop offset="1" stop-color="#E2E71F"/></linearGradient><path fill="url(#c)" d="M33.54 12.46v9.04h-3.92V.5h7.42C40.44.5 43 1.68 43 5.54c0 2.3-.58 4.7-3.2 5.07v.07c2.3.3 3 1.8 3 3.8 0 .87-.1 6.03.85 6.64v.4h-4.3c-.5-1.34-.4-3.9-.43-5.3-.03-1.3 0-3.07-1.34-3.46-1.07-.3-2.22-.28-3.34-.28h-.7zm0-3.08h3.08c1.3-.08 2.3-.92 2.3-3.02 0-2.36-.98-2.75-2.46-2.78h-2.92v5.8z"/><linearGradient id="d" x1="51.394" x2="51.394" y1=".504" y2="21.505" gradientUnits="userSpaceOnUse"><stop offset="0" stop-color="#FAF5BB"/><stop offset="1" stop-color="#E2E71F"/></linearGradient><path fill="url(#d)" d="M44.86.5h13.07v3.08h-4.56V21.5h-3.92V3.58h-4.6V.5z"/><linearGradient id="e" x1="66.948" x2="66.948" y1=".504" y2="21.505" gradientUnits="userSpaceOnUse"><stop offset="0" stop-color="#FAF5BB"/><stop offset="1" stop-color="#E2E71F"/></linearGradient><path fill="url(#e)" d="M60.28 21.5V.5h3.92v8.32h5.5V.5h3.9v21h-3.9v-9.6h-5.5v9.6h-3.92z"/><linearGradient id="f" x1="83.272" x2="83.272" y1=".504" y2="21.505" gradientUnits="userSpaceOnUse"><stop offset="0" stop-color="#E89E6C"/><stop offset="1" stop-color="#EF7622"/></linearGradient><path fill="url(#f)" d="M75.74 21.5l5-21h5.3l4.76 21h-4.2l-1.03-5.32h-4.6l-1.03 5.32h-4.2zm5.85-8.4h3.35L83.9 7.14c-.2-.98-.3-1.93-.4-2.9-.03-.5-.1-.96-.14-1.4h-.06c-.06.44-.1.9-.14 1.4-.1.97-.2 1.92-.4 2.9L81.6 13.1z"/><linearGradient id="g" x1="98.56" x2="98.56" y1=".504" y2="21.505" gradientUnits="userSpaceOnUse"><stop offset="0" stop-color="#E89E6C"/><stop offset="1" stop-color="#EF7622"/></linearGradient><path fill="url(#g)" d="M92.96 21.5V.5h3.92v17.92h7.28v3.08h-11.2z"/><linearGradient id="h" x1="112.364" x2="112.364" y1=".504" y2="21.505" gradientUnits="userSpaceOnUse"><stop offset="0" stop-color="#E89E6C"/><stop offset="1" stop-color="#EF7622"/></linearGradient><path fill="url(#h)" d="M106.85 21.5V.5h11.03v3.08h-7.1v5.3h6.54v3.08h-6.55v6.46h7.1v3.08h-11.02z"/><linearGradient id="i" x1="127.918" x2="127.918" y1=".504" y2="21.505" gradientUnits="userSpaceOnUse"><stop offset="0" stop-color="#E89E6C"/><stop offset="1" stop-color="#EF7622"/></linearGradient><path fill="url(#i)" d="M124.82 12.46v9.04h-3.92V.5h7.42c3.4 0 5.97 1.18 5.97 5.04 0 2.3-.6 4.7-3.23 5.07v.07c2.32.3 3.02 1.8 3.02 3.8 0 .87-.12 6.03.83 6.64v.4h-4.3c-.5-1.34-.4-3.9-.43-5.3-.03-1.3 0-3.07-1.34-3.46-1.07-.3-2.22-.28-3.34-.28h-.7zm0-3.08h3.08c1.3-.08 2.3-.92 2.3-3.02 0-2.36-.98-2.75-2.46-2.78h-2.92v5.8z"/><linearGradient id="j" x1="142.674" x2="142.674" y1=".504" y2="21.505" gradientUnits="userSpaceOnUse"><stop offset="0" stop-color="#E89E6C"/><stop offset="1" stop-color="#EF7622"/></linearGradient><path fill="url(#j)" d="M136.14.5h13.07v3.08h-4.55V21.5h-3.92V3.58h-4.6V.5z"/><linearGradient id="k" x1="157.458" x2="157.458" y2="22.009" gradientUnits="userSpaceOnUse"><stop offset="0" stop-color="#E89E6C"/><stop offset="1" stop-color="#EF7622"/></linearGradient><path fill="url(#k)" d="M159.57 6.9c.03-1.9-.14-3.74-2.3-3.74-1.3 0-2.15.54-2.15 1.96 0 1.6 1 2.22 2.24 3 1.3.8 3.67 2.38 4.76 3.44 1.34 1.32 1.76 2.58 1.76 4.4 0 3.98-2.63 6.05-6.46 6.05-4.7 0-6.4-2.62-6.4-6.38v-1.54h3.93v1.24c-.08 2.04.53 3.52 2.47 3.52 1.65 0 2.43-.86 2.43-2.46 0-1.23-.56-2.07-1.57-2.77-2.04-1.6-4.6-2.74-6.18-4.84-.65-.95-1-2.1-1-3.22 0-3.58 2-5.54 6.15-5.54 6.24 0 6.07 4.82 6.1 6.9h-3.78z"/><linearGradient id="l" x1="176.134" x2="176.134" y1=".504" y2="21.505" gradientUnits="userSpaceOnUse"><stop offset="0" stop-color="#FCF9F7"/><stop offset=".369" stop-color="#F9F7F5"/><stop offset=".604" stop-color="#F0EEEC"/><stop offset=".802" stop-color="#E2E0DE"/><stop offset=".978" stop-color="#CDCBCB"/><stop offset="1" stop-color="#CAC8C8"/></linearGradient><path fill="url(#l)" d="M171.02 21.5h-3.92V.5h6.25l2.1 9.75c.33 1.6.56 3.22.73 4.84h.05c.2-2.08.34-3.48.62-4.85l2.1-9.75h6.2v21h-3.9v-6.6c0-4.18.08-8.35.33-12.52h-.05l-4.2 19.13h-2.38L170.83 2.4h-.14c.24 4.17.32 8.34.32 12.52v6.6z"/><linearGradient id="m" x1="194.797" x2="194.797" y1=".504" y2="21.505" gradientUnits="userSpaceOnUse"><stop offset="0" stop-color="#FCF9F7"/><stop offset=".369" stop-color="#F9F7F5"/><stop offset=".604" stop-color="#F0EEEC"/><stop offset=".802" stop-color="#E2E0DE"/><stop offset=".978" stop-color="#CDCBCB"/><stop offset="1" stop-color="#CAC8C8"/></linearGradient><path fill="url(#m)" d="M187.26 21.5l5.02-21h5.3l4.75 21h-4.2l-1.04-5.32h-4.6l-1.04 5.32h-4.2zm5.86-8.4h3.36l-1.07-5.96c-.18-.98-.27-1.93-.38-2.9-.03-.5-.08-.96-.14-1.4h-.06c-.05.44-.1.9-.14 1.4-.1.97-.2 1.92-.4 2.9l-1.16 5.96z"/><linearGradient id="n" x1="210.939" x2="210.939" y1=".504" y2="21.505" gradientUnits="userSpaceOnUse"><stop offset="0" stop-color="#FCF9F7"/><stop offset=".369" stop-color="#F9F7F5"/><stop offset=".604" stop-color="#F0EEEC"/><stop offset=".802" stop-color="#E2E0DE"/><stop offset=".978" stop-color="#CDCBCB"/><stop offset="1" stop-color="#CAC8C8"/></linearGradient><path fill="url(#n)" d="M204.5 21.5V.5h8c3.75 0 4.9 3.03 4.9 5.97 0 1.8-.48 3.8-1.97 4.98-1.23.98-2.88 1.3-4.4 1.26h-2.62v8.8h-3.9zm3.9-11.87h2.1c1.7 0 2.86-.73 2.86-3.27 0-2.4-.95-2.78-3.16-2.78h-1.8v6.05z"/></svg>