<?xml version="1.0" encoding="utf-8"?>
<!-- Generator: Adobe Illustrator 16.0.0, SVG Export Plug-In . SVG Version: 6.00 Build 0)  -->
<!DOCTYPE svg PUBLIC "-//W3C//DTD SVG 1.1//EN" "http://www.w3.org/Graphics/SVG/1.1/DTD/svg11.dtd">
<svg version="1.1" id="Layer_2" xmlns="http://www.w3.org/2000/svg" xmlns:xlink="http://www.w3.org/1999/xlink" x="0px" y="0px"
	 width="20px" height="20px" viewBox="0 0 20 20" enable-background="new 0 0 20 20" xml:space="preserve">
<circle fill="none" stroke="#000000" stroke-miterlimit="10" cx="10" cy="10" r="9.156"/>
<path fill="#9A928D" d="M10,0.844c-5.057,0-9.156,4.099-9.156,9.156s4.1,9.156,9.156,9.156c5.058,0,9.156-4.099,9.156-9.156
	S15.058,0.844,10,0.844z M18.111,9.543l-3.719,0.466l-0.125-0.992l3.719-0.466L18.111,9.543z M16.943,5.836l-3.074,2.144
	l-0.572-0.82l3.074-2.144L16.943,5.836z M3.629,5.016l3.074,2.144l-0.572,0.82L3.057,5.836L3.629,5.016z M2.013,8.551l3.719,0.466
	l-0.124,0.992L1.889,9.543L2.013,8.551z M2.615,13.46l-0.361-0.932l3.494-1.354l0.361,0.932L2.615,13.46z M4.985,16.459
	l-0.747-0.664l2.49-2.801l0.747,0.664L4.985,16.459z M5.744,3.137l0.882-0.471l1.765,3.307L7.509,6.443L5.744,3.137z M8.488,18.051
	l-0.97-0.246l0.92-3.633l0.97,0.246L8.488,18.051z M10.5,5.697h-1V1.949h1V5.697z M11.512,18.051l-0.921-3.633l0.969-0.246
	l0.921,3.633L11.512,18.051z M11.608,5.973l1.765-3.307l0.883,0.471l-1.765,3.307L11.608,5.973z M15.014,16.459l-2.49-2.801
	l0.748-0.664l2.49,2.801L15.014,16.459z M17.385,13.46l-3.494-1.354l0.361-0.932l3.494,1.354L17.385,13.46z"/>
</svg>
