<svg xmlns="http://www.w3.org/2000/svg" width="14" height="14" viewBox="3 3 14 14" enable-background="new 3 3 14 14"><path d="M10 17c-3.86 0-7-3.14-7-7s3.14-7 7-7 7 3.14 7 7-3.14 7-7 7zm0-13.28c-3.46 0-6.28 2.82-6.28 6.28 0 3.46 2.82 6.28 6.28 6.28 3.46 0 6.28-2.82 6.28-6.28 0-3.46-2.82-6.28-6.28-6.28z"/><path fill="#E39B23" d="M10 3.36c-3.67 0-6.64 2.97-6.64 6.64 0 3.67 2.97 6.64 6.64 6.64 3.67 0 6.64-2.98 6.64-6.64 0-3.67-2.97-6.64-6.64-6.64zm5.88 6.3l-2.7.35-.1-.7 2.7-.35.1.72zM15.03 7L12.8 8.53l-.4-.6L14.6 6.4l.4.58zm-9.65-.6L7.6 7.95l-.4.6-2.23-1.56.4-.6zM4.2 8.96l2.7.34-.08.7-2.7-.33.1-.72zm.45 3.56l-.27-.67 2.54-.98.26.68-2.53.98zm1.7 2.18l-.53-.48 1.8-2.03.55.48-1.8 2.03zm.57-9.65l.63-.35 1.28 2.4-.64.34-1.28-2.4zm1.98 10.8l-.7-.17.67-2.64.7.18-.67 2.64zm1.46-8.95h-.72V4.16h.72v2.72zm.74 8.96l-.67-2.64.7-.18.67 2.64-.7.18zm.06-8.76l1.28-2.4.65.34-1.3 2.4-.64-.34zm2.47 7.6l-1.8-2.03.54-.48 1.8 2.03-.54.48zm1.72-2.17l-2.53-.97.26-.68 2.54.98-.27.68z"/></svg>